<svg width="92" height="28" viewBox="0 0 92 28" fill="none" xmlns="http://www.w3.org/2000/svg">
<path d="M18.436 20.806H8.48L6.124 27H0.652L11.064 0.399998H13.42C15.0667 0.399998 16.1813 1.16 16.764 2.68L26.226 27H20.754L18.436 20.806ZM9.886 16.398H17.03L13.496 6.822H13.458L9.886 16.398ZM33.7372 6.252C32.7492 6.252 31.9512 5.97333 31.3432 5.416C30.7606 4.83333 30.4692 4.07333 30.4692 3.136C30.4692 2.19867 30.7606 1.45133 31.3432 0.893999C31.9512 0.311332 32.7492 0.0199986 33.7372 0.0199986C34.7252 0.0199986 35.5106 0.311332 36.0932 0.893999C36.7012 1.45133 37.0052 2.19867 37.0052 3.136C37.0052 4.07333 36.7012 4.83333 36.0932 5.416C35.5106 5.97333 34.7252 6.252 33.7372 6.252ZM31.1532 8.038H36.3212V27H31.1532V8.038Z" fill="white"/>
<path d="M18.436 20.806H8.48L6.124 27H0.652L11.064 0.399998H13.42C15.0667 0.399998 16.1813 1.16 16.764 2.68L26.226 27H20.754L18.436 20.806ZM9.886 16.398H17.03L13.496 6.822H13.458L9.886 16.398ZM33.7372 6.252C32.7492 6.252 31.9512 5.97333 31.3432 5.416C30.7606 4.83333 30.4692 4.07333 30.4692 3.136C30.4692 2.19867 30.7606 1.45133 31.3432 0.893999C31.9512 0.311332 32.7492 0.0199986 33.7372 0.0199986C34.7252 0.0199986 35.5106 0.311332 36.0932 0.893999C36.7012 1.45133 37.0052 2.19867 37.0052 3.136C37.0052 4.07333 36.7012 4.83333 36.0932 5.416C35.5106 5.97333 34.7252 6.252 33.7372 6.252ZM31.1532 8.038H36.3212V27H31.1532V8.038Z" fill="url(#paint0_linear_6344_29116)"/>
<path d="M52.5885 27.304C50.6378 27.304 48.9152 26.886 47.4205 26.05C45.9258 25.214 44.7605 24.036 43.9245 22.516C43.1138 20.9707 42.7085 19.1973 42.7085 17.196V10.204C42.7085 8.20267 43.1138 6.442 43.9245 4.922C44.7605 3.37667 45.9258 2.186 47.4205 1.35C48.9405 0.514 50.6885 0.0959998 52.6645 0.0959998H56.9205C58.8205 0.0959998 60.4925 0.475999 61.9365 1.236C63.3805 1.996 64.4952 3.07267 65.2805 4.466C66.0912 5.85933 66.4965 7.468 66.4965 9.292H61.3285C61.3285 7.924 60.9232 6.822 60.1125 5.986C59.3018 5.15 58.2378 4.732 56.9205 4.732H52.6645C51.2458 4.732 50.1058 5.264 49.2445 6.328C48.3832 7.36667 47.9525 8.73467 47.9525 10.432V16.968C47.9525 18.6653 48.3705 20.046 49.2065 21.11C50.0678 22.1487 51.1952 22.668 52.5885 22.668H57.0725C58.3645 22.668 59.4285 22.1993 60.2645 21.262C61.1258 20.3247 61.5565 19.1593 61.5565 17.766V16.93H54.1845V12.37H66.7245V17.766C66.7245 19.6153 66.3192 21.262 65.5085 22.706C64.6978 24.15 63.5578 25.2773 62.0885 26.088C60.6192 26.8987 58.9472 27.304 57.0725 27.304H52.5885ZM79.6032 27.304C78.0072 27.304 76.5886 27 75.3472 26.392C74.1312 25.7587 73.1812 24.872 72.4972 23.732C71.8386 22.592 71.5092 21.2747 71.5092 19.78V15.334C71.5092 13.8393 71.8512 12.522 72.5352 11.382C73.2192 10.2167 74.1692 9.31733 75.3852 8.684C76.6266 8.05067 78.0452 7.734 79.6412 7.734H83.0612C84.6572 7.734 86.0632 8.05067 87.2792 8.684C88.5206 9.31733 89.4832 10.2167 90.1672 11.382C90.8512 12.522 91.1932 13.8393 91.1932 15.334V19.78C91.1932 21.2747 90.8512 22.592 90.1672 23.732C89.4832 24.872 88.5206 25.7587 87.2792 26.392C86.0632 27 84.6446 27.304 83.0232 27.304H79.6032ZM82.9472 22.858C83.8846 22.858 84.6319 22.5413 85.1892 21.908C85.7466 21.2493 86.0252 20.4007 86.0252 19.362V15.676C86.0252 14.6373 85.7466 13.8013 85.1892 13.168C84.6319 12.5093 83.8972 12.18 82.9852 12.18H79.7172C78.8052 12.18 78.0706 12.5093 77.5132 13.168C76.9559 13.8013 76.6772 14.6373 76.6772 15.676V19.362C76.6772 20.4007 76.9559 21.2493 77.5132 21.908C78.0706 22.5413 78.7926 22.858 79.6792 22.858H82.9472Z" fill="white"/>
<defs>
<linearGradient id="paint0_linear_6344_29116" x1="47" y1="-16" x2="47" y2="41" gradientUnits="userSpaceOnUse">
<stop stop-color="#049AEF"/>
<stop offset="1" stop-color="#0862DC"/>
</linearGradient>
</defs>
</svg>
