<svg width="254" height="254" viewBox="0 0 254 254" fill="none" xmlns="http://www.w3.org/2000/svg">
<path d="M0 0H10.16V10.16H0V0ZM10.16 0H20.32V10.16H10.16V0ZM20.32 0H30.48V10.16H20.32V0ZM30.48 0H40.64V10.16H30.48V0ZM40.64 0H50.8V10.16H40.64V0ZM50.8 0H60.96V10.16H50.8V0ZM60.96 0H71.12V10.16H60.96V0ZM81.28 0H91.44V10.16H81.28V0ZM91.44 0H101.6V10.16H91.44V0ZM101.6 0H111.76V10.16H101.6V0ZM111.76 0H121.92V10.16H111.76V0ZM132.08 0H142.24V10.16H132.08V0ZM142.24 0H152.4V10.16H142.24V0ZM152.4 0H162.56V10.16H152.4V0ZM182.88 0H193.04V10.16H182.88V0ZM193.04 0H203.2V10.16H193.04V0ZM203.2 0H213.36V10.16H203.2V0ZM213.36 0H223.52V10.16H213.36V0ZM223.52 0H233.68V10.16H223.52V0ZM233.68 0H243.84V10.16H233.68V0ZM243.84 0H254V10.16H243.84V0ZM0 10.16H10.16V20.32H0V10.16ZM60.96 10.16H71.12V20.32H60.96V10.16ZM81.28 10.16H91.44V20.32H81.28V10.16ZM91.44 10.16H101.6V20.32H91.44V10.16ZM101.6 10.16H111.76V20.32H101.6V10.16ZM121.92 10.16H132.08V20.32H121.92V10.16ZM152.4 10.16H162.56V20.32H152.4V10.16ZM182.88 10.16H193.04V20.32H182.88V10.16ZM243.84 10.16H254V20.32H243.84V10.16ZM0 20.32H10.16V30.48H0V20.32ZM20.32 20.32H30.48V30.48H20.32V20.32ZM30.48 20.32H40.64V30.48H30.48V20.32ZM40.64 20.32H50.8V30.48H40.64V20.32ZM60.96 20.32H71.12V30.48H60.96V20.32ZM91.44 20.32H101.6V30.48H91.44V20.32ZM142.24 20.32H152.4V30.48H142.24V20.32ZM162.56 20.32H172.72V30.48H162.56V20.32ZM182.88 20.32H193.04V30.48H182.88V20.32ZM203.2 20.32H213.36V30.48H203.2V20.32ZM213.36 20.32H223.52V30.48H213.36V20.32ZM223.52 20.32H233.68V30.48H223.52V20.32ZM243.84 20.32H254V30.48H243.84V20.32ZM0 30.48H10.16V40.64H0V30.48ZM20.32 30.48H30.48V40.64H20.32V30.48ZM30.48 30.48H40.64V40.64H30.48V30.48ZM40.64 30.48H50.8V40.64H40.64V30.48ZM60.96 30.48H71.12V40.64H60.96V30.48ZM101.6 30.48H111.76V40.64H101.6V30.48ZM111.76 30.48H121.92V40.64H111.76V30.48ZM142.24 30.48H152.4V40.64H142.24V30.48ZM152.4 30.48H162.56V40.64H152.4V30.48ZM182.88 30.48H193.04V40.64H182.88V30.48ZM203.2 30.48H213.36V40.64H203.2V30.48ZM213.36 30.48H223.52V40.64H213.36V30.48ZM223.52 30.48H233.68V40.64H223.52V30.48ZM243.84 30.48H254V40.64H243.84V30.48ZM0 40.64H10.16V50.8H0V40.64ZM20.32 40.64H30.48V50.8H20.32V40.64ZM30.48 40.64H40.64V50.8H30.48V40.64ZM40.64 40.64H50.8V50.8H40.64V40.64ZM60.96 40.64H71.12V50.8H60.96V40.64ZM111.76 40.64H121.92V50.8H111.76V40.64ZM121.92 40.64H132.08V50.8H121.92V40.64ZM132.08 40.64H142.24V50.8H132.08V40.64ZM142.24 40.64H152.4V50.8H142.24V40.64ZM152.4 40.64H162.56V50.8H152.4V40.64ZM182.88 40.64H193.04V50.8H182.88V40.64ZM203.2 40.64H213.36V50.8H203.2V40.64ZM213.36 40.64H223.52V50.8H213.36V40.64ZM223.52 40.64H233.68V50.8H223.52V40.64ZM243.84 40.64H254V50.8H243.84V40.64ZM0 50.8H10.16V60.96H0V50.8ZM60.96 50.8H71.12V60.96H60.96V50.8ZM91.44 50.8H101.6V60.96H91.44V50.8ZM111.76 50.8H121.92V60.96H111.76V50.8ZM132.08 50.8H142.24V60.96H132.08V50.8ZM142.24 50.8H152.4V60.96H142.24V50.8ZM162.56 50.8H172.72V60.96H162.56V50.8ZM182.88 50.8H193.04V60.96H182.88V50.8ZM243.84 50.8H254V60.96H243.84V50.8ZM0 60.96H10.16V71.12H0V60.96ZM10.16 60.96H20.32V71.12H10.16V60.96ZM20.32 60.96H30.48V71.12H20.32V60.96ZM30.48 60.96H40.64V71.12H30.48V60.96ZM40.64 60.96H50.8V71.12H40.64V60.96ZM50.8 60.96H60.96V71.12H50.8V60.96ZM60.96 60.96H71.12V71.12H60.96V60.96ZM81.28 60.96H91.44V71.12H81.28V60.96ZM101.6 60.96H111.76V71.12H101.6V60.96ZM121.92 60.96H132.08V71.12H121.92V60.96ZM142.24 60.96H152.4V71.12H142.24V60.96ZM162.56 60.96H172.72V71.12H162.56V60.96ZM182.88 60.96H193.04V71.12H182.88V60.96ZM193.04 60.96H203.2V71.12H193.04V60.96ZM203.2 60.96H213.36V71.12H203.2V60.96ZM213.36 60.96H223.52V71.12H213.36V60.96ZM223.52 60.96H233.68V71.12H223.52V60.96ZM233.68 60.96H243.84V71.12H233.68V60.96ZM243.84 60.96H254V71.12H243.84V60.96ZM91.44 71.12H101.6V81.28H91.44V71.12ZM121.92 71.12H132.08V81.28H121.92V71.12ZM132.08 71.12H142.24V81.28H132.08V71.12ZM10.16 81.28H20.32V91.44H10.16V81.28ZM60.96 81.28H71.12V91.44H60.96V81.28ZM71.12 81.28H81.28V91.44H71.12V81.28ZM81.28 81.28H91.44V91.44H81.28V81.28ZM101.6 81.28H111.76V91.44H101.6V81.28ZM111.76 81.28H121.92V91.44H111.76V81.28ZM121.92 81.28H132.08V91.44H121.92V81.28ZM142.24 81.28H152.4V91.44H142.24V81.28ZM152.4 81.28H162.56V91.44H152.4V81.28ZM172.72 81.28H182.88V91.44H172.72V81.28ZM233.68 81.28H243.84V91.44H233.68V81.28ZM243.84 81.28H254V91.44H243.84V81.28ZM30.48 91.44H40.64V101.6H30.48V91.44ZM71.12 91.44H81.28V101.6H71.12V91.44ZM81.28 91.44H91.44V101.6H81.28V91.44ZM101.6 91.44H111.76V101.6H101.6V91.44ZM121.92 91.44H132.08V101.6H121.92V91.44ZM142.24 91.44H152.4V101.6H142.24V91.44ZM193.04 91.44H203.2V101.6H193.04V91.44ZM203.2 91.44H213.36V101.6H203.2V91.44ZM213.36 91.44H223.52V101.6H213.36V91.44ZM223.52 91.44H233.68V101.6H223.52V91.44ZM233.68 91.44H243.84V101.6H233.68V91.44ZM0 101.6H10.16V111.76H0V101.6ZM10.16 101.6H20.32V111.76H10.16V101.6ZM40.64 101.6H50.8V111.76H40.64V101.6ZM50.8 101.6H60.96V111.76H50.8V101.6ZM60.96 101.6H71.12V111.76H60.96V101.6ZM101.6 101.6H111.76V111.76H101.6V101.6ZM121.92 101.6H132.08V111.76H121.92V101.6ZM193.04 101.6H203.2V111.76H193.04V101.6ZM213.36 101.6H223.52V111.76H213.36V101.6ZM233.68 101.6H243.84V111.76H233.68V101.6ZM243.84 101.6H254V111.76H243.84V101.6ZM0 111.76H10.16V121.92H0V111.76ZM10.16 111.76H20.32V121.92H10.16V111.76ZM40.64 111.76H50.8V121.92H40.64V111.76ZM50.8 111.76H60.96V121.92H50.8V111.76ZM101.6 111.76H111.76V121.92H101.6V111.76ZM111.76 111.76H121.92V121.92H111.76V111.76ZM142.24 111.76H152.4V121.92H142.24V111.76ZM152.4 111.76H162.56V121.92H152.4V111.76ZM162.56 111.76H172.72V121.92H162.56V111.76ZM172.72 111.76H182.88V121.92H172.72V111.76ZM182.88 111.76H193.04V121.92H182.88V111.76ZM213.36 111.76H223.52V121.92H213.36V111.76ZM243.84 111.76H254V121.92H243.84V111.76ZM10.16 121.92H20.32V132.08H10.16V121.92ZM50.8 121.92H60.96V132.08H50.8V121.92ZM60.96 121.92H71.12V132.08H60.96V121.92ZM71.12 121.92H81.28V132.08H71.12V121.92ZM81.28 121.92H91.44V132.08H81.28V121.92ZM101.6 121.92H111.76V132.08H101.6V121.92ZM132.08 121.92H142.24V132.08H132.08V121.92ZM142.24 121.92H152.4V132.08H142.24V121.92ZM182.88 121.92H193.04V132.08H182.88V121.92ZM193.04 121.92H203.2V132.08H193.04V121.92ZM243.84 121.92H254V132.08H243.84V121.92ZM0 132.08H10.16V142.24H0V132.08ZM10.16 132.08H20.32V142.24H10.16V132.08ZM20.32 132.08H30.48V142.24H20.32V132.08ZM30.48 132.08H40.64V142.24H30.48V132.08ZM50.8 132.08H60.96V142.24H50.8V132.08ZM71.12 132.08H81.28V142.24H71.12V132.08ZM111.76 132.08H121.92V142.24H111.76V132.08ZM121.92 132.08H132.08V142.24H121.92V132.08ZM132.08 132.08H142.24V142.24H132.08V132.08ZM142.24 132.08H152.4V142.24H142.24V132.08ZM193.04 132.08H203.2V142.24H193.04V132.08ZM233.68 132.08H243.84V142.24H233.68V132.08ZM0 142.24H10.16V152.4H0V142.24ZM30.48 142.24H40.64V152.4H30.48V142.24ZM50.8 142.24H60.96V152.4H50.8V142.24ZM60.96 142.24H71.12V152.4H60.96V142.24ZM81.28 142.24H91.44V152.4H81.28V142.24ZM91.44 142.24H101.6V152.4H91.44V142.24ZM101.6 142.24H111.76V152.4H101.6V142.24ZM132.08 142.24H142.24V152.4H132.08V142.24ZM142.24 142.24H152.4V152.4H142.24V142.24ZM152.4 142.24H162.56V152.4H152.4V142.24ZM162.56 142.24H172.72V152.4H162.56V142.24ZM172.72 142.24H182.88V152.4H172.72V142.24ZM182.88 142.24H193.04V152.4H182.88V142.24ZM193.04 142.24H203.2V152.4H193.04V142.24ZM203.2 142.24H213.36V152.4H203.2V142.24ZM213.36 142.24H223.52V152.4H213.36V142.24ZM233.68 142.24H243.84V152.4H233.68V142.24ZM243.84 142.24H254V152.4H243.84V142.24ZM0 152.4H10.16V162.56H0V152.4ZM20.32 152.4H30.48V162.56H20.32V152.4ZM30.48 152.4H40.64V162.56H30.48V152.4ZM50.8 152.4H60.96V162.56H50.8V152.4ZM101.6 152.4H111.76V162.56H101.6V152.4ZM111.76 152.4H121.92V162.56H111.76V152.4ZM162.56 152.4H172.72V162.56H162.56V152.4ZM172.72 152.4H182.88V162.56H172.72V152.4ZM193.04 152.4H203.2V162.56H193.04V152.4ZM213.36 152.4H223.52V162.56H213.36V152.4ZM223.52 152.4H233.68V162.56H223.52V152.4ZM243.84 152.4H254V162.56H243.84V152.4ZM0 162.56H10.16V172.72H0V162.56ZM20.32 162.56H30.48V172.72H20.32V162.56ZM60.96 162.56H71.12V172.72H60.96V162.56ZM71.12 162.56H81.28V172.72H71.12V162.56ZM91.44 162.56H101.6V172.72H91.44V162.56ZM101.6 162.56H111.76V172.72H101.6V162.56ZM121.92 162.56H132.08V172.72H121.92V162.56ZM132.08 162.56H142.24V172.72H132.08V162.56ZM142.24 162.56H152.4V172.72H142.24V162.56ZM152.4 162.56H162.56V172.72H152.4V162.56ZM162.56 162.56H172.72V172.72H162.56V162.56ZM172.72 162.56H182.88V172.72H172.72V162.56ZM182.88 162.56H193.04V172.72H182.88V162.56ZM193.04 162.56H203.2V172.72H193.04V162.56ZM203.2 162.56H213.36V172.72H203.2V162.56ZM223.52 162.56H233.68V172.72H223.52V162.56ZM81.28 172.72H91.44V182.88H81.28V172.72ZM101.6 172.72H111.76V182.88H101.6V172.72ZM162.56 172.72H172.72V182.88H162.56V172.72ZM203.2 172.72H213.36V182.88H203.2V172.72ZM0 182.88H10.16V193.04H0V182.88ZM10.16 182.88H20.32V193.04H10.16V182.88ZM20.32 182.88H30.48V193.04H20.32V182.88ZM30.48 182.88H40.64V193.04H30.48V182.88ZM40.64 182.88H50.8V193.04H40.64V182.88ZM50.8 182.88H60.96V193.04H50.8V182.88ZM60.96 182.88H71.12V193.04H60.96V182.88ZM81.28 182.88H91.44V193.04H81.28V182.88ZM101.6 182.88H111.76V193.04H101.6V182.88ZM111.76 182.88H121.92V193.04H111.76V182.88ZM132.08 182.88H142.24V193.04H132.08V182.88ZM142.24 182.88H152.4V193.04H142.24V182.88ZM152.4 182.88H162.56V193.04H152.4V182.88ZM162.56 182.88H172.72V193.04H162.56V182.88ZM182.88 182.88H193.04V193.04H182.88V182.88ZM203.2 182.88H213.36V193.04H203.2V182.88ZM243.84 182.88H254V193.04H243.84V182.88ZM0 193.04H10.16V203.2H0V193.04ZM60.96 193.04H71.12V203.2H60.96V193.04ZM91.44 193.04H101.6V203.2H91.44V193.04ZM101.6 193.04H111.76V203.2H101.6V193.04ZM111.76 193.04H121.92V203.2H111.76V193.04ZM142.24 193.04H152.4V203.2H142.24V193.04ZM152.4 193.04H162.56V203.2H152.4V193.04ZM162.56 193.04H172.72V203.2H162.56V193.04ZM203.2 193.04H213.36V203.2H203.2V193.04ZM243.84 193.04H254V203.2H243.84V193.04ZM0 203.2H10.16V213.36H0V203.2ZM20.32 203.2H30.48V213.36H20.32V203.2ZM30.48 203.2H40.64V213.36H30.48V203.2ZM40.64 203.2H50.8V213.36H40.64V203.2ZM60.96 203.2H71.12V213.36H60.96V203.2ZM91.44 203.2H101.6V213.36H91.44V203.2ZM111.76 203.2H121.92V213.36H111.76V203.2ZM162.56 203.2H172.72V213.36H162.56V203.2ZM172.72 203.2H182.88V213.36H172.72V203.2ZM182.88 203.2H193.04V213.36H182.88V203.2ZM193.04 203.2H203.2V213.36H193.04V203.2ZM203.2 203.2H213.36V213.36H203.2V203.2ZM223.52 203.2H233.68V213.36H223.52V203.2ZM233.68 203.2H243.84V213.36H233.68V203.2ZM0 213.36H10.16V223.52H0V213.36ZM20.32 213.36H30.48V223.52H20.32V213.36ZM30.48 213.36H40.64V223.52H30.48V213.36ZM40.64 213.36H50.8V223.52H40.64V213.36ZM60.96 213.36H71.12V223.52H60.96V213.36ZM121.92 213.36H132.08V223.52H121.92V213.36ZM142.24 213.36H152.4V223.52H142.24V213.36ZM172.72 213.36H182.88V223.52H172.72V213.36ZM182.88 213.36H193.04V223.52H182.88V213.36ZM243.84 213.36H254V223.52H243.84V213.36ZM0 223.52H10.16V233.68H0V223.52ZM20.32 223.52H30.48V233.68H20.32V223.52ZM30.48 223.52H40.64V233.68H30.48V223.52ZM40.64 223.52H50.8V233.68H40.64V223.52ZM60.96 223.52H71.12V233.68H60.96V223.52ZM91.44 223.52H101.6V233.68H91.44V223.52ZM111.76 223.52H121.92V233.68H111.76V223.52ZM162.56 223.52H172.72V233.68H162.56V223.52ZM213.36 223.52H223.52V233.68H213.36V223.52ZM223.52 223.52H233.68V233.68H223.52V223.52ZM243.84 223.52H254V233.68H243.84V223.52ZM0 233.68H10.16V243.84H0V233.68ZM60.96 233.68H71.12V243.84H60.96V233.68ZM81.28 233.68H91.44V243.84H81.28V233.68ZM101.6 233.68H111.76V243.84H101.6V233.68ZM111.76 233.68H121.92V243.84H111.76V233.68ZM142.24 233.68H152.4V243.84H142.24V233.68ZM172.72 233.68H182.88V243.84H172.72V233.68ZM193.04 233.68H203.2V243.84H193.04V233.68ZM203.2 233.68H213.36V243.84H203.2V233.68ZM243.84 233.68H254V243.84H243.84V233.68ZM0 243.84H10.16V254H0V243.84ZM10.16 243.84H20.32V254H10.16V243.84ZM20.32 243.84H30.48V254H20.32V243.84ZM30.48 243.84H40.64V254H30.48V243.84ZM40.64 243.84H50.8V254H40.64V243.84ZM50.8 243.84H60.96V254H50.8V243.84ZM60.96 243.84H71.12V254H60.96V243.84ZM101.6 243.84H111.76V254H101.6V243.84ZM111.76 243.84H121.92V254H111.76V243.84ZM121.92 243.84H132.08V254H121.92V243.84ZM132.08 243.84H142.24V254H132.08V243.84ZM142.24 243.84H152.4V254H142.24V243.84ZM152.4 243.84H162.56V254H152.4V243.84ZM162.56 243.84H172.72V254H162.56V243.84ZM213.36 243.84H223.52V254H213.36V243.84ZM243.84 243.84H254V254H243.84V243.84Z" fill="black"/>
</svg>
