<svg width="13" height="12" viewBox="0 0 13 12" fill="none" xmlns="http://www.w3.org/2000/svg">
<g clip-path="url(#clip0_5301_17533)">
<path d="M6.5 5.6998C9.81406 5.6998 12.5 4.57949 12.5 3.19902C12.5 1.81855 9.81406 0.698242 6.5 0.698242C3.18594 0.698242 0.5 1.81855 0.5 3.19902C0.5 4.57949 3.18594 5.6998 6.5 5.6998ZM6.5 9.69824C4.21016 9.69824 2.18516 9.14746 0.907812 8.29668C0.647656 8.57793 0.5 8.88027 0.5 9.19902C0.5 10.5795 3.18594 11.6998 6.5 11.6998C9.81406 11.6998 12.5 10.5795 12.5 9.19902C12.5 8.88027 12.3523 8.57793 12.0922 8.29902C10.8148 9.14746 8.78984 9.69824 6.5 9.69824ZM6.5 6.69824C4.21016 6.69824 2.18516 6.14746 0.907812 5.29668C0.647656 5.57793 0.5 5.88027 0.5 6.19902C0.5 7.57949 3.18594 8.69981 6.5 8.69981C9.81406 8.69981 12.5 7.57949 12.5 6.19902C12.5 5.88027 12.3523 5.57793 12.0922 5.29902C10.8148 6.14746 8.78984 6.69824 6.5 6.69824Z" fill="white"/>
</g>
<defs>
<clipPath id="clip0_5301_17533">
<rect width="12" height="12" fill="white" transform="translate(0.5)"/>
</clipPath>
</defs>
</svg>
