<svg width="38" height="23" viewBox="0 0 38 23" fill="none" xmlns="http://www.w3.org/2000/svg">
<path fill-rule="evenodd" clip-rule="evenodd" d="M18.9039 19.8799C16.9633 21.5511 14.4459 22.5599 11.695 22.5599C5.55749 22.5599 0.582031 17.5378 0.582031 11.3426C0.582031 5.14742 5.55749 0.125244 11.695 0.125244C14.4459 0.125244 16.9633 1.13411 18.9039 2.80529C20.8445 1.13411 23.3619 0.125244 26.1128 0.125244C32.2503 0.125244 37.2258 5.14742 37.2258 11.3426C37.2258 17.5378 32.2503 22.5599 26.1128 22.5599C23.3619 22.5599 20.8445 21.5511 18.9039 19.8799Z" fill="#ED0006"/>
<path fill-rule="evenodd" clip-rule="evenodd" d="M18.9023 19.8821C21.293 17.8246 22.8091 14.7623 22.8091 11.3426C22.8091 7.92287 21.293 4.86055 18.9023 2.80307C20.8426 1.13322 23.359 0.125244 26.1086 0.125244C32.2462 0.125244 37.2216 5.14742 37.2216 11.3426C37.2216 17.5378 32.2462 22.5599 26.1086 22.5599C23.359 22.5599 20.8426 21.552 18.9023 19.8821Z" fill="#F9A000"/>
<path fill-rule="evenodd" clip-rule="evenodd" d="M18.9041 19.8798C21.2933 17.8223 22.8083 14.761 22.8083 11.3425C22.8083 7.92398 21.2933 4.86264 18.9041 2.80518C16.5149 4.86264 15 7.92398 15 11.3425C15 14.761 16.5149 17.8223 18.9041 19.8798Z" fill="#FF5E00"/>
</svg>
