<svg width="42" height="14" viewBox="0 0 42 14" fill="none" xmlns="http://www.w3.org/2000/svg">
<path fill-rule="evenodd" clip-rule="evenodd" d="M10.6075 13.4197H7.09378L4.45896 3.56262C4.3339 3.1092 4.06836 2.70835 3.67776 2.51942C2.70297 2.04464 1.62883 1.66679 0.457031 1.47622V1.09672H6.11729C6.89848 1.09672 7.48438 1.66679 7.58203 2.32885L8.94913 9.43907L12.4611 1.09672H15.8771L10.6075 13.4197ZM17.8314 13.4197H14.513L17.2455 1.09672H20.5639L17.8314 13.4197ZM24.8543 4.51053C24.9519 3.84683 25.5378 3.46733 26.2214 3.46733C27.2955 3.37205 28.4656 3.56262 29.4421 4.03575L30.028 1.38257C29.0515 1.00307 27.9774 0.8125 27.0026 0.8125C23.7818 0.8125 21.4383 2.51941 21.4383 4.88839C21.4383 6.69058 23.0983 7.63686 24.2701 8.20693C25.5378 8.77535 26.0261 9.15485 25.9284 9.72327C25.9284 10.5759 24.9519 10.9554 23.9771 10.9554C22.8053 10.9554 21.6336 10.6712 20.5611 10.1964L19.9752 12.8512C21.147 13.3244 22.4147 13.5149 23.5865 13.5149C27.1979 13.6086 29.4421 11.9033 29.4421 9.34377C29.4421 6.12052 24.8543 5.93159 24.8543 4.51053V4.51053ZM41.0553 13.4197L38.4204 1.09672H35.5903C35.0044 1.09672 34.4185 1.47622 34.2232 2.04464L29.3442 13.4197H32.7602L33.442 11.6191H37.6392L38.0298 13.4197H41.0553ZM36.0783 4.41532L37.0531 9.05963H34.3206L36.0783 4.41532Z" fill="#172B85"/>
</svg>
