<svg width="14" height="10" viewBox="0 0 14 10" fill="none" xmlns="http://www.w3.org/2000/svg">
<path d="M4.75011 7.6275L2.14761 5.025C2.00738 4.88476 1.81718 4.80598 1.61886 4.80598C1.42054 4.80598 1.23034 4.88476 1.09011 5.025C0.949876 5.16523 0.871094 5.35543 0.871094 5.55375C0.871094 5.65194 0.890435 5.74918 0.928014 5.8399C0.965593 5.93063 1.02067 6.01306 1.09011 6.0825L4.22511 9.2175C4.51761 9.51 4.99011 9.51 5.28261 9.2175L13.2176 1.2825C13.3578 1.14226 13.4366 0.952067 13.4366 0.753747C13.4366 0.555427 13.3578 0.36523 13.2176 0.224997C13.0774 0.0847638 12.8872 0.00598145 12.6889 0.00598145C12.4905 0.00598145 12.3003 0.0847638 12.1601 0.224997L4.75011 7.6275Z" fill="black"/>
<path d="M4.75011 7.6275L2.14761 5.025C2.00738 4.88476 1.81718 4.80598 1.61886 4.80598C1.42054 4.80598 1.23034 4.88476 1.09011 5.025C0.949876 5.16523 0.871094 5.35543 0.871094 5.55375C0.871094 5.65194 0.890435 5.74918 0.928014 5.8399C0.965593 5.93063 1.02067 6.01306 1.09011 6.0825L4.22511 9.2175C4.51761 9.51 4.99011 9.51 5.28261 9.2175L13.2176 1.2825C13.3578 1.14226 13.4366 0.952067 13.4366 0.753747C13.4366 0.555427 13.3578 0.36523 13.2176 0.224997C13.0774 0.0847638 12.8872 0.00598145 12.6889 0.00598145C12.4905 0.00598145 12.3003 0.0847638 12.1601 0.224997L4.75011 7.6275Z" fill="url(#paint0_linear_696_1602)"/>
<defs>
<linearGradient id="paint0_linear_696_1602" x1="2.12183" y1="0.00598369" x2="15.0613" y2="1.70198" gradientUnits="userSpaceOnUse">
<stop stop-color="#8E59FF"/>
<stop offset="1" stop-color="#B659FF"/>
</linearGradient>
</defs>
</svg>
