<svg width="13" height="11" viewBox="0 0 13 11" fill="none" xmlns="http://www.w3.org/2000/svg">
<path d="M3.87902 8.4577L1.27652 5.8552C1.13628 5.71496 0.946085 5.63618 0.747765 5.63618C0.549446 5.63618 0.359249 5.71496 0.219015 5.8552C0.0787822 5.99543 0 6.18563 0 6.38395C0 6.48214 0.0193417 6.57938 0.0569204 6.6701C0.0944991 6.76083 0.149579 6.84326 0.219015 6.9127L3.35402 10.0477C3.64652 10.3402 4.11902 10.3402 4.41152 10.0477L12.3465 2.1127C12.4867 1.97246 12.5655 1.78227 12.5655 1.58395C12.5655 1.38563 12.4867 1.19543 12.3465 1.0552C12.2063 0.914964 12.0161 0.836182 11.8178 0.836182C11.6194 0.836182 11.4292 0.914964 11.289 1.0552L3.87902 8.4577Z" fill="black"/>
<path d="M3.87902 8.4577L1.27652 5.8552C1.13628 5.71496 0.946085 5.63618 0.747765 5.63618C0.549446 5.63618 0.359249 5.71496 0.219015 5.8552C0.0787822 5.99543 0 6.18563 0 6.38395C0 6.48214 0.0193417 6.57938 0.0569204 6.6701C0.0944991 6.76083 0.149579 6.84326 0.219015 6.9127L3.35402 10.0477C3.64652 10.3402 4.11902 10.3402 4.41152 10.0477L12.3465 2.1127C12.4867 1.97246 12.5655 1.78227 12.5655 1.58395C12.5655 1.38563 12.4867 1.19543 12.3465 1.0552C12.2063 0.914964 12.0161 0.836182 11.8178 0.836182C11.6194 0.836182 11.4292 0.914964 11.289 1.0552L3.87902 8.4577Z" fill="url(#paint0_linear_3722_25178)"/>
<defs>
<linearGradient id="paint0_linear_3722_25178" x1="6.28276" y1="0.836182" x2="6.28276" y2="10.2671" gradientUnits="userSpaceOnUse">
<stop stop-color="#049AEF"/>
<stop offset="1" stop-color="#0862DC"/>
</linearGradient>
</defs>
</svg>
