<svg width="24" height="25" viewBox="0 0 24 25" fill="none" xmlns="http://www.w3.org/2000/svg">
<path fill-rule="evenodd" clip-rule="evenodd" d="M7 6.32959C7 5.79916 7.21071 5.29045 7.58579 4.91538C7.96086 4.5403 8.46957 4.32959 9 4.32959H20C20.5304 4.32959 21.0391 4.5403 21.4142 4.91538C21.7893 5.29045 22 5.79916 22 6.32959V13.3296C22 13.86 21.7893 14.3687 21.4142 14.7438C21.0391 15.1189 20.5304 15.3296 20 15.3296H18V11.3296C18 10.5339 17.6839 9.77088 17.1213 9.20827C16.5587 8.64566 15.7956 8.32959 15 8.32959H7V6.32959Z" fill="white"/>
<path fill-rule="evenodd" clip-rule="evenodd" d="M2 11.3296C2 10.7992 2.21071 10.2904 2.58579 9.91538C2.96086 9.5403 3.46957 9.32959 4 9.32959H15C15.5304 9.32959 16.0391 9.5403 16.4142 9.91538C16.7893 10.2904 17 10.7992 17 11.3296V18.3296C17 18.86 16.7893 19.3687 16.4142 19.7438C16.0391 20.1189 15.5304 20.3296 15 20.3296H4C3.46957 20.3296 2.96086 20.1189 2.58579 19.7438C2.21071 19.3687 2 18.86 2 18.3296V11.3296ZM9.5 12.3296C8.83696 12.3296 8.20107 12.593 7.73223 13.0618C7.26339 13.5307 7 14.1665 7 14.8296C7 15.4926 7.26339 16.1285 7.73223 16.5974C8.20107 17.0662 8.83696 17.3296 9.5 17.3296C10.163 17.3296 10.7989 17.0662 11.2678 16.5974C11.7366 16.1285 12 15.4926 12 14.8296C12 14.1665 11.7366 13.5307 11.2678 13.0618C10.7989 12.593 10.163 12.3296 9.5 12.3296Z" fill="white"/>
<path d="M10.5 14.8296C10.5 15.0948 10.3946 15.3492 10.2071 15.5367C10.0196 15.7242 9.76522 15.8296 9.5 15.8296C9.23478 15.8296 8.98043 15.7242 8.79289 15.5367C8.60536 15.3492 8.5 15.0948 8.5 14.8296C8.5 14.5644 8.60536 14.31 8.79289 14.1225C8.98043 13.9349 9.23478 13.8296 9.5 13.8296C9.76522 13.8296 10.0196 13.9349 10.2071 14.1225C10.3946 14.31 10.5 14.5644 10.5 14.8296Z" fill="white"/>
</svg>
