<svg width="61" height="16" viewBox="0 0 61 16" fill="none" xmlns="http://www.w3.org/2000/svg">
<path d="M22.9451 3.9563H19.6292C19.4023 3.9563 19.2093 4.12115 19.1739 4.34515L17.8328 12.8479C17.8062 13.0157 17.9361 13.167 18.1063 13.167H19.6893C19.9162 13.167 20.1092 13.0021 20.1446 12.7776L20.5063 10.4843C20.5412 10.2598 20.7346 10.095 20.9611 10.095H22.0108C24.195 10.095 25.4556 9.038 25.7848 6.94345C25.9332 6.02709 25.7911 5.30709 25.362 4.80284C24.8908 4.24915 24.0549 3.9563 22.9451 3.9563ZM23.3276 7.06175C23.1463 8.25157 22.2372 8.25157 21.3582 8.25157H20.8578L21.2088 6.02951C21.2297 5.89521 21.346 5.7963 21.4818 5.7963H21.7111C22.3099 5.7963 22.8748 5.7963 23.1666 6.13763C23.3407 6.34127 23.394 6.64381 23.3276 7.06175Z" fill="#253B80"/>
<path d="M32.857 7.02336H31.2691C31.1338 7.02336 31.017 7.12227 30.9961 7.25657L30.9258 7.70069L30.8148 7.53972C30.471 7.04081 29.7045 6.87402 28.9394 6.87402C27.1847 6.87402 25.6861 8.20299 25.3942 10.0672C25.2424 10.9972 25.4582 11.8864 25.9857 12.5065C26.4696 13.0767 27.1619 13.3143 27.9857 13.3143C29.3995 13.3143 30.1835 12.4052 30.1835 12.4052L30.1127 12.8464C30.0861 13.0151 30.216 13.1664 30.3852 13.1664H31.8155C32.0429 13.1664 32.2349 13.0015 32.2708 12.7771L33.129 7.34239C33.1561 7.17511 33.0267 7.02336 32.857 7.02336ZM30.6436 10.1138C30.4904 11.0209 29.7704 11.6299 28.8521 11.6299C28.391 11.6299 28.0225 11.482 27.7859 11.2018C27.5513 10.9235 27.4621 10.5274 27.5367 10.0861C27.6798 9.18675 28.4119 8.5579 29.3161 8.5579C29.767 8.5579 30.1336 8.70772 30.375 8.99039C30.617 9.27596 30.713 9.67451 30.6436 10.1138Z" fill="#253B80"/>
<path d="M41.3136 7.02344H39.718C39.5658 7.02344 39.4227 7.09907 39.3364 7.22562L37.1357 10.4673L36.2029 7.35217C36.1442 7.15726 35.9643 7.02344 35.7607 7.02344H34.1927C34.0021 7.02344 33.8698 7.20962 33.9304 7.38901L35.6879 12.5468L34.0356 14.8794C33.9056 15.0632 34.0366 15.3158 34.261 15.3158H35.8547C36.006 15.3158 36.1476 15.2421 36.2334 15.118L41.5406 7.45738C41.6676 7.2741 41.5372 7.02344 41.3136 7.02344Z" fill="#253B80"/>
<path d="M46.5964 3.9563H43.2801C43.0537 3.9563 42.8607 4.12115 42.8253 4.34515L41.4842 12.8479C41.4575 13.0157 41.5875 13.167 41.7567 13.167H43.4585C43.6166 13.167 43.7518 13.0516 43.7766 12.8945L44.1572 10.4843C44.1921 10.2598 44.3855 10.095 44.612 10.095H45.6612C47.8459 10.095 49.106 9.038 49.4357 6.94345C49.5846 6.02709 49.4415 5.30709 49.0124 4.80284C48.5416 4.24915 47.7063 3.9563 46.5964 3.9563ZM46.979 7.06175C46.7981 8.25157 45.889 8.25157 45.0095 8.25157H44.5097L44.8612 6.02951C44.882 5.89521 44.9974 5.7963 45.1336 5.7963H45.363C45.9613 5.7963 46.5266 5.7963 46.8185 6.13763C46.9926 6.34127 47.0454 6.64381 46.979 7.06175Z" fill="#179BD7"/>
<path d="M56.5077 7.02336H54.9208C54.7846 7.02336 54.6687 7.12227 54.6483 7.25657L54.578 7.70069L54.4665 7.53972C54.1228 7.04081 53.3567 6.87402 52.5916 6.87402C50.8369 6.87402 49.3388 8.20299 49.0469 10.0672C48.8956 10.9972 49.1104 11.8864 49.6379 12.5065C50.1228 13.0767 50.8142 13.3143 51.6379 13.3143C53.0517 13.3143 53.8357 12.4052 53.8357 12.4052L53.7649 12.8464C53.7383 13.0151 53.8682 13.1664 54.0384 13.1664H55.4682C55.6946 13.1664 55.8876 13.0015 55.923 12.7771L56.7817 7.34239C56.8078 7.17511 56.6779 7.02336 56.5077 7.02336ZM54.2944 10.1138C54.1422 11.0209 53.4212 11.6299 52.5029 11.6299C52.0428 11.6299 51.6733 11.482 51.4367 11.2018C51.202 10.9235 51.1138 10.5274 51.1875 10.0861C51.3315 9.18675 52.0626 8.5579 52.9669 8.5579C53.4178 8.5579 53.7843 8.70772 54.0258 8.99039C54.2687 9.27596 54.3647 9.67451 54.2944 10.1138Z" fill="#179BD7"/>
<path d="M58.3796 4.18951L57.0186 12.8479C56.992 13.0157 57.1219 13.167 57.2911 13.167H58.6593C58.8867 13.167 59.0797 13.0021 59.1146 12.7776L60.4567 4.27533C60.4833 4.10757 60.3534 3.95581 60.1842 3.95581H58.6521C58.5168 3.9563 58.4004 4.0552 58.3796 4.18951Z" fill="#179BD7"/>
<path d="M4.06268 14.8195L4.31626 13.2088L3.75141 13.1957H1.0542L2.92862 1.3106C2.93444 1.27472 2.95335 1.24127 2.98099 1.21751C3.00862 1.19375 3.04402 1.18066 3.08087 1.18066H7.62874C9.13856 1.18066 10.1805 1.49485 10.7245 2.11497C10.9795 2.40588 11.142 2.70988 11.2205 3.04442C11.3029 3.39545 11.3044 3.81485 11.2239 4.32636L11.2181 4.36369V4.69145L11.4731 4.83594C11.6879 4.94988 11.8586 5.0803 11.9895 5.22963C12.2077 5.47836 12.3487 5.79448 12.4084 6.16927C12.47 6.55472 12.4496 7.01339 12.3487 7.53266C12.2324 8.13 12.0443 8.65024 11.7902 9.07594C11.5565 9.46818 11.2588 9.79351 10.9053 10.0456C10.5679 10.2851 10.1669 10.467 9.71359 10.5833C9.27432 10.6978 8.77347 10.7555 8.22414 10.7555H7.8702C7.61711 10.7555 7.37129 10.8466 7.17832 11.01C6.98487 11.1768 6.85687 11.4047 6.81759 11.6539L6.79093 11.7988L6.34293 14.6376L6.32256 14.7419C6.31723 14.7748 6.30802 14.7913 6.29444 14.8025C6.28232 14.8127 6.26487 14.8195 6.2479 14.8195H4.06268Z" fill="#253B80"/>
<path d="M11.7147 4.40137C11.7011 4.48816 11.6856 4.57688 11.6681 4.66803C11.0684 7.74731 9.01649 8.81106 6.39588 8.81106H5.06158C4.74109 8.81106 4.47103 9.04379 4.42109 9.35991L3.73794 13.6925L3.54449 14.9206C3.512 15.1282 3.672 15.3153 3.88146 15.3153H6.248C6.52824 15.3153 6.7663 15.1117 6.81042 14.8353L6.8337 14.7151L7.27927 11.8874L7.30788 11.7323C7.35152 11.4549 7.59006 11.2513 7.8703 11.2513H8.22424C10.5171 11.2513 12.312 10.3204 12.8366 7.62658C13.0558 6.50125 12.9423 5.56161 12.3624 4.90076C12.1869 4.70149 11.9692 4.53616 11.7147 4.40137Z" fill="#179BD7"/>
<path d="M11.0871 4.15131C10.9954 4.12464 10.9009 4.1004 10.8039 4.07858C10.7065 4.05725 10.6066 4.03834 10.5038 4.02185C10.1441 3.96367 9.74987 3.93604 9.32757 3.93604H5.76296C5.6752 3.93604 5.59181 3.95591 5.51714 3.99179C5.35278 4.07082 5.2306 4.22646 5.20102 4.417L4.44272 9.21991L4.4209 9.36003C4.47084 9.04391 4.7409 8.81119 5.06138 8.81119H6.39569C9.01629 8.81119 11.0682 7.74694 11.6679 4.66816C11.6859 4.577 11.7009 4.48828 11.7145 4.40149C11.5627 4.321 11.3984 4.25216 11.2214 4.19349C11.1777 4.17894 11.1327 4.16488 11.0871 4.15131Z" fill="#222D65"/>
<path d="M5.20112 4.41693C5.2307 4.22639 5.35288 4.07075 5.51724 3.9922C5.59239 3.95632 5.6753 3.93645 5.76306 3.93645H9.32767C9.74997 3.93645 10.1442 3.96408 10.5039 4.02226C10.6067 4.03875 10.7066 4.05766 10.804 4.07899C10.901 4.10081 10.9955 4.12505 11.0872 4.15172C11.1328 4.16529 11.1778 4.17935 11.222 4.19342C11.3989 4.25208 11.5633 4.32142 11.7151 4.40142C11.8935 3.26348 11.7136 2.48869 11.0983 1.78711C10.42 1.01475 9.19579 0.684082 7.62924 0.684082H3.08137C2.76137 0.684082 2.4884 0.916809 2.43894 1.23342L0.544638 13.2407C0.507305 13.4783 0.690577 13.6926 0.930092 13.6926H3.73785L4.44282 9.21984L5.20112 4.41693Z" fill="#253B80"/>
</svg>
