<svg width="13" height="12" viewBox="0 0 13 12" fill="none" xmlns="http://www.w3.org/2000/svg">
<path d="M-6.90179e-07 5.97194C-6.77137e-07 5.67357 0.111059 5.38742 0.308748 5.17644C0.506435 4.96546 0.774556 4.84694 1.05413 4.84694L9.40283 4.84694L6.63399 1.89194C6.44779 1.67868 6.34642 1.39661 6.35123 1.10516C6.35605 0.813704 6.46668 0.535626 6.65982 0.329507C6.85295 0.123388 7.11351 0.00531838 7.3866 0.000176184C7.65969 -0.00496602 7.924 0.10322 8.12382 0.30194L12.6917 5.17694C12.8891 5.38788 13 5.67381 13 5.97194C13 6.27006 12.8891 6.556 12.6917 6.76694L8.12382 11.6419C8.02732 11.7525 7.91094 11.8411 7.78164 11.9026C7.65233 11.9641 7.51274 11.9972 7.37121 11.9998C7.22967 12.0025 7.08908 11.9747 6.95782 11.9181C6.82656 11.8615 6.70733 11.7773 6.60723 11.6705C6.50713 11.5637 6.42822 11.4364 6.3752 11.2963C6.32218 11.1563 6.29615 11.0062 6.29865 10.8552C6.30114 10.7041 6.33212 10.5551 6.38974 10.4171C6.44735 10.2791 6.53042 10.1549 6.63399 10.0519L9.40283 7.09694L1.05413 7.09694C0.472249 7.09694 -7.17324e-07 6.59294 -6.90179e-07 5.97194Z" fill="white"/>
<path d="M-6.90179e-07 5.97194C-6.77137e-07 5.67357 0.111059 5.38742 0.308748 5.17644C0.506435 4.96546 0.774556 4.84694 1.05413 4.84694L9.40283 4.84694L6.63399 1.89194C6.44779 1.67868 6.34642 1.39661 6.35123 1.10516C6.35605 0.813704 6.46668 0.535626 6.65982 0.329507C6.85295 0.123388 7.11351 0.00531838 7.3866 0.000176184C7.65969 -0.00496602 7.924 0.10322 8.12382 0.30194L12.6917 5.17694C12.8891 5.38788 13 5.67381 13 5.97194C13 6.27006 12.8891 6.556 12.6917 6.76694L8.12382 11.6419C8.02732 11.7525 7.91094 11.8411 7.78164 11.9026C7.65233 11.9641 7.51274 11.9972 7.37121 11.9998C7.22967 12.0025 7.08908 11.9747 6.95782 11.9181C6.82656 11.8615 6.70733 11.7773 6.60723 11.6705C6.50713 11.5637 6.42822 11.4364 6.3752 11.2963C6.32218 11.1563 6.29615 11.0062 6.29865 10.8552C6.30114 10.7041 6.33212 10.5551 6.38974 10.4171C6.44735 10.2791 6.53042 10.1549 6.63399 10.0519L9.40283 7.09694L1.05413 7.09694C0.472249 7.09694 -7.17324e-07 6.59294 -6.90179e-07 5.97194Z" fill="url(#paint0_linear_1_2330)"/>
<defs>
<linearGradient id="paint0_linear_1_2330" x1="13" y1="10.8056" x2="11.8679" y2="-1.66102" gradientUnits="userSpaceOnUse">
<stop stop-color="#8E59FF"/>
<stop offset="1" stop-color="#B659FF"/>
</linearGradient>
</defs>
</svg>
