<svg width="16" height="16" viewBox="0 0 16 16" fill="none" xmlns="http://www.w3.org/2000/svg">
<path d="M0.999999 7.97194C0.999999 7.67357 1.11106 7.38742 1.30875 7.17644C1.50643 6.96546 1.77456 6.84694 2.05413 6.84694L10.4028 6.84694L7.63399 3.89194C7.44779 3.67868 7.34642 3.39661 7.35123 3.10516C7.35605 2.8137 7.46668 2.53563 7.65982 2.32951C7.85295 2.12339 8.11351 2.00532 8.3866 2.00018C8.65969 1.99503 8.924 2.10322 9.12382 2.30194L13.6917 7.17694C13.8891 7.38788 14 7.67381 14 7.97194C14 8.27006 13.8891 8.556 13.6917 8.76694L9.12382 13.6419C9.02732 13.7525 8.91094 13.8411 8.78164 13.9026C8.65233 13.9641 8.51274 13.9972 8.37121 13.9998C8.22967 14.0025 8.08908 13.9747 7.95782 13.9181C7.82656 13.8615 7.70733 13.7773 7.60723 13.6705C7.50713 13.5637 7.42822 13.4364 7.3752 13.2963C7.32218 13.1563 7.29615 13.0062 7.29865 12.8552C7.30114 12.7041 7.33212 12.5551 7.38974 12.4171C7.44735 12.2791 7.53042 12.1549 7.63399 12.0519L10.4028 9.09694L2.05413 9.09694C1.47225 9.09694 0.999999 8.59294 0.999999 7.97194Z" fill="white"/>
<path d="M0.999999 7.97194C0.999999 7.67357 1.11106 7.38742 1.30875 7.17644C1.50643 6.96546 1.77456 6.84694 2.05413 6.84694L10.4028 6.84694L7.63399 3.89194C7.44779 3.67868 7.34642 3.39661 7.35123 3.10516C7.35605 2.8137 7.46668 2.53563 7.65982 2.32951C7.85295 2.12339 8.11351 2.00532 8.3866 2.00018C8.65969 1.99503 8.924 2.10322 9.12382 2.30194L13.6917 7.17694C13.8891 7.38788 14 7.67381 14 7.97194C14 8.27006 13.8891 8.556 13.6917 8.76694L9.12382 13.6419C9.02732 13.7525 8.91094 13.8411 8.78164 13.9026C8.65233 13.9641 8.51274 13.9972 8.37121 13.9998C8.22967 14.0025 8.08908 13.9747 7.95782 13.9181C7.82656 13.8615 7.70733 13.7773 7.60723 13.6705C7.50713 13.5637 7.42822 13.4364 7.3752 13.2963C7.32218 13.1563 7.29615 13.0062 7.29865 12.8552C7.30114 12.7041 7.33212 12.5551 7.38974 12.4171C7.44735 12.2791 7.53042 12.1549 7.63399 12.0519L10.4028 9.09694L2.05413 9.09694C1.47225 9.09694 0.999999 8.59294 0.999999 7.97194Z" fill="url(#paint0_linear_898_11309)"/>
<path d="M0.999999 7.97194C0.999999 7.67357 1.11106 7.38742 1.30875 7.17644C1.50643 6.96546 1.77456 6.84694 2.05413 6.84694L10.4028 6.84694L7.63399 3.89194C7.44779 3.67868 7.34642 3.39661 7.35123 3.10516C7.35605 2.8137 7.46668 2.53563 7.65982 2.32951C7.85295 2.12339 8.11351 2.00532 8.3866 2.00018C8.65969 1.99503 8.924 2.10322 9.12382 2.30194L13.6917 7.17694C13.8891 7.38788 14 7.67381 14 7.97194C14 8.27006 13.8891 8.556 13.6917 8.76694L9.12382 13.6419C9.02732 13.7525 8.91094 13.8411 8.78164 13.9026C8.65233 13.9641 8.51274 13.9972 8.37121 13.9998C8.22967 14.0025 8.08908 13.9747 7.95782 13.9181C7.82656 13.8615 7.70733 13.7773 7.60723 13.6705C7.50713 13.5637 7.42822 13.4364 7.3752 13.2963C7.32218 13.1563 7.29615 13.0062 7.29865 12.8552C7.30114 12.7041 7.33212 12.5551 7.38974 12.4171C7.44735 12.2791 7.53042 12.1549 7.63399 12.0519L10.4028 9.09694L2.05413 9.09694C1.47225 9.09694 0.999999 8.59294 0.999999 7.97194Z" fill="url(#paint1_linear_898_11309)"/>
<defs>
<linearGradient id="paint0_linear_898_11309" x1="14" y1="12.8056" x2="12.8679" y2="0.338977" gradientUnits="userSpaceOnUse">
<stop stop-color="#8E59FF"/>
<stop offset="1" stop-color="#B659FF"/>
</linearGradient>
<linearGradient id="paint1_linear_898_11309" x1="14" y1="8" x2="0.999999" y2="8" gradientUnits="userSpaceOnUse">
<stop stop-color="#049AEF"/>
<stop offset="1" stop-color="#0862DC"/>
</linearGradient>
</defs>
</svg>
