<svg width="20" height="19" viewBox="0 0 20 19" fill="none" xmlns="http://www.w3.org/2000/svg">
<path d="M19.1303 7.46304C19.0482 7.20438 18.8898 6.97658 18.6759 6.80951C18.4621 6.64243 18.2027 6.54388 17.9319 6.52678L13.0551 6.18894L11.25 1.63186C11.1515 1.38094 10.9799 1.16538 10.7574 1.01309C10.5349 0.860805 10.2719 0.7788 10.0023 0.777696C9.73273 0.778665 9.46964 0.860538 9.24711 1.01271C9.02458 1.16489 8.85285 1.38036 8.75416 1.63124L6.91394 6.21203L2.06988 6.5228C1.79936 6.54088 1.54048 6.63971 1.32674 6.80652C1.113 6.97333 0.954228 7.20043 0.870968 7.45846C0.785468 7.72044 0.780406 8.00203 0.856434 8.26692C0.932462 8.5318 1.08609 8.76784 1.29752 8.9446L5.02414 12.0982L3.91467 16.4575C3.83792 16.7524 3.85164 17.0636 3.95406 17.3506C4.05648 17.6376 4.24286 17.8872 4.48898 18.0669C4.72788 18.2384 5.01253 18.3348 5.30651 18.3436C5.60049 18.3525 5.89042 18.2734 6.13921 18.1165L9.99037 15.6791L10.0068 15.6791L14.1523 18.2992C14.3649 18.4374 14.6128 18.5116 14.8665 18.5128C15.0736 18.5112 15.2776 18.4622 15.4628 18.3695C15.6479 18.2767 15.8094 18.1428 15.9347 17.9779C16.06 17.813 16.1459 17.6216 16.1856 17.4183C16.2254 17.2151 16.218 17.0054 16.1641 16.8054L14.9913 12.035L18.703 8.94896C18.9145 8.77231 19.0683 8.53635 19.1444 8.2715C19.2206 8.00665 19.2157 7.72506 19.1303 7.46304Z" fill="url(#paint0_linear_5145_25620)"/>
<defs>
<linearGradient id="paint0_linear_5145_25620" x1="10.0023" y1="0.777696" x2="9.99787" y2="18.5116" gradientUnits="userSpaceOnUse">
<stop stop-color="#049AEF"/>
<stop offset="1" stop-color="#0862DC"/>
</linearGradient>
</defs>
</svg>
