<svg width="12" height="12" viewBox="0 0 12 12" fill="none" xmlns="http://www.w3.org/2000/svg">
<path d="M6 1C8.7615 1 11 3.2385 11 6C11 8.7615 8.7615 11 6 11C5.19112 11.0011 4.39415 10.8051 3.678 10.429L1.533 10.9875C1.46133 11.0062 1.38603 11.0058 1.31455 10.9864C1.24307 10.967 1.17791 10.9292 1.12551 10.8769C1.07312 10.8245 1.03531 10.7594 1.01584 10.688C0.996366 10.6165 0.995907 10.5412 1.0145 10.4695L1.5725 8.325C1.19542 7.60809 0.99891 6.81003 1 6C1 3.2385 3.2385 1 6 1ZM6.626 6.5H4.375L4.324 6.5035C4.23425 6.51585 4.152 6.56028 4.09246 6.62857C4.03292 6.69686 4.00012 6.7844 4.00012 6.875C4.00012 6.9656 4.03292 7.05314 4.09246 7.12143C4.152 7.18972 4.23425 7.23415 4.324 7.2465L4.375 7.25H6.626L6.6765 7.2465C6.76626 7.23415 6.84851 7.18972 6.90805 7.12143C6.96759 7.05314 7.00039 6.9656 7.00039 6.875C7.00039 6.7844 6.96759 6.69686 6.90805 6.62857C6.84851 6.56028 6.76626 6.51585 6.6765 6.5035L6.626 6.5ZM7.625 4.75H4.375L4.324 4.7535C4.23425 4.76585 4.152 4.81028 4.09246 4.87857C4.03292 4.94686 4.00012 5.0344 4.00012 5.125C4.00012 5.2156 4.03292 5.30314 4.09246 5.37143C4.152 5.43972 4.23425 5.48415 4.324 5.4965L4.375 5.5H7.625L7.676 5.4965C7.76576 5.48415 7.84801 5.43972 7.90755 5.37143C7.96709 5.30314 7.99989 5.2156 7.99989 5.125C7.99989 5.0344 7.96709 4.94686 7.90755 4.87857C7.84801 4.81028 7.76576 4.76585 7.676 4.7535L7.625 4.75Z" fill="white"/>
</svg>
