<svg width="18" height="18" viewBox="0 0 18 18" fill="none" xmlns="http://www.w3.org/2000/svg">
<path fill-rule="evenodd" clip-rule="evenodd" d="M9.53025 1.71959C9.3896 1.57899 9.19887 1.5 9 1.5C8.80113 1.5 8.6104 1.57899 8.46975 1.71959C7.86225 2.32709 6.99 2.68709 6.0825 2.87459C5.181 3.06059 4.32225 3.05909 3.8325 3.00434C3.72768 2.99274 3.6216 3.00337 3.52117 3.03555C3.42074 3.06772 3.32823 3.12072 3.24967 3.19107C3.17111 3.26142 3.10827 3.34755 3.06525 3.44383C3.02223 3.54011 2.99999 3.64438 3 3.74984V10.4998C3 11.4748 3.426 12.3366 3.978 13.0461C4.5315 13.7571 5.25075 14.3683 5.93925 14.8603C6.80189 15.4703 7.72111 15.9959 8.68425 16.4301L8.69775 16.4361L8.70225 16.4383H8.7045C8.79782 16.4785 8.89833 16.4993 8.99992 16.4994C9.10151 16.4995 9.20207 16.479 9.2955 16.4391L9 15.7498C9.2955 16.4398 9.29625 16.4391 9.29625 16.4391L9.29775 16.4383L9.3015 16.4361L9.3165 16.4301L9.36525 16.4083C9.63624 16.2849 9.90384 16.1541 10.1678 16.0161C10.824 15.6737 11.4564 15.2876 12.0607 14.8603C12.7492 14.3683 13.4685 13.7578 14.022 13.0461C14.574 12.3373 15 11.4748 15 10.4998V3.74984C15 3.64438 14.9778 3.54011 14.9348 3.44383C14.8917 3.34755 14.8289 3.26142 14.7503 3.19107C14.6718 3.12072 14.5793 3.06772 14.4788 3.03555C14.3784 3.00337 14.2723 2.99274 14.1675 3.00434C13.6777 3.05909 12.819 3.06059 11.9175 2.87459C11.01 2.68709 10.1377 2.32709 9.53025 1.71959Z" fill="#0CFF71"/>
</svg>
