<svg width="14" height="14" viewBox="0 0 14 14" fill="none" xmlns="http://www.w3.org/2000/svg">
<path d="M5.14027 6.77399C5.40685 6.55233 5.67577 6.55233 5.94877 6.78041L6.01177 6.83758L8.92027 9.74608L8.9751 9.79449C9.08734 9.88149 9.22747 9.92456 9.3692 9.91562C9.51093 9.90668 9.64453 9.84634 9.74495 9.74592C9.84536 9.6455 9.9057 9.5119 9.91464 9.37017C9.92358 9.22844 9.88052 9.08832 9.79352 8.97608L9.7451 8.92124L8.99143 8.16699L9.16177 7.99608L9.2236 7.94066C9.49018 7.71899 9.7591 7.71899 10.0321 7.94708L10.0951 8.00424L12.8216 10.7313C12.7664 11.2868 12.5138 11.8041 12.1098 12.1893C11.7058 12.5745 11.177 12.8021 10.6195 12.8307L10.4993 12.8337H3.49935C2.92063 12.8336 2.36257 12.6185 1.93354 12.2301C1.50451 11.8417 1.23512 11.3078 1.17768 10.7319L5.07843 6.82941L5.14027 6.77399ZM10.4993 1.16699C11.098 1.16699 11.6737 1.39708 12.1075 1.80966C12.5412 2.22225 12.7998 2.78577 12.8298 3.38366L12.8327 3.50033V9.09158L10.9118 7.17124L10.8243 7.09133C10.0916 6.45258 9.16177 6.45141 8.43493 7.08141L8.3451 7.16308L8.16602 7.34158L6.82843 6.00458L6.74093 5.92466C6.00827 5.28591 5.07843 5.28474 4.3516 5.91474L4.26177 5.99641L1.16602 9.09158V3.50033C1.16602 2.90168 1.3961 2.32594 1.80869 1.89219C2.22127 1.45843 2.78479 1.19984 3.38268 1.16991L3.49935 1.16699H10.4993ZM8.75518 4.08366L8.6811 4.08774C8.53932 4.10461 8.40865 4.17288 8.31384 4.27964C8.21903 4.38639 8.16667 4.52421 8.16667 4.66699C8.16667 4.80977 8.21903 4.94759 8.31384 5.05435C8.40865 5.1611 8.53932 5.22938 8.6811 5.24624L8.74935 5.25033L8.82343 5.24624C8.96521 5.22938 9.09588 5.1611 9.19069 5.05435C9.2855 4.94759 9.33787 4.80977 9.33787 4.66699C9.33787 4.52421 9.2855 4.38639 9.19069 4.27964C9.09588 4.17288 8.96521 4.10461 8.82343 4.08774L8.75518 4.08366Z" fill="white"/>
<path d="M5.14027 6.77399C5.40685 6.55233 5.67577 6.55233 5.94877 6.78041L6.01177 6.83758L8.92027 9.74608L8.9751 9.79449C9.08734 9.88149 9.22747 9.92456 9.3692 9.91562C9.51093 9.90668 9.64453 9.84634 9.74495 9.74592C9.84536 9.6455 9.9057 9.5119 9.91464 9.37017C9.92358 9.22844 9.88052 9.08832 9.79352 8.97608L9.7451 8.92124L8.99143 8.16699L9.16177 7.99608L9.2236 7.94066C9.49018 7.71899 9.7591 7.71899 10.0321 7.94708L10.0951 8.00424L12.8216 10.7313C12.7664 11.2868 12.5138 11.8041 12.1098 12.1893C11.7058 12.5745 11.177 12.8021 10.6195 12.8307L10.4993 12.8337H3.49935C2.92063 12.8336 2.36257 12.6185 1.93354 12.2301C1.50451 11.8417 1.23512 11.3078 1.17768 10.7319L5.07843 6.82941L5.14027 6.77399ZM10.4993 1.16699C11.098 1.16699 11.6737 1.39708 12.1075 1.80966C12.5412 2.22225 12.7998 2.78577 12.8298 3.38366L12.8327 3.50033V9.09158L10.9118 7.17124L10.8243 7.09133C10.0916 6.45258 9.16177 6.45141 8.43493 7.08141L8.3451 7.16308L8.16602 7.34158L6.82843 6.00458L6.74093 5.92466C6.00827 5.28591 5.07843 5.28474 4.3516 5.91474L4.26177 5.99641L1.16602 9.09158V3.50033C1.16602 2.90168 1.3961 2.32594 1.80869 1.89219C2.22127 1.45843 2.78479 1.19984 3.38268 1.16991L3.49935 1.16699H10.4993ZM8.75518 4.08366L8.6811 4.08774C8.53932 4.10461 8.40865 4.17288 8.31384 4.27964C8.21903 4.38639 8.16667 4.52421 8.16667 4.66699C8.16667 4.80977 8.21903 4.94759 8.31384 5.05435C8.40865 5.1611 8.53932 5.22938 8.6811 5.24624L8.74935 5.25033L8.82343 5.24624C8.96521 5.22938 9.09588 5.1611 9.19069 5.05435C9.2855 4.94759 9.33787 4.80977 9.33787 4.66699C9.33787 4.52421 9.2855 4.38639 9.19069 4.27964C9.09588 4.17288 8.96521 4.10461 8.82343 4.08774L8.75518 4.08366Z" fill="#9DB2CE"/>
<path d="M5.14027 6.77399C5.40685 6.55233 5.67577 6.55233 5.94877 6.78041L6.01177 6.83758L8.92027 9.74608L8.9751 9.79449C9.08734 9.88149 9.22747 9.92456 9.3692 9.91562C9.51093 9.90668 9.64453 9.84634 9.74495 9.74592C9.84536 9.6455 9.9057 9.5119 9.91464 9.37017C9.92358 9.22844 9.88052 9.08832 9.79352 8.97608L9.7451 8.92124L8.99143 8.16699L9.16177 7.99608L9.2236 7.94066C9.49018 7.71899 9.7591 7.71899 10.0321 7.94708L10.0951 8.00424L12.8216 10.7313C12.7664 11.2868 12.5138 11.8041 12.1098 12.1893C11.7058 12.5745 11.177 12.8021 10.6195 12.8307L10.4993 12.8337H3.49935C2.92063 12.8336 2.36257 12.6185 1.93354 12.2301C1.50451 11.8417 1.23512 11.3078 1.17768 10.7319L5.07843 6.82941L5.14027 6.77399ZM10.4993 1.16699C11.098 1.16699 11.6737 1.39708 12.1075 1.80966C12.5412 2.22225 12.7998 2.78577 12.8298 3.38366L12.8327 3.50033V9.09158L10.9118 7.17124L10.8243 7.09133C10.0916 6.45258 9.16177 6.45141 8.43493 7.08141L8.3451 7.16308L8.16602 7.34158L6.82843 6.00458L6.74093 5.92466C6.00827 5.28591 5.07843 5.28474 4.3516 5.91474L4.26177 5.99641L1.16602 9.09158V3.50033C1.16602 2.90168 1.3961 2.32594 1.80869 1.89219C2.22127 1.45843 2.78479 1.19984 3.38268 1.16991L3.49935 1.16699H10.4993ZM8.75518 4.08366L8.6811 4.08774C8.53932 4.10461 8.40865 4.17288 8.31384 4.27964C8.21903 4.38639 8.16667 4.52421 8.16667 4.66699C8.16667 4.80977 8.21903 4.94759 8.31384 5.05435C8.40865 5.1611 8.53932 5.22938 8.6811 5.24624L8.74935 5.25033L8.82343 5.24624C8.96521 5.22938 9.09588 5.1611 9.19069 5.05435C9.2855 4.94759 9.33787 4.80977 9.33787 4.66699C9.33787 4.52421 9.2855 4.38639 9.19069 4.27964C9.09588 4.17288 8.96521 4.10461 8.82343 4.08774L8.75518 4.08366Z" fill="url(#paint0_linear_49_5637)"/>
<defs>
<linearGradient id="paint0_linear_49_5637" x1="6.99935" y1="1.16699" x2="6.99935" y2="12.8337" gradientUnits="userSpaceOnUse">
<stop stop-color="#049AEF"/>
<stop offset="1" stop-color="#0862DC"/>
</linearGradient>
</defs>
</svg>
