<svg width="24" height="24" viewBox="0 0 24 24" fill="none" xmlns="http://www.w3.org/2000/svg">
<path d="M12.9998 15.0002C12.9998 15.2835 12.9038 15.5209 12.7118 15.7122C12.5198 15.9035 12.2825 15.9995 11.9998 16.0002L5.82482 16.0002L7.69982 17.8752C7.88315 18.0585 7.97482 18.2875 7.97482 18.5622C7.97482 18.8369 7.88315 19.0745 7.69982 19.2752C7.49982 19.4752 7.26249 19.5752 6.98782 19.5752C6.71315 19.5752 6.47549 19.4752 6.27482 19.2752L2.69982 15.7002C2.59982 15.6002 2.52882 15.4919 2.48682 15.3752C2.44482 15.2585 2.42415 15.1335 2.42482 15.0002C2.42549 14.8669 2.44615 14.7419 2.48682 14.6252C2.52749 14.5085 2.59849 14.4002 2.69982 14.3002L6.29982 10.7002C6.49982 10.5002 6.73315 10.4045 6.99982 10.4132C7.26649 10.4219 7.49982 10.5259 7.69982 10.7252C7.88315 10.9252 7.97915 11.1585 7.98782 11.4252C7.99649 11.6919 7.90049 11.9252 7.69982 12.1252L5.82482 14.0002L11.9998 14.0002C12.2832 14.0002 12.5208 14.0962 12.7128 14.2882C12.9048 14.4802 13.0005 14.7175 12.9998 15.0002ZM21.5748 9.00019C21.5748 9.13353 21.5542 9.25853 21.5128 9.37519C21.4715 9.49186 21.4005 9.60019 21.2998 9.70019L17.6998 13.3002C17.4998 13.5002 17.2665 13.5959 16.9998 13.5872C16.7332 13.5785 16.4998 13.4745 16.2998 13.2752C16.1165 13.0752 16.0205 12.8419 16.0118 12.5752C16.0032 12.3085 16.0992 12.0752 16.2998 11.8752L18.1748 10.0002L11.9998 10.0002C11.7165 10.0002 11.4792 9.9042 11.2878 9.7122C11.0965 9.52019 11.0005 9.28286 10.9998 9.0002C10.9992 8.71753 11.0952 8.47986 11.2878 8.28719C11.4805 8.09453 11.7178 7.99886 11.9998 8.0002L18.1748 8.00019L16.2998 6.12519C16.1165 5.94186 16.0248 5.71253 16.0248 5.4372C16.0248 5.16186 16.1165 4.92453 16.2998 4.7252C16.4998 4.5252 16.7375 4.42519 17.0128 4.42519C17.2882 4.42519 17.5255 4.5252 17.7248 4.7252L21.2998 8.30019C21.3998 8.4002 21.4708 8.50853 21.5128 8.62519C21.5548 8.74186 21.5755 8.86686 21.5748 9.00019Z" fill="#0394EC"/>
</svg>
