<svg width="18" height="18" viewBox="0 0 18 18" fill="none" xmlns="http://www.w3.org/2000/svg">
<path fill-rule="evenodd" clip-rule="evenodd" d="M5.25 4.5C5.25 4.10218 5.40804 3.72064 5.68934 3.43934C5.97064 3.15804 6.35218 3 6.75 3H15C15.3978 3 15.7794 3.15804 16.0607 3.43934C16.342 3.72064 16.5 4.10218 16.5 4.5V9.75C16.5 10.1478 16.342 10.5294 16.0607 10.8107C15.7794 11.092 15.3978 11.25 15 11.25H13.5V8.25C13.5 7.65326 13.2629 7.08097 12.841 6.65901C12.419 6.23705 11.8467 6 11.25 6H5.25V4.5Z" fill="#0CFF71"/>
<path fill-rule="evenodd" clip-rule="evenodd" d="M1.5 8.25C1.5 7.85218 1.65804 7.47064 1.93934 7.18934C2.22064 6.90804 2.60218 6.75 3 6.75H11.25C11.6478 6.75 12.0294 6.90804 12.3107 7.18934C12.592 7.47064 12.75 7.85218 12.75 8.25V13.5C12.75 13.8978 12.592 14.2794 12.3107 14.5607C12.0294 14.842 11.6478 15 11.25 15H3C2.60218 15 2.22064 14.842 1.93934 14.5607C1.65804 14.2794 1.5 13.8978 1.5 13.5V8.25ZM7.125 9C6.62772 9 6.15081 9.19754 5.79917 9.54917C5.44754 9.90081 5.25 10.3777 5.25 10.875C5.25 11.3723 5.44754 11.8492 5.79917 12.2008C6.15081 12.5525 6.62772 12.75 7.125 12.75C7.62228 12.75 8.09919 12.5525 8.45083 12.2008C8.80246 11.8492 9 11.3723 9 10.875C9 10.3777 8.80246 9.90081 8.45083 9.54917C8.09919 9.19754 7.62228 9 7.125 9Z" fill="#0CFF71"/>
<path d="M7.875 10.875C7.875 11.0739 7.79598 11.2647 7.65533 11.4053C7.51468 11.546 7.32391 11.625 7.125 11.625C6.92609 11.625 6.73532 11.546 6.59467 11.4053C6.45402 11.2647 6.375 11.0739 6.375 10.875C6.375 10.6761 6.45402 10.4853 6.59467 10.3447C6.73532 10.204 6.92609 10.125 7.125 10.125C7.32391 10.125 7.51468 10.204 7.65533 10.3447C7.79598 10.4853 7.875 10.6761 7.875 10.875Z" fill="#0CFF71"/>
</svg>
