<svg width="16" height="16" viewBox="0 0 16 16" fill="none" xmlns="http://www.w3.org/2000/svg">
<path d="M2.66683 13.9997H3.3335V5.33301H2.66683C2.31321 5.33301 1.97407 5.47348 1.72402 5.72353C1.47397 5.97358 1.3335 6.31272 1.3335 6.66634V12.6663C1.3335 13.02 1.47397 13.3591 1.72402 13.6091C1.97407 13.8592 2.31321 13.9997 2.66683 13.9997ZM13.3335 5.33301H8.66683L9.41483 3.08767C9.48157 2.88728 9.49975 2.6739 9.46788 2.46511C9.436 2.25632 9.35498 2.05808 9.23148 1.88674C9.10798 1.71539 8.94555 1.57584 8.75755 1.47956C8.56955 1.38329 8.36138 1.33306 8.15016 1.33301H8.00016L4.66683 4.95834V13.9997H12.0002L14.6082 8.26901L14.6668 7.99967V6.66634C14.6668 6.31272 14.5264 5.97358 14.2763 5.72353C14.0263 5.47348 13.6871 5.33301 13.3335 5.33301Z" fill="#5E649D"/>
</svg>
