<svg xmlns="http://www.w3.org/2000/svg" width="20" height="20" fill="none"><g clip-path="url(#a)"><path fill="#9DB2CE" fill-rule="evenodd" d="M14.59 3.626A7.856 7.856 0 0 0 2.28 11.443a1.072 1.072 0 0 1-2.106.396A9.999 9.999 0 0 1 16.12 2.094l.874-.874a.714.714 0 0 1 1.22.504V5a.714.714 0 0 1-.714.714h-3.275a.714.714 0 0 1-.505-1.218l.87-.87Zm3.987 3.681a1.072 1.072 0 0 1 1.252.854A10 10 0 0 1 3.88 17.906l-.874.876a.714.714 0 0 1-1.22-.506V15a.714.714 0 0 1 .714-.714h3.276a.714.714 0 0 1 .506 1.22l-.872.87a7.856 7.856 0 0 0 12.312-7.817 1.072 1.072 0 0 1 .857-1.252h-.002Zm-7.681-2.083a1.072 1.072 0 0 0-2.143 0v.49a2.434 2.434 0 0 0-.121 4.78l1.8.393a.457.457 0 0 1-.098.9h-1.02a.457.457 0 0 1-.428-.303 1.073 1.073 0 0 0-2.022.715 2.6 2.6 0 0 0 1.888 1.671v.517a1.071 1.071 0 0 0 2.143 0v-.517a2.6 2.6 0 0 0-.008-5.076l-1.8-.394a.291.291 0 0 1 .063-.576h1.183a.457.457 0 0 1 .429.303 1.072 1.072 0 0 0 2.021-.714 2.6 2.6 0 0 0-1.888-1.672v-.517Z" clip-rule="evenodd"/></g><defs><clipPath id="a"><path fill="#fff" d="M0 0h20v20H0z"/></clipPath></defs></svg>