<svg width="20" height="20" viewBox="0 0 20 20" fill="none" xmlns="http://www.w3.org/2000/svg">
<path d="M18.3332 10.7167C18.3332 12.625 17.3499 14.3167 15.8332 15.3833L14.7166 17.8417C14.4582 18.4 13.7082 18.5083 13.3166 18.0333L12.0832 16.55C10.5332 16.55 9.10824 16.025 8.0249 15.15L8.5249 14.5583C12.3749 14.2667 15.4166 11.2167 15.4166 7.5C15.4166 6.86666 15.3249 6.24166 15.1582 5.64166C17.0499 6.64166 18.3332 8.54166 18.3332 10.7167Z" fill="#9DB2CE"/>
<path d="M18.3332 10.7167C18.3332 12.625 17.3499 14.3167 15.8332 15.3833L14.7166 17.8417C14.4582 18.4 13.7082 18.5083 13.3166 18.0333L12.0832 16.55C10.5332 16.55 9.10824 16.025 8.0249 15.15L8.5249 14.5583C12.3749 14.2667 15.4166 11.2167 15.4166 7.5C15.4166 6.86666 15.3249 6.24166 15.1582 5.64166C17.0499 6.64166 18.3332 8.54166 18.3332 10.7167Z" fill="url(#paint0_linear_137_15234)"/>
<path d="M13.5832 5.05835C12.6082 3.05835 10.4332 1.66669 7.9165 1.66669C4.4665 1.66669 1.6665 4.27502 1.6665 7.50002C1.6665 9.40835 2.64984 11.1 4.1665 12.1667L5.28317 14.625C5.5415 15.1834 6.2915 15.2834 6.68317 14.8167L7.1415 14.2667L7.9165 13.3334C11.3665 13.3334 14.1665 10.725 14.1665 7.50002C14.1665 6.62502 13.9582 5.80002 13.5832 5.05835ZM9.99984 8.12502H5.83317C5.4915 8.12502 5.20817 7.84169 5.20817 7.50002C5.20817 7.15835 5.4915 6.87502 5.83317 6.87502H9.99984C10.3415 6.87502 10.6248 7.15835 10.6248 7.50002C10.6248 7.84169 10.3415 8.12502 9.99984 8.12502Z" fill="#9DB2CE"/>
<path d="M13.5832 5.05835C12.6082 3.05835 10.4332 1.66669 7.9165 1.66669C4.4665 1.66669 1.6665 4.27502 1.6665 7.50002C1.6665 9.40835 2.64984 11.1 4.1665 12.1667L5.28317 14.625C5.5415 15.1834 6.2915 15.2834 6.68317 14.8167L7.1415 14.2667L7.9165 13.3334C11.3665 13.3334 14.1665 10.725 14.1665 7.50002C14.1665 6.62502 13.9582 5.80002 13.5832 5.05835ZM9.99984 8.12502H5.83317C5.4915 8.12502 5.20817 7.84169 5.20817 7.50002C5.20817 7.15835 5.4915 6.87502 5.83317 6.87502H9.99984C10.3415 6.87502 10.6248 7.15835 10.6248 7.50002C10.6248 7.84169 10.3415 8.12502 9.99984 8.12502Z" fill="url(#paint1_linear_137_15234)"/>
<defs>
<linearGradient id="paint0_linear_137_15234" x1="13.1791" y1="5.64166" x2="13.1791" y2="18.3331" gradientUnits="userSpaceOnUse">
<stop stop-color="#049AEF"/>
<stop offset="1" stop-color="#0862DC"/>
</linearGradient>
<linearGradient id="paint1_linear_137_15234" x1="7.9165" y1="1.66669" x2="7.9165" y2="15.113" gradientUnits="userSpaceOnUse">
<stop stop-color="#049AEF"/>
<stop offset="1" stop-color="#0862DC"/>
</linearGradient>
</defs>
</svg>
