<svg width="24" height="24" viewBox="0 0 24 24" fill="none" xmlns="http://www.w3.org/2000/svg">
<path fill-rule="evenodd" clip-rule="evenodd" d="M20.512 7.79092C21.0938 8.12676 21.5252 8.67221 21.7181 9.31568C21.9109 9.95915 21.8506 10.652 21.5494 11.2524L21.476 11.3884L16.2089 20.5113C15.873 21.0931 15.3276 21.5245 14.6841 21.7174C14.0406 21.9102 13.3478 21.8499 12.7474 21.5487L12.6114 21.4753L3.48846 16.2082C2.90669 15.8723 2.47525 15.3269 2.28241 14.6834C2.08956 14.0399 2.14989 13.3471 2.45106 12.7467L2.52451 12.6107L7.79162 3.48776C8.12746 2.90599 8.67291 2.47455 9.31638 2.28171C9.95984 2.08886 10.6527 2.1492 11.2531 2.45036L11.3891 2.52381L20.512 7.79092ZM8.46154 11.9838C8.17806 11.8201 7.84377 11.7679 7.52389 11.8374C7.204 11.9068 6.92144 12.0929 6.73132 12.3594L6.66279 12.4658L6.60052 12.5859C6.46501 12.8838 6.44527 13.2214 6.54513 13.533C6.64499 13.8447 6.85731 14.1079 7.1407 14.2716C7.4241 14.4352 7.75826 14.4874 8.07806 14.4181C8.39787 14.3488 8.6804 14.1628 8.8706 13.8965L8.93913 13.7901L9.0014 13.67C9.1371 13.3721 9.15698 13.0344 9.05717 12.7226C8.95736 12.4109 8.74502 12.1475 8.46154 11.9838ZM13.7832 15.0563C13.4998 14.8926 13.1655 14.8404 12.8456 14.9099C12.5257 14.9793 12.2431 15.1654 12.053 15.4318L11.9801 15.5458C11.8112 15.8388 11.7614 16.1855 11.8411 16.5141C11.9209 16.8428 12.124 17.1281 12.4084 17.3111C12.6928 17.494 13.0366 17.5606 13.3687 17.4969C13.7009 17.4332 13.9957 17.2442 14.1923 16.969L14.2652 16.855C14.4398 16.5526 14.4871 16.1932 14.3968 15.8558C14.3064 15.5185 14.0857 15.2309 13.7832 15.0563ZM12.6586 10.8592C12.3751 10.6955 12.0409 10.6433 11.721 10.7128C11.4011 10.7822 11.1185 10.9683 10.9284 11.2348L10.8555 11.3488C10.6866 11.6417 10.6368 11.9884 10.7165 12.317C10.7963 12.6457 10.9994 12.931 11.2838 13.114C11.5681 13.2969 11.912 13.3635 12.2441 13.2998C12.5763 13.2361 12.8711 13.0471 13.0677 12.7719L13.1406 12.6579C13.3152 12.3555 13.3625 11.9961 13.2722 11.6587C13.1818 11.3214 12.9611 11.0338 12.6586 10.8592ZM11.534 6.66209C11.2505 6.49844 10.9163 6.44624 10.5964 6.51568C10.2765 6.58511 9.99393 6.77121 9.8038 7.03767L9.73527 7.14407L9.673 7.26422C9.53749 7.56208 9.51775 7.89972 9.61761 8.21134C9.71748 8.52296 9.92979 8.78624 10.2132 8.94986C10.4966 9.11347 10.8307 9.16571 11.1505 9.09638C11.4704 9.02705 11.7529 8.84113 11.9431 8.57485L12.0116 8.46845L12.0739 8.3483C12.2096 8.05041 12.2295 7.71267 12.1297 7.40092C12.0298 7.08917 11.8175 6.82578 11.534 6.66209ZM16.8557 9.73458C16.5722 9.57092 16.238 9.51872 15.9181 9.58816C15.5982 9.6576 15.3156 9.84369 15.1255 10.1101L15.0526 10.2242C14.8836 10.5171 14.8339 10.8638 14.9136 11.1924C14.9933 11.5211 15.1964 11.8064 15.4808 11.9894C15.7652 12.1723 16.1091 12.2389 16.4412 12.1752C16.7733 12.1115 17.0682 11.9225 17.2648 11.6473L17.3377 11.5333C17.5123 11.2309 17.5596 10.8715 17.4692 10.5341C17.3789 10.1968 17.1582 9.90919 16.8557 9.73458Z" fill="#0394EC"/>
</svg>
