<svg width="14" height="14" viewBox="0 0 14 14" fill="none" xmlns="http://www.w3.org/2000/svg">
<path d="M5.14027 6.77497C5.40685 6.5533 5.67577 6.5533 5.94877 6.78139L6.01177 6.83855L8.92027 9.74705L8.9751 9.79547C9.08734 9.88247 9.22747 9.92554 9.3692 9.9166C9.51093 9.90765 9.64453 9.84732 9.74495 9.7469C9.84536 9.64648 9.9057 9.51288 9.91464 9.37115C9.92358 9.22942 9.88052 9.08929 9.79352 8.97705L9.7451 8.92222L8.99143 8.16797L9.16177 7.99705L9.2236 7.94164C9.49018 7.71997 9.7591 7.71997 10.0321 7.94805L10.0951 8.00522L12.8216 10.7323C12.7664 11.2878 12.5138 11.8051 12.1098 12.1903C11.7058 12.5755 11.177 12.8031 10.6195 12.8317L10.4993 12.8346H3.49935C2.92063 12.8346 2.36257 12.6195 1.93354 12.2311C1.50451 11.8427 1.23512 11.3087 1.17768 10.7329L5.07843 6.83039L5.14027 6.77497ZM10.4993 1.16797C11.098 1.16797 11.6737 1.39806 12.1075 1.81064C12.5412 2.22323 12.7998 2.78674 12.8298 3.38464L12.8327 3.5013V9.09255L10.9118 7.17222L10.8243 7.0923C10.0916 6.45355 9.16177 6.45239 8.43493 7.08239L8.3451 7.16405L8.16602 7.34255L6.82843 6.00555L6.74093 5.92564C6.00827 5.28689 5.07843 5.28572 4.3516 5.91572L4.26177 5.99739L1.16602 9.09255V3.5013C1.16602 2.90266 1.3961 2.32692 1.80869 1.89316C2.22127 1.4594 2.78479 1.20082 3.38268 1.17089L3.49935 1.16797H10.4993ZM8.75518 4.08464L8.6811 4.08872C8.53932 4.10558 8.40865 4.17386 8.31384 4.28062C8.21903 4.38737 8.16667 4.52519 8.16667 4.66797C8.16667 4.81075 8.21903 4.94857 8.31384 5.05532C8.40865 5.16208 8.53932 5.23035 8.6811 5.24722L8.74935 5.2513L8.82343 5.24722C8.96521 5.23035 9.09588 5.16208 9.19069 5.05532C9.2855 4.94857 9.33787 4.81075 9.33787 4.66797C9.33787 4.52519 9.2855 4.38737 9.19069 4.28062C9.09588 4.17386 8.96521 4.10558 8.82343 4.08872L8.75518 4.08464Z" fill="white"/>
<path d="M5.14027 6.77497C5.40685 6.5533 5.67577 6.5533 5.94877 6.78139L6.01177 6.83855L8.92027 9.74705L8.9751 9.79547C9.08734 9.88247 9.22747 9.92554 9.3692 9.9166C9.51093 9.90765 9.64453 9.84732 9.74495 9.7469C9.84536 9.64648 9.9057 9.51288 9.91464 9.37115C9.92358 9.22942 9.88052 9.08929 9.79352 8.97705L9.7451 8.92222L8.99143 8.16797L9.16177 7.99705L9.2236 7.94164C9.49018 7.71997 9.7591 7.71997 10.0321 7.94805L10.0951 8.00522L12.8216 10.7323C12.7664 11.2878 12.5138 11.8051 12.1098 12.1903C11.7058 12.5755 11.177 12.8031 10.6195 12.8317L10.4993 12.8346H3.49935C2.92063 12.8346 2.36257 12.6195 1.93354 12.2311C1.50451 11.8427 1.23512 11.3087 1.17768 10.7329L5.07843 6.83039L5.14027 6.77497ZM10.4993 1.16797C11.098 1.16797 11.6737 1.39806 12.1075 1.81064C12.5412 2.22323 12.7998 2.78674 12.8298 3.38464L12.8327 3.5013V9.09255L10.9118 7.17222L10.8243 7.0923C10.0916 6.45355 9.16177 6.45239 8.43493 7.08239L8.3451 7.16405L8.16602 7.34255L6.82843 6.00555L6.74093 5.92564C6.00827 5.28689 5.07843 5.28572 4.3516 5.91572L4.26177 5.99739L1.16602 9.09255V3.5013C1.16602 2.90266 1.3961 2.32692 1.80869 1.89316C2.22127 1.4594 2.78479 1.20082 3.38268 1.17089L3.49935 1.16797H10.4993ZM8.75518 4.08464L8.6811 4.08872C8.53932 4.10558 8.40865 4.17386 8.31384 4.28062C8.21903 4.38737 8.16667 4.52519 8.16667 4.66797C8.16667 4.81075 8.21903 4.94857 8.31384 5.05532C8.40865 5.16208 8.53932 5.23035 8.6811 5.24722L8.74935 5.2513L8.82343 5.24722C8.96521 5.23035 9.09588 5.16208 9.19069 5.05532C9.2855 4.94857 9.33787 4.81075 9.33787 4.66797C9.33787 4.52519 9.2855 4.38737 9.19069 4.28062C9.09588 4.17386 8.96521 4.10558 8.82343 4.08872L8.75518 4.08464Z" fill="#9DB2CE"/>
</svg>
