<svg width="16" height="16" viewBox="0 0 17 16" fill="none" xmlns="http://www.w3.org/2000/svg">
<g clip-path="url(#clip0_3722_25358)">
<path d="M8.75 7.60039C13.1687 7.60039 16.75 6.10664 16.75 4.26602C16.75 2.42539 13.1687 0.931641 8.75 0.931641C4.33125 0.931641 0.75 2.42539 0.75 4.26602C0.75 6.10664 4.33125 7.60039 8.75 7.60039ZM8.75 12.9316C5.69688 12.9316 2.99688 12.1973 1.29375 11.0629C0.946875 11.4379 0.75 11.841 0.75 12.266C0.75 14.1066 4.33125 15.6004 8.75 15.6004C13.1687 15.6004 16.75 14.1066 16.75 12.266C16.75 11.841 16.5531 11.4379 16.2063 11.066C14.5031 12.1973 11.8031 12.9316 8.75 12.9316ZM8.75 8.93164C5.69688 8.93164 2.99688 8.19727 1.29375 7.06289C0.946875 7.43789 0.75 7.84102 0.75 8.26602C0.75 10.1066 4.33125 11.6004 8.75 11.6004C13.1687 11.6004 16.75 10.1066 16.75 8.26602C16.75 7.84102 16.5531 7.43789 16.2063 7.06602C14.5031 8.19727 11.8031 8.93164 8.75 8.93164Z" fill="white"/>
<path d="M8.75 7.60039C13.1687 7.60039 16.75 6.10664 16.75 4.26602C16.75 2.42539 13.1687 0.931641 8.75 0.931641C4.33125 0.931641 0.75 2.42539 0.75 4.26602C0.75 6.10664 4.33125 7.60039 8.75 7.60039ZM8.75 12.9316C5.69688 12.9316 2.99688 12.1973 1.29375 11.0629C0.946875 11.4379 0.75 11.841 0.75 12.266C0.75 14.1066 4.33125 15.6004 8.75 15.6004C13.1687 15.6004 16.75 14.1066 16.75 12.266C16.75 11.841 16.5531 11.4379 16.2063 11.066C14.5031 12.1973 11.8031 12.9316 8.75 12.9316ZM8.75 8.93164C5.69688 8.93164 2.99688 8.19727 1.29375 7.06289C0.946875 7.43789 0.75 7.84102 0.75 8.26602C0.75 10.1066 4.33125 11.6004 8.75 11.6004C13.1687 11.6004 16.75 10.1066 16.75 8.26602C16.75 7.84102 16.5531 7.43789 16.2063 7.06602C14.5031 8.19727 11.8031 8.93164 8.75 8.93164Z" fill="url(#paint0_linear_3722_25358)"/>
</g>
<defs>
<linearGradient id="paint0_linear_3722_25358" x1="8.75" y1="0.931641" x2="8.75" y2="15.6004" gradientUnits="userSpaceOnUse">
<stop stop-color="#049AEF"/>
<stop offset="1" stop-color="#0862DC"/>
</linearGradient>
<clipPath id="clip0_3722_25358">
<rect width="16" height="16" fill="white" transform="translate(0.75)"/>
</clipPath>
</defs>
</svg>
