<svg width="16" height="16" viewBox="0 0 16 16" fill="none" xmlns="http://www.w3.org/2000/svg">
<path d="M4.59091 2C4.16897 2 3.76432 2.17755 3.46597 2.49358C3.16761 2.80961 3 3.23825 3 3.68519V13.3148C3 14.245 3.71273 15 4.59091 15H5.5C5.92194 15 6.32659 14.8225 6.62494 14.5064C6.9233 14.1904 7.09091 13.7618 7.09091 13.3148V3.68519C7.09091 3.23825 6.9233 2.80961 6.62494 2.49358C6.32659 2.17755 5.92194 2 5.5 2H4.59091ZM10.5 2C10.0781 2 9.67341 2.17755 9.37506 2.49358C9.0767 2.80961 8.90909 3.23825 8.90909 3.68519V13.3148C8.90909 14.245 9.62182 15 10.5 15H11.4091C11.831 15 12.2357 14.8225 12.534 14.5064C12.8324 14.1904 13 13.7618 13 13.3148V3.68519C13 3.23825 12.8324 2.80961 12.534 2.49358C12.2357 2.17755 11.831 2 11.4091 2H10.5Z" fill="white"/>
</svg>
