<svg xmlns="http://www.w3.org/2000/svg" width="15" height="18" fill="none"><path fill="#9DB2CE" d="m8 17.333-.208-2.5h-.209c-1.972 0-3.646-.687-5.02-2.062C1.187 11.396.5 9.722.5 7.75s.688-3.646 2.063-5.02C3.937 1.353 5.61.666 7.582.666c.986 0 1.907.184 2.761.551a7.14 7.14 0 0 1 3.77 3.771c.368.854.552 1.774.553 2.761 0 1.042-.17 2.042-.51 3-.34.958-.806 1.847-1.397 2.667a11.855 11.855 0 0 1-2.104 2.229A12.997 12.997 0 0 1 8 17.333Zm-.438-5.02a.823.823 0 0 0 .605-.25.823.823 0 0 0 .25-.605.823.823 0 0 0-.25-.604.823.823 0 0 0-.604-.25.823.823 0 0 0-.605.25.823.823 0 0 0-.25.604c0 .236.084.438.25.604.167.167.368.25.604.25Zm-.604-2.646h1.25c0-.417.042-.709.125-.875.084-.167.348-.473.792-.917.25-.25.458-.52.625-.813.167-.291.25-.604.25-.937 0-.708-.24-1.24-.718-1.594-.48-.355-1.045-.532-1.699-.531-.61 0-1.125.17-1.541.51-.417.341-.709.754-.875 1.24l1.166.458c.07-.236.202-.468.396-.697.195-.23.48-.344.854-.344.375 0 .657.103.845.312.187.209.28.438.28.688 0 .236-.07.448-.208.635a5.09 5.09 0 0 1-.5.573c-.486.417-.781.747-.885.99-.104.243-.156.677-.157 1.302Z"/></svg>