<svg width="78" height="13" viewBox="0 0 78 13" fill="none" xmlns="http://www.w3.org/2000/svg">
<path d="M12.2237 4.78553C12.1763 4.63605 12.0847 4.50442 11.9611 4.40787C11.8376 4.31132 11.6877 4.25437 11.5312 4.24449L8.71302 4.04926L7.66991 1.41583C7.61295 1.27083 7.51377 1.14626 7.38522 1.05826C7.25667 0.970257 7.10466 0.922869 6.94887 0.922231C6.79309 0.922791 6.64105 0.970103 6.51246 1.05804C6.38386 1.14598 6.28463 1.2705 6.2276 1.41547L5.16418 4.0626L2.36491 4.24219C2.20858 4.25263 2.05899 4.30975 1.93547 4.40614C1.81195 4.50253 1.7202 4.63377 1.67209 4.78288C1.62268 4.93427 1.61976 5.097 1.66369 5.25007C1.70763 5.40314 1.79641 5.53954 1.91859 5.64169L4.0721 7.46409L3.43097 9.98323C3.38662 10.1536 3.39455 10.3335 3.45373 10.4993C3.51292 10.6652 3.62062 10.8094 3.76285 10.9132C3.9009 11.0124 4.0654 11.068 4.23528 11.0732C4.40517 11.0783 4.57271 11.0326 4.71648 10.9419L6.94197 9.53338L6.95146 9.53339L9.34702 11.0475C9.46991 11.1274 9.61318 11.1702 9.75976 11.1709C9.87944 11.17 9.99731 11.1417 10.1043 11.0881C10.2113 11.0345 10.3046 10.9571 10.3771 10.8618C10.4495 10.7665 10.4991 10.6559 10.5221 10.5384C10.545 10.421 10.5408 10.2998 10.5096 10.1843L9.83186 7.42758L11.9768 5.64421C12.099 5.54212 12.1879 5.40577 12.2319 5.25272C12.2759 5.09967 12.2731 4.93694 12.2237 4.78553Z" fill="#FFB237"/>
<path d="M28.4181 4.78943C28.3706 4.63996 28.2791 4.50832 28.1555 4.41177C28.0319 4.31523 27.882 4.25828 27.7255 4.24839L24.9074 4.05316L23.8642 1.41974C23.8073 1.27474 23.7081 1.15017 23.5796 1.06217C23.451 0.974163 23.299 0.926775 23.1432 0.926137C22.9874 0.926697 22.8354 0.974009 22.7068 1.06195C22.5782 1.14989 22.479 1.2744 22.4219 1.41938L21.3585 4.06651L18.5593 4.24609C18.4029 4.25654 18.2533 4.31365 18.1298 4.41005C18.0063 4.50644 17.9145 4.63768 17.8664 4.78679C17.817 4.93818 17.8141 5.1009 17.858 5.25398C17.902 5.40705 17.9907 5.54345 18.1129 5.64559L20.2664 7.468L19.6253 9.98713C19.581 10.1576 19.5889 10.3374 19.6481 10.5032C19.7073 10.6691 19.815 10.8133 19.9572 10.9171C20.0952 11.0163 20.2597 11.0719 20.4296 11.0771C20.5995 11.0822 20.767 11.0365 20.9108 10.9458L23.1363 9.53729L23.1458 9.53729L25.5414 11.0514C25.6642 11.1313 25.8075 11.1741 25.9541 11.1748C26.0738 11.1739 26.1916 11.1456 26.2987 11.092C26.4057 11.0384 26.499 10.961 26.5714 10.8657C26.6438 10.7704 26.6934 10.6598 26.7164 10.5423C26.7394 10.4249 26.7351 10.3037 26.704 10.1882L26.0262 7.43148L28.1711 5.64811C28.2934 5.54603 28.3822 5.40967 28.4262 5.25662C28.4702 5.10357 28.4674 4.94085 28.4181 4.78943Z" fill="#FFB237"/>
<path d="M44.6124 4.79334C44.5649 4.64387 44.4734 4.51223 44.3498 4.41568C44.2262 4.31913 44.0764 4.26218 43.9198 4.2523L41.1017 4.05707L40.0586 1.42365C40.0016 1.27864 39.9024 1.15408 39.7739 1.06607C39.6453 0.97807 39.4933 0.930681 39.3375 0.930043C39.1818 0.930603 39.0297 0.977915 38.9011 1.06585C38.7725 1.15379 38.6733 1.27831 38.6163 1.42328L37.5529 4.07041L34.7536 4.25C34.5973 4.26045 34.4477 4.31756 34.3241 4.41395C34.2006 4.51035 34.1089 4.64159 34.0608 4.79069C34.0114 4.94209 34.0084 5.10481 34.0524 5.25788C34.0963 5.41095 34.1851 5.54735 34.3073 5.6495L36.4608 7.4719L35.8196 9.99104C35.7753 10.1615 35.7832 10.3413 35.8424 10.5071C35.9016 10.673 36.0093 10.8172 36.1515 10.921C36.2896 11.0202 36.4541 11.0759 36.624 11.081C36.7938 11.0861 36.9614 11.0404 37.1051 10.9497L39.3306 9.5412L39.3401 9.5412L41.7357 11.0553C41.8586 11.1352 42.0019 11.178 42.1484 11.1787C42.2681 11.1778 42.386 11.1495 42.493 11.0959C42.6 11.0423 42.6933 10.9649 42.7657 10.8696C42.8381 10.7743 42.8878 10.6637 42.9107 10.5462C42.9337 10.4288 42.9295 10.3076 42.8983 10.1921L42.2205 7.43539L44.3655 5.65202C44.4877 5.54994 44.5765 5.41358 44.6206 5.26053C44.6646 5.10748 44.6617 4.94476 44.6124 4.79334Z" fill="#FFB237"/>
<path d="M60.8067 4.79724C60.7593 4.64777 60.6677 4.51613 60.5442 4.41959C60.4206 4.32304 60.2707 4.26609 60.1142 4.2562L57.296 4.06098L56.2529 1.42755C56.196 1.28255 56.0968 1.15798 55.9682 1.06998C55.8397 0.981976 55.6877 0.934588 55.5319 0.933949C55.3761 0.93451 55.2241 0.981822 55.0955 1.06976C54.9669 1.1577 54.8676 1.28222 54.8106 1.42719L53.7472 4.07432L50.9479 4.25391C50.7916 4.26435 50.642 4.32146 50.5185 4.41786C50.395 4.51425 50.3032 4.64549 50.2551 4.7946C50.2057 4.94599 50.2028 5.10872 50.2467 5.26179C50.2906 5.41486 50.3794 5.55126 50.5016 5.65341L52.6551 7.47581L52.014 9.99494C51.9696 10.1654 51.9776 10.3452 52.0367 10.511C52.0959 10.6769 52.2036 10.8211 52.3459 10.9249C52.4839 11.0241 52.6484 11.0798 52.8183 11.0849C52.9882 11.09 53.1557 11.0443 53.2995 10.9536L55.525 9.5451L55.5345 9.54511L57.93 11.0592C58.0529 11.1391 58.1962 11.1819 58.3428 11.1826C58.4624 11.1817 58.5803 11.1534 58.6873 11.0998C58.7943 11.0462 58.8876 10.9688 58.9601 10.8735C59.0325 10.7782 59.0821 10.6676 59.1051 10.5502C59.1281 10.4327 59.1238 10.3115 59.0926 10.196L58.4149 7.4393L60.5598 5.65593C60.682 5.55384 60.7709 5.41749 60.8149 5.26444C60.8589 5.11139 60.8561 4.94866 60.8067 4.79724Z" fill="#FFB237"/>
<path d="M77.0011 4.80213C76.9536 4.65266 76.8621 4.52102 76.7385 4.42447C76.6149 4.32792 76.465 4.27097 76.3085 4.26109L73.4904 4.06586L72.4472 1.43243C72.3903 1.28743 72.2911 1.16287 72.1626 1.07486C72.034 0.986859 71.882 0.93947 71.7262 0.938832V0.938832C71.5704 0.939392 71.4184 0.986704 71.2898 1.07464C71.1612 1.16258 71.062 1.2871 71.0049 1.43207L69.9415 4.0792L67.1423 4.25879C66.9859 4.26923 66.8363 4.32635 66.7128 4.42274C66.5893 4.51914 66.4975 4.65038 66.4494 4.79948C66.4 4.95088 66.3971 5.1136 66.441 5.26667C66.485 5.41974 66.5738 5.55614 66.6959 5.65829L68.8494 7.48069L68.2083 9.99983C68.164 10.1702 68.1719 10.3501 68.2311 10.5159C68.2903 10.6818 68.398 10.826 68.5402 10.9298C68.6782 11.029 68.8427 11.0846 69.0126 11.0898C69.1825 11.0949 69.3501 11.0492 69.4938 10.9585L71.7193 9.54999L71.7288 9.54999L74.1244 11.0641C74.2473 11.144 74.3905 11.1868 74.5371 11.1875C74.6568 11.1866 74.7747 11.1583 74.8817 11.1047C74.9887 11.0511 75.082 10.9737 75.1544 10.8784C75.2268 10.7831 75.2764 10.6725 75.2994 10.555C75.3224 10.4376 75.3181 10.3164 75.287 10.2009L74.6092 7.44418L76.7541 5.66081C76.8764 5.55873 76.9652 5.42237 77.0092 5.26932C77.0532 5.11627 77.0504 4.95355 77.0011 4.80213Z" fill="#FFB237"/>
</svg>
