<svg width="14" height="14" viewBox="0 0 14 14" fill="none" xmlns="http://www.w3.org/2000/svg">
<path d="M9.75649 3.94807C9.90993 4.05259 10.0156 4.21379 10.0502 4.39619C10.0848 4.5786 10.0455 4.76728 9.94094 4.92072C9.83642 5.07416 9.67523 5.1798 9.49282 5.21439C9.31041 5.24898 9.12173 5.20969 8.96829 5.10517C8.32203 4.66584 7.54734 4.45542 6.76763 4.50744C5.98791 4.55945 5.24803 4.8709 4.66586 5.39218C4.08368 5.91346 3.6927 6.61457 3.5552 7.38383C3.4177 8.15308 3.54159 8.94622 3.90713 9.6369C4.27268 10.3276 4.85885 10.8761 5.57226 11.195C6.28568 11.5139 7.0853 11.5848 7.84373 11.3966C8.60216 11.2084 9.27578 10.7717 9.75728 10.1562C10.2388 9.54073 10.5004 8.78182 10.5006 8.00037C10.5006 7.81472 10.5743 7.63667 10.7056 7.50539C10.8369 7.37412 11.0149 7.30037 11.2006 7.30037C11.3862 7.30037 11.5643 7.37412 11.6956 7.50539C11.8268 7.63667 11.9006 7.81472 11.9006 8.00037C11.9004 9.09446 11.5341 10.157 10.86 11.0188C10.1858 11.8805 9.2427 12.4918 8.18081 12.7554C7.11893 13.0189 5.9994 12.9194 5.00059 12.4729C4.00179 12.0263 3.18117 11.2583 2.66949 10.2912C2.1578 9.32416 1.9845 8.21367 2.17718 7.13667C2.36986 6.05968 2.91744 5.07816 3.73268 4.34848C4.54792 3.61881 5.58391 3.18297 6.6756 3.1104C7.76728 3.03784 8.85185 3.33272 9.75649 3.94807Z" fill="white"/>
<path d="M9.47781 9.75333C9.40036 9.80287 9.31391 9.83668 9.2234 9.85282C9.13288 9.86896 9.04008 9.86711 8.95028 9.84738C8.86048 9.82766 8.77545 9.79043 8.70003 9.73784C8.62462 9.68525 8.5603 9.61832 8.51076 9.54088C8.46121 9.46343 8.4274 9.37698 8.41126 9.28647C8.39512 9.19596 8.39697 9.10315 8.4167 9.01335C8.43643 8.92355 8.47365 8.83852 8.52624 8.7631C8.57883 8.68769 8.64576 8.62337 8.72321 8.57383L11.1606 7.01493C11.317 6.91816 11.5051 6.8868 11.6844 6.92764C11.8637 6.96848 12.0198 7.07823 12.1188 7.23317C12.2178 7.38811 12.2519 7.5758 12.2137 7.75567C12.1755 7.93554 12.068 8.09315 11.9145 8.19443L9.47781 9.75333Z" fill="white"/>
<path d="M13.2323 9.68766C13.3037 9.85646 13.3061 10.0466 13.2389 10.2171C13.1717 10.3877 13.0403 10.525 12.8729 10.5998C12.7055 10.6745 12.5155 10.6805 12.3437 10.6167C12.1719 10.5528 12.032 10.4241 11.9541 10.2582L10.8985 7.89216C10.8589 7.80792 10.8365 7.71664 10.8326 7.62366C10.8288 7.53067 10.8435 7.43785 10.8759 7.35061C10.9083 7.26338 10.9578 7.18349 11.0215 7.11562C11.0852 7.04774 11.1617 6.99324 11.2467 6.95531C11.3317 6.91738 11.4234 6.89678 11.5165 6.8947C11.6095 6.89263 11.702 6.90914 11.7886 6.94325C11.8752 6.97736 11.9541 7.0284 12.0207 7.09337C12.0874 7.15834 12.1404 7.23595 12.1767 7.32166L13.2323 9.68766Z" fill="white"/>
</svg>
