<svg width="64" height="64" viewBox="0 0 64 64" fill="none" xmlns="http://www.w3.org/2000/svg">
<path d="M15.9993 58.668C14.5327 58.668 13.2776 58.1462 12.234 57.1026C11.1905 56.0591 10.6678 54.8031 10.666 53.3346V26.668C10.666 25.2013 11.1887 23.9462 12.234 22.9026C13.2793 21.8591 14.5345 21.3364 15.9993 21.3346H18.666V16.0013C18.666 12.3124 19.9665 9.16842 22.5674 6.5693C25.1682 3.97019 28.3122 2.66975 31.9993 2.66797C35.6865 2.66619 38.8314 3.96664 41.434 6.5693C44.0367 9.17197 45.3362 12.316 45.3327 16.0013V21.3346H47.9994C49.466 21.3346 50.722 21.8573 51.7673 22.9026C52.8127 23.948 53.3345 25.2031 53.3327 26.668V53.3346C53.3327 54.8013 52.8109 56.0573 51.7673 57.1026C50.7238 58.148 49.4678 58.6697 47.9994 58.668H15.9993ZM31.9993 45.3346C33.466 45.3346 34.722 44.8129 35.7673 43.7693C36.8127 42.7257 37.3345 41.4697 37.3327 40.0013C37.3309 38.5329 36.8091 37.2777 35.7673 36.236C34.7256 35.1942 33.4696 34.6715 31.9993 34.668C30.5291 34.6644 29.274 35.1871 28.234 36.236C27.194 37.2849 26.6713 38.54 26.666 40.0013C26.6607 41.4626 27.1833 42.7186 28.234 43.7693C29.2847 44.82 30.5398 45.3417 31.9993 45.3346ZM23.9993 21.3346H39.9993V16.0013C39.9993 13.7791 39.2216 11.8902 37.666 10.3346C36.1105 8.77908 34.2216 8.0013 31.9993 8.0013C29.7771 8.0013 27.8882 8.77908 26.3327 10.3346C24.7771 11.8902 23.9993 13.7791 23.9993 16.0013V21.3346Z" fill="white" fill-opacity="0.2"/>
</svg>
