<svg width="20" height="20" viewBox="0 0 20 20" fill="none" xmlns="http://www.w3.org/2000/svg">
<path d="M11.8248 11.8251L4.99984 15.0001L8.17484 8.17508L14.9998 5.00008M9.99984 1.66675C8.90549 1.66675 7.82185 1.8823 6.81081 2.30109C5.79976 2.71987 4.8811 3.3337 4.10728 4.10752C2.54448 5.67033 1.6665 7.78994 1.6665 10.0001C1.6665 12.2102 2.54448 14.3298 4.10728 15.8926C4.8811 16.6665 5.79976 17.2803 6.81081 17.6991C7.82185 18.1179 8.90549 18.3334 9.99984 18.3334C12.21 18.3334 14.3296 17.4554 15.8924 15.8926C17.4552 14.3298 18.3332 12.2102 18.3332 10.0001C18.3332 8.90573 18.1176 7.8221 17.6988 6.81105C17.28 5.80001 16.6662 4.88135 15.8924 4.10752C15.1186 3.3337 14.1999 2.71987 13.1889 2.30109C12.1778 1.8823 11.0942 1.66675 9.99984 1.66675ZM9.99984 9.08341C9.75672 9.08341 9.52356 9.17999 9.35166 9.3519C9.17975 9.52381 9.08317 9.75697 9.08317 10.0001C9.08317 10.2432 9.17975 10.4764 9.35166 10.6483C9.52356 10.8202 9.75672 10.9167 9.99984 10.9167C10.243 10.9167 10.4761 10.8202 10.648 10.6483C10.8199 10.4764 10.9165 10.2432 10.9165 10.0001C10.9165 9.75697 10.8199 9.52381 10.648 9.3519C10.4761 9.17999 10.243 9.08341 9.99984 9.08341Z" fill="white"/>
<path d="M11.8248 11.8251L4.99984 15.0001L8.17484 8.17508L14.9998 5.00008M9.99984 1.66675C8.90549 1.66675 7.82185 1.8823 6.81081 2.30109C5.79976 2.71987 4.8811 3.3337 4.10728 4.10752C2.54448 5.67033 1.6665 7.78994 1.6665 10.0001C1.6665 12.2102 2.54448 14.3298 4.10728 15.8926C4.8811 16.6665 5.79976 17.2803 6.81081 17.6991C7.82185 18.1179 8.90549 18.3334 9.99984 18.3334C12.21 18.3334 14.3296 17.4554 15.8924 15.8926C17.4552 14.3298 18.3332 12.2102 18.3332 10.0001C18.3332 8.90573 18.1176 7.8221 17.6988 6.81105C17.28 5.80001 16.6662 4.88135 15.8924 4.10752C15.1186 3.3337 14.1999 2.71987 13.1889 2.30109C12.1778 1.8823 11.0942 1.66675 9.99984 1.66675ZM9.99984 9.08341C9.75672 9.08341 9.52356 9.17999 9.35166 9.3519C9.17975 9.52381 9.08317 9.75697 9.08317 10.0001C9.08317 10.2432 9.17975 10.4764 9.35166 10.6483C9.52356 10.8202 9.75672 10.9167 9.99984 10.9167C10.243 10.9167 10.4761 10.8202 10.648 10.6483C10.8199 10.4764 10.9165 10.2432 10.9165 10.0001C10.9165 9.75697 10.8199 9.52381 10.648 9.3519C10.4761 9.17999 10.243 9.08341 9.99984 9.08341Z" fill="url(#paint0_linear_49_6823)"/>
<defs>
<linearGradient id="paint0_linear_49_6823" x1="9.99984" y1="1.66675" x2="9.99984" y2="18.3334" gradientUnits="userSpaceOnUse">
<stop stop-color="#049AEF"/>
<stop offset="1" stop-color="#0862DC"/>
</linearGradient>
</defs>
</svg>
