<svg width="12" height="12" viewBox="0 0 12 12" fill="none" xmlns="http://www.w3.org/2000/svg">
<g clip-path="url(#clip0_344_3520)">
<path d="M6 5.69999C9.31406 5.69999 12 4.57968 12 3.19921C12 1.81874 9.31406 0.698425 6 0.698425C2.68594 0.698425 0 1.81874 0 3.19921C0 4.57968 2.68594 5.69999 6 5.69999ZM6 9.69843C3.71016 9.69843 1.68516 9.14764 0.407812 8.29686C0.147656 8.57811 0 8.88046 0 9.19921C0 10.5797 2.68594 11.7 6 11.7C9.31406 11.7 12 10.5797 12 9.19921C12 8.88046 11.8523 8.57811 11.5922 8.29921C10.3148 9.14764 8.28984 9.69843 6 9.69843ZM6 6.69842C3.71016 6.69842 1.68516 6.14764 0.407812 5.29686C0.147656 5.57811 0 5.88046 0 6.19921C0 7.57968 2.68594 8.69999 6 8.69999C9.31406 8.69999 12 7.57968 12 6.19921C12 5.88046 11.8523 5.57811 11.5922 5.29921C10.3148 6.14764 8.28984 6.69842 6 6.69842Z" fill="white"/>
</g>
<defs>
<clipPath id="clip0_344_3520">
<rect width="12" height="12" fill="white"/>
</clipPath>
</defs>
</svg>
