<svg width="25" height="24" viewBox="0 0 25 24" fill="none" xmlns="http://www.w3.org/2000/svg">
<path fill-rule="evenodd" clip-rule="evenodd" d="M10.278 21H14.722C17.843 21 19.404 21 20.525 20.265C21.0088 19.9482 21.4254 19.5391 21.751 19.061C22.5 17.961 22.5 16.428 22.5 13.364C22.5 10.3 22.5 8.76705 21.751 7.66705C21.4254 7.18904 21.0088 6.77991 20.525 6.46305C19.805 5.99005 18.903 5.82105 17.522 5.76105C16.863 5.76105 16.296 5.27105 16.167 4.63605C16.0684 4.17092 15.8123 3.75408 15.4418 3.456C15.0714 3.15791 14.6095 2.99686 14.134 3.00005H10.866C9.878 3.00005 9.027 3.68505 8.833 4.63605C8.704 5.27105 8.137 5.76105 7.478 5.76105C6.098 5.82105 5.196 5.99105 4.475 6.46305C3.99154 6.78001 3.57527 7.18914 3.25 7.66705C2.5 8.76705 2.5 10.299 2.5 13.364C2.5 16.429 2.5 17.96 3.249 19.061C3.573 19.537 3.989 19.946 4.475 20.265C5.596 21 7.157 21 10.278 21ZM12.5 9.27305C10.199 9.27305 8.333 11.104 8.333 13.363C8.333 15.622 10.2 17.456 12.5 17.456C14.8 17.456 16.667 15.624 16.667 13.365C16.667 11.106 14.8 9.27305 12.5 9.27305ZM12.5 10.909C11.12 10.909 10 12.008 10 13.364C10 14.719 11.12 15.818 12.5 15.818C13.88 15.818 15 14.719 15 13.364C15 12.009 13.88 10.909 12.5 10.909ZM17.222 10.091C17.222 9.63905 17.595 9.27305 18.056 9.27305H19.166C19.626 9.27305 20 9.63905 20 10.091C19.9979 10.3099 19.909 10.5191 19.7528 10.6724C19.5966 10.8258 19.3859 10.9109 19.167 10.909H18.056C17.9475 10.9101 17.8399 10.8898 17.7393 10.8492C17.6387 10.8087 17.547 10.7487 17.4696 10.6728C17.3921 10.5968 17.3304 10.5064 17.2879 10.4065C17.2454 10.3067 17.223 10.1995 17.222 10.091Z" fill="white"/>
</svg>
