<svg width="16" height="16" viewBox="0 0 16 16" fill="none" xmlns="http://www.w3.org/2000/svg">
<path d="M13.3332 2.00033H12.6665V10.667H13.3332C13.6868 10.667 14.0259 10.5265 14.276 10.2765C14.526 10.0264 14.6665 9.68728 14.6665 9.33366V3.33366C14.6665 2.98004 14.526 2.6409 14.276 2.39085C14.0259 2.1408 13.6868 2.00033 13.3332 2.00033ZM2.6665 10.667H7.33317L6.58517 12.9123C6.51843 13.1127 6.50025 13.3261 6.53212 13.5349C6.564 13.7437 6.64502 13.9419 6.76852 14.1133C6.89202 14.2846 7.05445 14.4242 7.24245 14.5204C7.43045 14.6167 7.63862 14.6669 7.84984 14.667H7.99984L11.3332 11.0417V2.00033H3.99984L1.39184 7.73099L1.33317 8.00033V9.33366C1.33317 9.68728 1.47365 10.0264 1.7237 10.2765C1.97374 10.5265 2.31288 10.667 2.6665 10.667Z" fill="#5E649D"/>
</svg>
