<svg width="20" height="20" viewBox="0 0 20 20" fill="none" xmlns="http://www.w3.org/2000/svg">
<path d="M11.8253 11.8263L5.00033 15.0013L8.17533 8.1763L15.0003 5.0013M10.0003 1.66797C8.90598 1.66797 7.82234 1.88352 6.8113 2.30231C5.80025 2.7211 4.88159 3.33492 4.10777 4.10875C2.54497 5.67155 1.66699 7.79116 1.66699 10.0013C1.66699 12.2114 2.54497 14.3311 4.10777 15.8939C4.88159 16.6677 5.80025 17.2815 6.8113 17.7003C7.82234 18.1191 8.90598 18.3346 10.0003 18.3346C12.2105 18.3346 14.3301 17.4567 15.8929 15.8939C17.4557 14.3311 18.3337 12.2114 18.3337 10.0013C18.3337 8.90695 18.1181 7.82332 17.6993 6.81227C17.2805 5.80123 16.6667 4.88257 15.8929 4.10875C15.1191 3.33492 14.2004 2.7211 13.1894 2.30231C12.1783 1.88352 11.0947 1.66797 10.0003 1.66797ZM10.0003 9.08463C9.75721 9.08463 9.52405 9.18121 9.35214 9.35312C9.18024 9.52503 9.08366 9.75819 9.08366 10.0013C9.08366 10.2444 9.18024 10.4776 9.35214 10.6495C9.52405 10.8214 9.75721 10.918 10.0003 10.918C10.2434 10.918 10.4766 10.8214 10.6485 10.6495C10.8204 10.4776 10.917 10.2444 10.917 10.0013C10.917 9.75819 10.8204 9.52503 10.6485 9.35312C10.4766 9.18121 10.2434 9.08463 10.0003 9.08463Z" fill="#9DB2CE"/>
</svg>
