<svg width="33" height="81" viewBox="0 0 33 81" fill="none" xmlns="http://www.w3.org/2000/svg">
<path d="M32.2464 66.9665C32.2347 66.5444 32.2183 66.108 32.1843 65.6872C32.1513 65.2642 32.1055 64.8473 32.0467 64.4395C32.0173 64.2347 31.9876 64.0281 31.9576 63.8195C31.9267 63.6116 31.8927 63.4061 31.8555 63.2034C31.8182 63.0006 31.7782 62.8031 31.7353 62.6111C31.692 62.4197 31.6455 62.2345 31.6053 62.0395C31.5202 61.6573 31.4239 61.2967 31.3153 60.9579L31.2324 60.7065L31.1541 60.4491C31.1003 60.2803 31.0434 60.1168 30.9831 59.9588C30.9229 59.8007 30.8593 59.648 30.7921 59.5006C30.7273 59.35 30.6678 59.1922 30.5998 59.0465C30.533 58.8991 30.4625 58.7571 30.3882 58.6201C30.3147 58.4822 30.2324 58.3558 30.1616 58.2139C30.013 57.9393 29.8487 57.6848 29.6668 57.4493C29.3315 56.9434 28.9216 56.5181 28.4914 56.0927C27.1985 57.1848 26.0593 58.4662 25.275 59.9755C24.8936 60.718 24.6017 61.5162 24.4194 62.3718C24.3232 62.8051 24.2781 63.2263 24.2544 63.6706C24.2325 64.1129 24.2411 64.5681 24.2822 65.0354C24.3236 65.41 24.3926 65.7773 24.4788 66.1471C24.5222 66.3315 24.5708 66.5156 24.6243 66.6991C24.679 66.8812 24.7329 67.0701 24.8049 67.2411C24.9432 67.5904 25.1009 67.9365 25.2765 68.2782C25.3642 68.449 25.4564 68.6186 25.5529 68.787C25.654 68.9486 25.7616 69.1056 25.8721 69.2629C26.0935 69.5765 26.3312 69.8839 26.5833 70.1835C26.6452 70.2601 26.7116 70.3306 26.7797 70.399L26.9853 70.605C27.124 70.7414 27.2661 70.8755 27.4112 71.0073C27.982 71.5523 28.646 71.9793 29.326 72.3847C27.1092 71.324 25.0166 70.0025 23.1015 68.4571C21.1856 66.9124 19.4473 65.1452 17.9185 63.2094C19.0541 62.3292 19.9897 61.1893 20.7204 59.9447C21.092 59.3168 21.4261 58.6505 21.7001 57.9771C21.7689 57.8084 21.8343 57.6389 21.8962 57.4689C21.9559 57.2984 22.016 57.1266 22.0767 56.9531C22.1975 56.6024 22.3044 56.2498 22.3959 55.8967C22.7542 54.4808 22.9293 53.1341 22.8556 51.9016C22.85 51.5854 22.8262 51.2776 22.7836 50.9777C22.7632 50.8272 22.7342 50.6809 22.7077 50.5325C22.6859 50.3817 22.6593 50.2328 22.628 50.0858C22.5671 49.791 22.4807 49.5066 22.3871 49.2233C22.3046 48.9347 22.2032 48.653 22.0826 48.3776C20.7 48.8002 19.3928 49.453 18.2799 50.4053C17.7159 50.8842 17.231 51.4247 16.8067 52.0457C16.5948 52.3561 16.3994 52.6859 16.2223 53.0353C16.1313 53.2112 16.053 53.3882 15.9817 53.5692C15.9093 53.7507 15.8419 53.9369 15.7797 54.128C15.3909 55.2862 15.2792 56.5062 15.3958 57.7265C15.4305 58.0285 15.4776 58.3313 15.5364 58.634C15.5957 58.9363 15.6612 59.2417 15.7615 59.5313C15.8563 59.8242 15.9622 60.1155 16.0786 60.404C16.1368 60.5483 16.1976 60.6918 16.2608 60.8344C16.3234 60.9776 16.4011 61.1113 16.4743 61.2487C15.3964 59.6555 14.4419 57.9778 13.6131 56.2371C12.8046 54.4865 12.125 52.6767 11.5693 50.8274C12.6837 50.5057 13.7279 49.9284 14.6462 49.1823C14.8758 48.9957 15.0974 48.7985 15.31 48.5918C15.5218 48.3853 15.7249 48.1693 15.9306 47.941C16.3354 47.4862 16.7029 46.9966 17.0228 46.4783C17.1787 46.2181 17.3451 45.9501 17.4848 45.6846C17.6267 45.4185 17.7528 45.1522 17.8629 44.886C17.9187 44.7528 17.9677 44.6201 18.0176 44.4866C18.0717 44.3521 18.1218 44.2177 18.168 44.0834C18.2604 43.8148 18.3371 43.5466 18.3979 43.279C18.4293 43.1451 18.4528 43.012 18.4796 42.8777C18.5095 42.743 18.5356 42.6085 18.5577 42.4741C18.6019 42.2053 18.6304 41.9373 18.6433 41.6699C18.6496 41.4033 18.6676 41.1341 18.6639 40.8665C18.6606 40.5989 18.6417 40.332 18.6073 40.0658C17.4365 40.082 16.2745 40.3143 15.1989 40.8216C14.6632 41.0748 14.1402 41.3974 13.6648 41.792C13.1981 42.1858 12.7658 42.6529 12.3782 43.1957C12.0857 43.5949 11.8634 44.0157 11.6658 44.4579C11.5678 44.6788 11.4784 44.9048 11.3978 45.1349C11.3169 45.3652 11.2424 45.5999 11.1936 45.8352C11.0875 46.3072 11.0161 46.7925 10.9783 47.284C10.9543 47.5307 10.9638 47.7739 10.97 48.0199C10.9788 48.2655 10.9958 48.5116 11.0208 48.7574L10.755 47.602C10.6788 47.2141 10.6121 46.8244 10.54 46.4356C10.3819 45.6602 10.3 44.8725 10.1882 44.0893C10.1756 43.9912 10.1602 43.8934 10.1498 43.7951L10.1235 43.4995L10.0708 42.9082L10.018 42.3169C10.001 42.1198 9.97921 41.9229 9.97447 41.725L9.92245 40.5383C9.91513 40.3406 9.90184 40.1428 9.89948 39.9449L9.90022 39.3509C10.8975 39.3589 11.8969 39.1357 12.8313 38.729C13.0648 38.6273 13.2944 38.514 13.5186 38.3898C13.6308 38.3276 13.7417 38.2628 13.8511 38.1952C13.9633 38.1277 14.0755 38.0575 14.1855 37.9846C14.6265 37.6932 15.0449 37.3599 15.4313 36.9868C15.5281 36.8933 15.6217 36.7985 15.712 36.7024C15.802 36.605 15.8917 36.5079 15.9814 36.4108C16.1601 36.2143 16.326 36.0131 16.4793 35.8078C16.7878 35.3974 17.0305 34.9693 17.2691 34.5321C17.3831 34.3131 17.4842 34.0908 17.5725 33.8654C17.6628 33.6404 17.7296 33.4109 17.8107 33.1822C17.9614 32.7232 18.0605 32.2534 18.1081 31.7747C17.1318 31.5588 16.1202 31.5334 15.1288 31.753C14.6331 31.8626 14.1425 32.0334 13.6643 32.2703C13.4264 32.3889 13.1867 32.5233 12.9601 32.6761C12.7371 32.8295 12.5189 32.9999 12.3064 33.1878C11.9683 33.4868 11.6585 33.8181 11.3777 34.1757C11.1018 34.5338 10.8781 34.9208 10.6725 35.326C10.2492 36.1357 10.0283 37.0294 9.90812 37.9394C9.99208 35.0335 10.3652 32.1345 11.0123 29.2963C11.73 29.4722 12.4872 29.4807 13.2304 29.3355C13.603 29.2631 13.9674 29.1511 14.3301 29.0033C14.6988 28.857 15.0592 28.6733 15.4044 28.4521C15.75 28.2306 16.0632 27.9825 16.3425 27.7123C16.6358 27.4459 16.9005 27.1588 17.1283 26.8526C17.2426 26.6996 17.3483 26.542 17.4452 26.3802C17.4942 26.2995 17.5388 26.217 17.5853 26.1348C17.634 26.0532 17.6805 25.9708 17.7248 25.8873C17.9019 25.5535 18.044 25.2044 18.1501 24.8432C17.4656 24.563 16.7267 24.4247 15.971 24.4663C15.5931 24.487 15.2111 24.5526 14.83 24.667C14.4487 24.7813 14.0648 24.9432 13.7105 25.165C13.1308 25.5214 12.6111 25.9841 12.187 26.5247C11.7833 27.0712 11.4546 27.6895 11.2304 28.3432C11.8284 25.9767 12.6197 23.6592 13.5768 21.412C14.1526 21.6699 14.787 21.793 15.434 21.7814C15.7584 21.7759 16.0825 21.7351 16.4106 21.6628C16.7432 21.5928 17.0746 21.4889 17.3997 21.3501C17.7252 21.2111 18.0279 21.0439 18.306 20.8525C18.4426 20.7555 18.5819 20.6571 18.7153 20.5534C18.848 20.4492 18.9745 20.3396 19.0945 20.2247C19.3346 19.995 19.5488 19.7445 19.7357 19.4762C19.934 19.2146 20.1079 18.937 20.2516 18.6435C19.7124 18.3143 19.1059 18.0986 18.4598 18.0315C18.1368 17.998 17.804 18.0015 17.4651 18.0459C17.1255 18.0898 16.7958 18.184 16.4577 18.3182C16.1868 18.4273 15.9266 18.5611 15.6787 18.7163C15.4324 18.8722 15.1905 19.0454 14.9841 19.2474C14.5633 19.647 14.1966 20.1169 13.9095 20.6309C14.7209 18.8554 15.6316 17.1259 16.6437 15.4555C17.545 15.999 18.6969 16.1466 19.8277 15.8255C21.0055 15.5018 21.9536 14.7668 22.5916 13.8263C21.7531 13.1462 20.6197 12.8277 19.3964 13.1256C19.0149 13.2254 18.6496 13.3808 18.3075 13.5809C17.9654 13.7809 17.6429 14.0233 17.374 14.3144C17.4673 14.1711 17.5559 14.0246 17.6531 13.8839L17.9475 13.4636L18.5362 12.6229L18.6837 12.4129L18.8396 12.2091L19.1512 11.8014L19.7744 10.9858C20.4802 11.5445 21.448 11.7943 22.4518 11.6336C22.7097 11.5929 22.954 11.5241 23.1922 11.4386C23.4342 11.3565 23.6642 11.2523 23.88 11.1283C24.3125 10.8812 24.6814 10.5478 25.0085 10.1817C24.6829 9.85368 24.287 9.59587 23.8364 9.43593C23.3823 9.2722 22.8884 9.22136 22.3602 9.29443C22.0128 9.3423 21.6745 9.44154 21.353 9.5831C21.2728 9.61864 21.193 9.65626 21.1154 9.69731C21.0399 9.7401 20.9656 9.78547 20.8925 9.83313C20.7465 9.92849 20.6057 10.0333 20.4713 10.1463C20.6553 9.92775 20.8343 9.70472 21.0224 9.48966L21.5979 8.8543L22.1734 8.21872L22.7745 7.60743C23.2987 8.12344 24.0525 8.39943 24.8786 8.34159C25.3085 8.32047 25.7158 8.21515 26.084 8.04126C26.2687 7.95497 26.4412 7.84851 26.6069 7.73205C26.7758 7.61939 26.9332 7.49139 27.0774 7.34971C26.8377 7.06178 26.5356 6.82659 26.1829 6.66665C25.8313 6.50787 25.4226 6.41733 24.9953 6.44357C24.4155 6.47507 23.8457 6.67666 23.3637 7.00901C24.0666 6.34368 24.766 5.67272 25.5113 5.05393C25.9188 5.53796 26.5398 5.83026 27.2556 5.84094C27.6242 5.85295 27.9803 5.79106 28.3086 5.66779C28.6374 5.54502 28.9344 5.35507 29.2067 5.13881C28.8396 4.61943 28.2288 4.24816 27.4939 4.2318C26.969 4.21779 26.4407 4.36471 25.9915 4.64183C26.3268 4.3619 26.6758 4.09873 27.0174 3.82624C27.1897 3.69186 27.3594 3.55407 27.5338 3.42255L28.0656 3.0394C28.337 3.4224 28.7836 3.68022 29.3175 3.7243C29.4521 3.7354 29.5857 3.73224 29.7165 3.71608C29.8474 3.69999 29.9806 3.67855 30.107 3.64124C30.3609 3.56864 30.5983 3.44914 30.8071 3.29113C30.5576 2.88827 30.1294 2.60118 29.5793 2.54255C29.3757 2.52125 29.1694 2.53073 28.9712 2.57264C28.7759 2.61886 28.5861 2.69372 28.4087 2.79208L28.8627 2.46493C29.0155 2.35805 29.1735 2.25879 29.3287 2.15535L30.2638 1.54046L30.0628 1.21694L29.1128 1.82837C28.9552 1.93127 28.7946 2.03004 28.6393 2.13642L28.1778 2.4622C28.3304 2.32513 28.4659 2.16811 28.5786 1.99466C28.6943 1.82548 28.7898 1.64356 28.855 1.44591C29.0313 0.91467 28.9651 0.392022 28.705 -0.00381293C28.2055 0.281792 27.7835 0.72152 27.623 1.27753C27.4571 1.82067 27.5531 2.32841 27.8288 2.70861L27.288 3.09041C27.1105 3.22149 26.9378 3.35899 26.7625 3.49296C26.4148 3.76476 26.0597 4.02739 25.718 4.30687C26.0826 3.91793 26.3675 3.45403 26.4985 2.92182C26.6795 2.17406 26.5628 1.48929 26.1769 0.973524C25.8376 1.17668 25.5492 1.45898 25.3148 1.7733C25.0808 2.08827 24.9053 2.44072 24.8118 2.81289C24.6379 3.56096 24.8228 4.23729 25.2289 4.71838C24.4698 5.33646 23.7565 6.00727 23.0394 6.67314C23.3959 6.20254 23.655 5.65736 23.7524 5.05654C23.822 4.60934 23.8153 4.19792 23.7205 3.81668C23.6267 3.43665 23.451 3.09411 23.2036 2.81264C23.0171 2.95194 22.8415 3.10691 22.6805 3.27456C22.5229 3.44592 22.3846 3.63502 22.2616 3.83075C22.0169 4.22366 21.8447 4.65428 21.7709 5.09888C21.6423 5.98882 21.9198 6.75282 22.4378 7.27232L21.824 7.8846L21.2358 8.52153L20.6476 9.15861C20.4552 9.3742 20.2719 9.59793 20.0837 9.81724C20.1734 9.66362 20.2545 9.50464 20.3263 9.34085C20.3621 9.25896 20.3957 9.17598 20.4269 9.09181C20.46 9.00937 20.4919 8.92682 20.5205 8.84267C20.6358 8.50662 20.7108 8.15402 20.7392 7.79088C20.7823 7.23896 20.7126 6.7165 20.5617 6.26258C20.4069 5.80521 20.1553 5.40227 19.821 5.08298C19.3787 5.46319 19.0275 5.94412 18.7631 6.45581C18.6314 6.71203 18.5231 6.97765 18.4424 7.24836C18.3655 7.5224 18.3222 7.80667 18.3061 8.0887C18.246 9.19528 18.6694 10.0861 19.3704 10.6598L18.7317 11.4788L18.4123 11.8885L18.2527 12.0933L18.1012 12.3043L17.497 13.1494L17.1949 13.5721C17.0952 13.7136 17.0041 13.861 16.9082 14.0051C17.0559 13.6277 17.1855 13.2466 17.2658 12.8501C17.3459 12.4536 17.3803 12.044 17.3635 11.6286C17.3329 10.3428 16.8168 9.2528 15.9563 8.5925C15.0351 9.61798 14.4958 10.9931 14.5698 12.3159C14.6529 13.6145 15.27 14.5885 16.1575 15.1535C15.1367 16.8051 14.2087 18.5136 13.3818 20.2717C13.5877 19.7326 13.7209 19.1653 13.7739 18.5834C13.7956 18.2901 13.8213 18.0053 13.8131 17.7124C13.8077 17.4209 13.7809 17.1275 13.7314 16.8344C13.67 16.4604 13.5666 16.1011 13.4483 15.7727C13.3294 15.4439 13.1793 15.1371 13.0019 14.8565C12.647 14.2953 12.1826 13.8386 11.6348 13.5241C11.4074 13.8619 11.2044 14.2183 11.0352 14.588C10.8776 14.9641 10.7507 15.3517 10.6587 15.7432C10.6128 15.9389 10.5755 16.1356 10.5475 16.3323C10.5188 16.5287 10.4997 16.7253 10.4992 16.9252C10.4934 17.3227 10.5258 17.7162 10.6 18.0985C10.6739 18.4794 10.7854 18.8303 10.9295 19.1493C11.0779 19.4703 11.2641 19.7619 11.4725 20.0186C11.8907 20.5328 12.4118 20.9136 12.9916 21.1581C12.0066 23.41 11.1851 25.7356 10.5555 28.115C10.6919 27.4376 10.7388 26.7417 10.6847 26.0427C10.6516 25.3503 10.5302 24.6583 10.2943 23.9815C10.1423 23.5562 9.97679 23.1669 9.77656 22.8074C9.57611 22.4479 9.34433 22.1194 9.08614 21.8264C8.56965 21.2406 7.94756 20.7961 7.25591 20.5345C7.05645 20.9744 6.89086 21.4324 6.76325 21.8979C6.73134 22.0143 6.70182 22.1311 6.67473 22.2483C6.64971 22.3662 6.63119 22.4861 6.61292 22.6052C6.57736 22.8438 6.55178 23.0831 6.53654 23.3216C6.50652 23.7988 6.5156 24.2722 6.57354 24.7341C6.64525 25.2006 6.76079 25.6539 6.92257 26.0847C7.08408 26.5146 7.28356 26.9006 7.51452 27.2418C7.75141 27.5847 8.02659 27.8847 8.32012 28.1385C8.90941 28.6469 9.59091 28.9752 10.3118 29.1336C9.62521 32.0152 9.21645 34.9651 9.10284 37.9289C9.08679 36.9957 8.9148 36.0612 8.69248 35.1507C8.5752 34.6953 8.41295 34.2428 8.23941 33.8005C8.07111 33.3589 7.86891 32.9246 7.63228 32.5012C7.48385 32.2358 7.32569 31.9812 7.15877 31.7381C6.99541 31.4956 6.83162 31.266 6.65449 31.0474C6.30251 30.6106 5.91681 30.2212 5.50466 29.8848C4.68029 29.2124 3.75024 28.7518 2.76903 28.5621C2.60329 29.2225 2.48756 29.9 2.42535 30.5774C2.38844 30.9149 2.39177 31.2577 2.39825 31.5964C2.40677 31.9356 2.42885 32.2725 2.46486 32.6052C2.52622 33.2691 2.69 33.923 2.89546 34.5418C2.99922 34.8514 3.11699 35.1527 3.24892 35.4438C3.28192 35.5166 3.31556 35.5888 3.35055 35.6603L3.46542 35.8736C3.5437 36.0145 3.62541 36.1526 3.71063 36.2878C4.05061 36.8272 4.4284 37.2921 4.83465 37.684C4.93639 37.782 5.03921 37.8754 5.14499 37.9643C5.25346 38.0534 5.36346 38.138 5.47481 38.2182C5.69747 38.3784 5.92547 38.5208 6.15776 38.6458C7.08692 39.1462 8.08382 39.3677 9.08146 39.3532C9.0482 42.6881 9.45103 46.0229 10.2004 49.2745C10.0378 48.7699 9.8414 48.275 9.61138 47.7911C9.40283 47.303 9.16308 46.8254 8.88817 46.3611C8.81956 46.245 8.74885 46.1297 8.67603 46.0153L8.46544 45.6725C8.32218 45.4456 8.17036 45.2222 8.01012 45.0027C7.69206 44.5635 7.32646 44.1412 6.96637 43.7344C6.48865 43.2087 5.97763 42.7415 5.44353 42.3356C4.91798 41.9294 4.38259 41.5844 3.82201 41.3071C2.705 40.7527 1.52287 40.4669 0.353264 40.5144C0.345218 40.9262 0.352855 41.3396 0.376143 41.7518C0.399915 42.164 0.433086 42.5751 0.509262 42.982C0.578935 43.389 0.664098 43.792 0.764362 44.1883C0.814505 44.3864 0.868435 44.5828 0.926129 44.7773C0.986961 44.9715 1.05903 45.1634 1.13058 45.3531C1.27573 45.7325 1.4355 46.1024 1.60945 46.4603C1.69645 46.6392 1.78694 46.8152 1.88099 46.9878C1.97913 47.16 2.08572 47.3284 2.19287 47.4935C2.40854 47.8235 2.63755 48.139 2.87939 48.4377C3.1234 48.7361 3.36917 49.0194 3.65404 49.2797C4.20948 49.7997 4.78374 50.2186 5.3662 50.542C5.65408 50.7043 5.95697 50.8402 6.25937 50.9534C6.56123 51.0667 6.86325 51.1573 7.16431 51.2261C8.36897 51.5019 9.55794 51.4289 10.6736 51.0906C10.7054 51.2064 10.7347 51.3231 10.7687 51.4383L10.8784 51.7818L11.098 52.4687L11.3178 53.1556C11.3975 53.3824 11.4845 53.6066 11.5675 53.8322L11.8195 54.5082C11.9045 54.7331 11.9832 54.9607 12.0825 55.1799L12.6508 56.5065C13.4531 58.2561 14.3768 59.9499 15.422 61.5692C13.8218 59.7114 11.9376 58.0462 9.71376 56.7454C9.52008 56.6335 9.32529 56.5264 9.12961 56.424C8.93419 56.3242 8.74073 56.2255 8.5489 56.1276C8.16747 55.9368 7.78243 55.7653 7.39561 55.6133C6.62223 55.3093 5.83566 55.0847 5.08442 54.9358C3.56672 54.643 2.06207 54.6883 0.691462 55.1477C0.829301 55.6672 0.987172 56.1833 1.16386 56.6921C1.35246 57.1979 1.5729 57.6935 1.80365 58.1797C1.91988 58.4225 2.04042 58.6626 2.16516 58.8994C2.29489 59.1349 2.43667 59.3647 2.57804 59.5921C2.86287 60.0464 3.16343 60.4859 3.47787 60.907C4.79252 62.5727 6.37952 63.9226 8.15564 64.7356C8.59206 64.9383 9.02229 65.1069 9.44484 65.2429C9.65335 65.3125 9.87217 65.3671 10.0847 65.4161C10.2979 65.4647 10.5088 65.5056 10.7172 65.5389C11.5524 65.671 12.3423 65.6854 13.0975 65.5873C14.6244 65.3807 15.9533 64.7598 17.075 63.8722C18.6322 65.884 20.4107 67.7285 22.379 69.3474C24.3466 70.9669 26.5037 72.3593 28.7944 73.4828C28.0471 73.1471 27.2598 72.8901 26.4879 72.6029C26.2926 72.5355 26.0954 72.4713 25.8966 72.4102L25.5969 72.3207C25.496 72.2926 25.3956 72.2636 25.2984 72.2297C24.905 72.1011 24.5042 71.985 24.0961 71.8809C23.8923 71.8284 23.6855 71.7808 23.4791 71.733C23.2773 71.6785 23.0737 71.6271 22.8682 71.5788C22.4573 71.4821 22.0389 71.3978 21.6131 71.3254C21.3975 71.2928 21.1935 71.2465 20.9819 71.2106C20.7714 71.1731 20.5592 71.1387 20.3451 71.1075C19.9179 71.0443 19.48 70.9974 19.042 70.9563C18.5185 70.8957 17.9979 70.8561 17.4823 70.8368C16.9687 70.8158 16.4501 70.8243 15.9638 70.8295C14.9802 70.8504 14.022 70.9547 13.1102 71.1448C11.3123 71.5057 9.69381 72.2127 8.42777 73.3417C9.24581 74.4244 10.2225 75.4012 11.2497 76.2913C11.7805 76.7221 12.3254 77.1308 12.8797 77.5133C13.1527 77.7086 13.4466 77.8794 13.7365 78.049C14.0272 78.2178 14.3198 78.3796 14.6135 78.5342C14.9085 78.6873 15.1992 78.8394 15.5005 78.9724C15.8045 79.1023 16.1091 79.2248 16.4137 79.3393C16.7182 79.4538 17.0227 79.5604 17.3265 79.6588C17.4784 79.708 17.6302 79.7551 17.7817 79.8001C17.9347 79.8431 18.0913 79.8791 18.2455 79.9157C18.8642 80.0594 19.4779 80.1697 20.0818 80.2447C20.3813 80.2861 20.6879 80.3036 20.9911 80.3131C21.2938 80.3233 21.5936 80.3245 21.8898 80.3169C22.1861 80.3092 22.4751 80.2926 22.7568 80.2676C23.038 80.2433 23.3121 80.2103 23.5853 80.1567C24.1282 80.0562 24.6407 79.9246 25.1227 79.7647C25.6057 79.6024 26.0539 79.4217 26.4798 79.1979C26.9068 78.9719 27.3033 78.722 27.6701 78.451C29.1383 77.3667 30.1262 75.9472 30.7435 74.3684L31.2114 73.2193C31.8701 71.6588 32.1742 69.9379 32.2414 68.2359C32.2579 67.8105 32.2593 67.3864 32.2464 66.9665Z" fill="white"/>
<path d="M32.2464 66.9665C32.2347 66.5444 32.2183 66.108 32.1843 65.6872C32.1513 65.2642 32.1055 64.8473 32.0467 64.4395C32.0173 64.2347 31.9876 64.0281 31.9576 63.8195C31.9267 63.6116 31.8927 63.4061 31.8555 63.2034C31.8182 63.0006 31.7782 62.8031 31.7353 62.6111C31.692 62.4197 31.6455 62.2345 31.6053 62.0395C31.5202 61.6573 31.4239 61.2967 31.3153 60.9579L31.2324 60.7065L31.1541 60.4491C31.1003 60.2803 31.0434 60.1168 30.9831 59.9588C30.9229 59.8007 30.8593 59.648 30.7921 59.5006C30.7273 59.35 30.6678 59.1922 30.5998 59.0465C30.533 58.8991 30.4625 58.7571 30.3882 58.6201C30.3147 58.4822 30.2324 58.3558 30.1616 58.2139C30.013 57.9393 29.8487 57.6848 29.6668 57.4493C29.3315 56.9434 28.9216 56.5181 28.4914 56.0927C27.1985 57.1848 26.0593 58.4662 25.275 59.9755C24.8936 60.718 24.6017 61.5162 24.4194 62.3718C24.3232 62.8051 24.2781 63.2263 24.2544 63.6706C24.2325 64.1129 24.2411 64.5681 24.2822 65.0354C24.3236 65.41 24.3926 65.7773 24.4788 66.1471C24.5222 66.3315 24.5708 66.5156 24.6243 66.6991C24.679 66.8812 24.7329 67.0701 24.8049 67.2411C24.9432 67.5904 25.1009 67.9365 25.2765 68.2782C25.3642 68.449 25.4564 68.6186 25.5529 68.787C25.654 68.9486 25.7616 69.1056 25.8721 69.2629C26.0935 69.5765 26.3312 69.8839 26.5833 70.1835C26.6452 70.2601 26.7116 70.3306 26.7797 70.399L26.9853 70.605C27.124 70.7414 27.2661 70.8755 27.4112 71.0073C27.982 71.5523 28.646 71.9793 29.326 72.3847C27.1092 71.324 25.0166 70.0025 23.1015 68.4571C21.1856 66.9124 19.4473 65.1452 17.9185 63.2094C19.0541 62.3292 19.9897 61.1893 20.7204 59.9447C21.092 59.3168 21.4261 58.6505 21.7001 57.9771C21.7689 57.8084 21.8343 57.6389 21.8962 57.4689C21.9559 57.2984 22.016 57.1266 22.0767 56.9531C22.1975 56.6024 22.3044 56.2498 22.3959 55.8967C22.7542 54.4808 22.9293 53.1341 22.8556 51.9016C22.85 51.5854 22.8262 51.2776 22.7836 50.9777C22.7632 50.8272 22.7342 50.6809 22.7077 50.5325C22.6859 50.3817 22.6593 50.2328 22.628 50.0858C22.5671 49.791 22.4807 49.5066 22.3871 49.2233C22.3046 48.9347 22.2032 48.653 22.0826 48.3776C20.7 48.8002 19.3928 49.453 18.2799 50.4053C17.7159 50.8842 17.231 51.4247 16.8067 52.0457C16.5948 52.3561 16.3994 52.6859 16.2223 53.0353C16.1313 53.2112 16.053 53.3882 15.9817 53.5692C15.9093 53.7507 15.8419 53.9369 15.7797 54.128C15.3909 55.2862 15.2792 56.5062 15.3958 57.7265C15.4305 58.0285 15.4776 58.3313 15.5364 58.634C15.5957 58.9363 15.6612 59.2417 15.7615 59.5313C15.8563 59.8242 15.9622 60.1155 16.0786 60.404C16.1368 60.5483 16.1976 60.6918 16.2608 60.8344C16.3234 60.9776 16.4011 61.1113 16.4743 61.2487C15.3964 59.6555 14.4419 57.9778 13.6131 56.2371C12.8046 54.4865 12.125 52.6767 11.5693 50.8274C12.6837 50.5057 13.7279 49.9284 14.6462 49.1823C14.8758 48.9957 15.0974 48.7985 15.31 48.5918C15.5218 48.3853 15.7249 48.1693 15.9306 47.941C16.3354 47.4862 16.7029 46.9966 17.0228 46.4783C17.1787 46.2181 17.3451 45.9501 17.4848 45.6846C17.6267 45.4185 17.7528 45.1522 17.8629 44.886C17.9187 44.7528 17.9677 44.6201 18.0176 44.4866C18.0717 44.3521 18.1218 44.2177 18.168 44.0834C18.2604 43.8148 18.3371 43.5466 18.3979 43.279C18.4293 43.1451 18.4528 43.012 18.4796 42.8777C18.5095 42.743 18.5356 42.6085 18.5577 42.4741C18.6019 42.2053 18.6304 41.9373 18.6433 41.6699C18.6496 41.4033 18.6676 41.1341 18.6639 40.8665C18.6606 40.5989 18.6417 40.332 18.6073 40.0658C17.4365 40.082 16.2745 40.3143 15.1989 40.8216C14.6632 41.0748 14.1402 41.3974 13.6648 41.792C13.1981 42.1858 12.7658 42.6529 12.3782 43.1957C12.0857 43.5949 11.8634 44.0157 11.6658 44.4579C11.5678 44.6788 11.4784 44.9048 11.3978 45.1349C11.3169 45.3652 11.2424 45.5999 11.1936 45.8352C11.0875 46.3072 11.0161 46.7925 10.9783 47.284C10.9543 47.5307 10.9638 47.7739 10.97 48.0199C10.9788 48.2655 10.9958 48.5116 11.0208 48.7574L10.755 47.602C10.6788 47.2141 10.6121 46.8244 10.54 46.4356C10.3819 45.6602 10.3 44.8725 10.1882 44.0893C10.1756 43.9912 10.1602 43.8934 10.1498 43.7951L10.1235 43.4995L10.0708 42.9082L10.018 42.3169C10.001 42.1198 9.97921 41.9229 9.97447 41.725L9.92245 40.5383C9.91513 40.3406 9.90184 40.1428 9.89948 39.9449L9.90022 39.3509C10.8975 39.3589 11.8969 39.1357 12.8313 38.729C13.0648 38.6273 13.2944 38.514 13.5186 38.3898C13.6308 38.3276 13.7417 38.2628 13.8511 38.1952C13.9633 38.1277 14.0755 38.0575 14.1855 37.9846C14.6265 37.6932 15.0449 37.3599 15.4313 36.9868C15.5281 36.8933 15.6217 36.7985 15.712 36.7024C15.802 36.605 15.8917 36.5079 15.9814 36.4108C16.1601 36.2143 16.326 36.0131 16.4793 35.8078C16.7878 35.3974 17.0305 34.9693 17.2691 34.5321C17.3831 34.3131 17.4842 34.0908 17.5725 33.8654C17.6628 33.6404 17.7296 33.4109 17.8107 33.1822C17.9614 32.7232 18.0605 32.2534 18.1081 31.7747C17.1318 31.5588 16.1202 31.5334 15.1288 31.753C14.6331 31.8626 14.1425 32.0334 13.6643 32.2703C13.4264 32.3889 13.1867 32.5233 12.9601 32.6761C12.7371 32.8295 12.5189 32.9999 12.3064 33.1878C11.9683 33.4868 11.6585 33.8181 11.3777 34.1757C11.1018 34.5338 10.8781 34.9208 10.6725 35.326C10.2492 36.1357 10.0283 37.0294 9.90812 37.9394C9.99208 35.0335 10.3652 32.1345 11.0123 29.2963C11.73 29.4722 12.4872 29.4807 13.2304 29.3355C13.603 29.2631 13.9674 29.1511 14.3301 29.0033C14.6988 28.857 15.0592 28.6733 15.4044 28.4521C15.75 28.2306 16.0632 27.9825 16.3425 27.7123C16.6358 27.4459 16.9005 27.1588 17.1283 26.8526C17.2426 26.6996 17.3483 26.542 17.4452 26.3802C17.4942 26.2995 17.5388 26.217 17.5853 26.1348C17.634 26.0532 17.6805 25.9708 17.7248 25.8873C17.9019 25.5535 18.044 25.2044 18.1501 24.8432C17.4656 24.563 16.7267 24.4247 15.971 24.4663C15.5931 24.487 15.2111 24.5526 14.83 24.667C14.4487 24.7813 14.0648 24.9432 13.7105 25.165C13.1308 25.5214 12.6111 25.9841 12.187 26.5247C11.7833 27.0712 11.4546 27.6895 11.2304 28.3432C11.8284 25.9767 12.6197 23.6592 13.5768 21.412C14.1526 21.6699 14.787 21.793 15.434 21.7814C15.7584 21.7759 16.0825 21.7351 16.4106 21.6628C16.7432 21.5928 17.0746 21.4889 17.3997 21.3501C17.7252 21.2111 18.0279 21.0439 18.306 20.8525C18.4426 20.7555 18.5819 20.6571 18.7153 20.5534C18.848 20.4492 18.9745 20.3396 19.0945 20.2247C19.3346 19.995 19.5488 19.7445 19.7357 19.4762C19.934 19.2146 20.1079 18.937 20.2516 18.6435C19.7124 18.3143 19.1059 18.0986 18.4598 18.0315C18.1368 17.998 17.804 18.0015 17.4651 18.0459C17.1255 18.0898 16.7958 18.184 16.4577 18.3182C16.1868 18.4273 15.9266 18.5611 15.6787 18.7163C15.4324 18.8722 15.1905 19.0454 14.9841 19.2474C14.5633 19.647 14.1966 20.1169 13.9095 20.6309C14.7209 18.8554 15.6316 17.1259 16.6437 15.4555C17.545 15.999 18.6969 16.1466 19.8277 15.8255C21.0055 15.5018 21.9536 14.7668 22.5916 13.8263C21.7531 13.1462 20.6197 12.8277 19.3964 13.1256C19.0149 13.2254 18.6496 13.3808 18.3075 13.5809C17.9654 13.7809 17.6429 14.0233 17.374 14.3144C17.4673 14.1711 17.5559 14.0246 17.6531 13.8839L17.9475 13.4636L18.5362 12.6229L18.6837 12.4129L18.8396 12.2091L19.1512 11.8014L19.7744 10.9858C20.4802 11.5445 21.448 11.7943 22.4518 11.6336C22.7097 11.5929 22.954 11.5241 23.1922 11.4386C23.4342 11.3565 23.6642 11.2523 23.88 11.1283C24.3125 10.8812 24.6814 10.5478 25.0085 10.1817C24.6829 9.85368 24.287 9.59587 23.8364 9.43593C23.3823 9.2722 22.8884 9.22136 22.3602 9.29443C22.0128 9.3423 21.6745 9.44154 21.353 9.5831C21.2728 9.61864 21.193 9.65626 21.1154 9.69731C21.0399 9.7401 20.9656 9.78547 20.8925 9.83313C20.7465 9.92849 20.6057 10.0333 20.4713 10.1463C20.6553 9.92775 20.8343 9.70472 21.0224 9.48966L21.5979 8.8543L22.1734 8.21872L22.7745 7.60743C23.2987 8.12344 24.0525 8.39943 24.8786 8.34159C25.3085 8.32047 25.7158 8.21515 26.084 8.04126C26.2687 7.95497 26.4412 7.84851 26.6069 7.73205C26.7758 7.61939 26.9332 7.49139 27.0774 7.34971C26.8377 7.06178 26.5356 6.82659 26.1829 6.66665C25.8313 6.50787 25.4226 6.41733 24.9953 6.44357C24.4155 6.47507 23.8457 6.67666 23.3637 7.00901C24.0666 6.34368 24.766 5.67272 25.5113 5.05393C25.9188 5.53796 26.5398 5.83026 27.2556 5.84094C27.6242 5.85295 27.9803 5.79106 28.3086 5.66779C28.6374 5.54502 28.9344 5.35507 29.2067 5.13881C28.8396 4.61943 28.2288 4.24816 27.4939 4.2318C26.969 4.21779 26.4407 4.36471 25.9915 4.64183C26.3268 4.3619 26.6758 4.09873 27.0174 3.82624C27.1897 3.69186 27.3594 3.55407 27.5338 3.42255L28.0656 3.0394C28.337 3.4224 28.7836 3.68022 29.3175 3.7243C29.4521 3.7354 29.5857 3.73224 29.7165 3.71608C29.8474 3.69999 29.9806 3.67855 30.107 3.64124C30.3609 3.56864 30.5983 3.44914 30.8071 3.29113C30.5576 2.88827 30.1294 2.60118 29.5793 2.54255C29.3757 2.52125 29.1694 2.53073 28.9712 2.57264C28.7759 2.61886 28.5861 2.69372 28.4087 2.79208L28.8627 2.46493C29.0155 2.35805 29.1735 2.25879 29.3287 2.15535L30.2638 1.54046L30.0628 1.21694L29.1128 1.82837C28.9552 1.93127 28.7946 2.03004 28.6393 2.13642L28.1778 2.4622C28.3304 2.32513 28.4659 2.16811 28.5786 1.99466C28.6943 1.82548 28.7898 1.64356 28.855 1.44591C29.0313 0.91467 28.9651 0.392022 28.705 -0.00381293C28.2055 0.281792 27.7835 0.72152 27.623 1.27753C27.4571 1.82067 27.5531 2.32841 27.8288 2.70861L27.288 3.09041C27.1105 3.22149 26.9378 3.35899 26.7625 3.49296C26.4148 3.76476 26.0597 4.02739 25.718 4.30687C26.0826 3.91793 26.3675 3.45403 26.4985 2.92182C26.6795 2.17406 26.5628 1.48929 26.1769 0.973524C25.8376 1.17668 25.5492 1.45898 25.3148 1.7733C25.0808 2.08827 24.9053 2.44072 24.8118 2.81289C24.6379 3.56096 24.8228 4.23729 25.2289 4.71838C24.4698 5.33646 23.7565 6.00727 23.0394 6.67314C23.3959 6.20254 23.655 5.65736 23.7524 5.05654C23.822 4.60934 23.8153 4.19792 23.7205 3.81668C23.6267 3.43665 23.451 3.09411 23.2036 2.81264C23.0171 2.95194 22.8415 3.10691 22.6805 3.27456C22.5229 3.44592 22.3846 3.63502 22.2616 3.83075C22.0169 4.22366 21.8447 4.65428 21.7709 5.09888C21.6423 5.98882 21.9198 6.75282 22.4378 7.27232L21.824 7.8846L21.2358 8.52153L20.6476 9.15861C20.4552 9.3742 20.2719 9.59793 20.0837 9.81724C20.1734 9.66362 20.2545 9.50464 20.3263 9.34085C20.3621 9.25896 20.3957 9.17598 20.4269 9.09181C20.46 9.00937 20.4919 8.92682 20.5205 8.84267C20.6358 8.50662 20.7108 8.15402 20.7392 7.79088C20.7823 7.23896 20.7126 6.7165 20.5617 6.26258C20.4069 5.80521 20.1553 5.40227 19.821 5.08298C19.3787 5.46319 19.0275 5.94412 18.7631 6.45581C18.6314 6.71203 18.5231 6.97765 18.4424 7.24836C18.3655 7.5224 18.3222 7.80667 18.3061 8.0887C18.246 9.19528 18.6694 10.0861 19.3704 10.6598L18.7317 11.4788L18.4123 11.8885L18.2527 12.0933L18.1012 12.3043L17.497 13.1494L17.1949 13.5721C17.0952 13.7136 17.0041 13.861 16.9082 14.0051C17.0559 13.6277 17.1855 13.2466 17.2658 12.8501C17.3459 12.4536 17.3803 12.044 17.3635 11.6286C17.3329 10.3428 16.8168 9.2528 15.9563 8.5925C15.0351 9.61798 14.4958 10.9931 14.5698 12.3159C14.6529 13.6145 15.27 14.5885 16.1575 15.1535C15.1367 16.8051 14.2087 18.5136 13.3818 20.2717C13.5877 19.7326 13.7209 19.1653 13.7739 18.5834C13.7956 18.2901 13.8213 18.0053 13.8131 17.7124C13.8077 17.4209 13.7809 17.1275 13.7314 16.8344C13.67 16.4604 13.5666 16.1011 13.4483 15.7727C13.3294 15.4439 13.1793 15.1371 13.0019 14.8565C12.647 14.2953 12.1826 13.8386 11.6348 13.5241C11.4074 13.8619 11.2044 14.2183 11.0352 14.588C10.8776 14.9641 10.7507 15.3517 10.6587 15.7432C10.6128 15.9389 10.5755 16.1356 10.5475 16.3323C10.5188 16.5287 10.4997 16.7253 10.4992 16.9252C10.4934 17.3227 10.5258 17.7162 10.6 18.0985C10.6739 18.4794 10.7854 18.8303 10.9295 19.1493C11.0779 19.4703 11.2641 19.7619 11.4725 20.0186C11.8907 20.5328 12.4118 20.9136 12.9916 21.1581C12.0066 23.41 11.1851 25.7356 10.5555 28.115C10.6919 27.4376 10.7388 26.7417 10.6847 26.0427C10.6516 25.3503 10.5302 24.6583 10.2943 23.9815C10.1423 23.5562 9.97679 23.1669 9.77656 22.8074C9.57611 22.4479 9.34433 22.1194 9.08614 21.8264C8.56965 21.2406 7.94756 20.7961 7.25591 20.5345C7.05645 20.9744 6.89086 21.4324 6.76325 21.8979C6.73134 22.0143 6.70182 22.1311 6.67473 22.2483C6.64971 22.3662 6.63119 22.4861 6.61292 22.6052C6.57736 22.8438 6.55178 23.0831 6.53654 23.3216C6.50652 23.7988 6.5156 24.2722 6.57354 24.7341C6.64525 25.2006 6.76079 25.6539 6.92257 26.0847C7.08408 26.5146 7.28356 26.9006 7.51452 27.2418C7.75141 27.5847 8.02659 27.8847 8.32012 28.1385C8.90941 28.6469 9.59091 28.9752 10.3118 29.1336C9.62521 32.0152 9.21645 34.9651 9.10284 37.9289C9.08679 36.9957 8.9148 36.0612 8.69248 35.1507C8.5752 34.6953 8.41295 34.2428 8.23941 33.8005C8.07111 33.3589 7.86891 32.9246 7.63228 32.5012C7.48385 32.2358 7.32569 31.9812 7.15877 31.7381C6.99541 31.4956 6.83162 31.266 6.65449 31.0474C6.30251 30.6106 5.91681 30.2212 5.50466 29.8848C4.68029 29.2124 3.75024 28.7518 2.76903 28.5621C2.60329 29.2225 2.48756 29.9 2.42535 30.5774C2.38844 30.9149 2.39177 31.2577 2.39825 31.5964C2.40677 31.9356 2.42885 32.2725 2.46486 32.6052C2.52622 33.2691 2.69 33.923 2.89546 34.5418C2.99922 34.8514 3.11699 35.1527 3.24892 35.4438C3.28192 35.5166 3.31556 35.5888 3.35055 35.6603L3.46542 35.8736C3.5437 36.0145 3.62541 36.1526 3.71063 36.2878C4.05061 36.8272 4.4284 37.2921 4.83465 37.684C4.93639 37.782 5.03921 37.8754 5.14499 37.9643C5.25346 38.0534 5.36346 38.138 5.47481 38.2182C5.69747 38.3784 5.92547 38.5208 6.15776 38.6458C7.08692 39.1462 8.08382 39.3677 9.08146 39.3532C9.0482 42.6881 9.45103 46.0229 10.2004 49.2745C10.0378 48.7699 9.8414 48.275 9.61138 47.7911C9.40283 47.303 9.16308 46.8254 8.88817 46.3611C8.81956 46.245 8.74885 46.1297 8.67603 46.0153L8.46544 45.6725C8.32218 45.4456 8.17036 45.2222 8.01012 45.0027C7.69206 44.5635 7.32646 44.1412 6.96637 43.7344C6.48865 43.2087 5.97763 42.7415 5.44353 42.3356C4.91798 41.9294 4.38259 41.5844 3.82201 41.3071C2.705 40.7527 1.52287 40.4669 0.353264 40.5144C0.345218 40.9262 0.352855 41.3396 0.376143 41.7518C0.399915 42.164 0.433086 42.5751 0.509262 42.982C0.578935 43.389 0.664098 43.792 0.764362 44.1883C0.814505 44.3864 0.868435 44.5828 0.926129 44.7773C0.986961 44.9715 1.05903 45.1634 1.13058 45.3531C1.27573 45.7325 1.4355 46.1024 1.60945 46.4603C1.69645 46.6392 1.78694 46.8152 1.88099 46.9878C1.97913 47.16 2.08572 47.3284 2.19287 47.4935C2.40854 47.8235 2.63755 48.139 2.87939 48.4377C3.1234 48.7361 3.36917 49.0194 3.65404 49.2797C4.20948 49.7997 4.78374 50.2186 5.3662 50.542C5.65408 50.7043 5.95697 50.8402 6.25937 50.9534C6.56123 51.0667 6.86325 51.1573 7.16431 51.2261C8.36897 51.5019 9.55794 51.4289 10.6736 51.0906C10.7054 51.2064 10.7347 51.3231 10.7687 51.4383L10.8784 51.7818L11.098 52.4687L11.3178 53.1556C11.3975 53.3824 11.4845 53.6066 11.5675 53.8322L11.8195 54.5082C11.9045 54.7331 11.9832 54.9607 12.0825 55.1799L12.6508 56.5065C13.4531 58.2561 14.3768 59.9499 15.422 61.5692C13.8218 59.7114 11.9376 58.0462 9.71376 56.7454C9.52008 56.6335 9.32529 56.5264 9.12961 56.424C8.93419 56.3242 8.74073 56.2255 8.5489 56.1276C8.16747 55.9368 7.78243 55.7653 7.39561 55.6133C6.62223 55.3093 5.83566 55.0847 5.08442 54.9358C3.56672 54.643 2.06207 54.6883 0.691462 55.1477C0.829301 55.6672 0.987172 56.1833 1.16386 56.6921C1.35246 57.1979 1.5729 57.6935 1.80365 58.1797C1.91988 58.4225 2.04042 58.6626 2.16516 58.8994C2.29489 59.1349 2.43667 59.3647 2.57804 59.5921C2.86287 60.0464 3.16343 60.4859 3.47787 60.907C4.79252 62.5727 6.37952 63.9226 8.15564 64.7356C8.59206 64.9383 9.02229 65.1069 9.44484 65.2429C9.65335 65.3125 9.87217 65.3671 10.0847 65.4161C10.2979 65.4647 10.5088 65.5056 10.7172 65.5389C11.5524 65.671 12.3423 65.6854 13.0975 65.5873C14.6244 65.3807 15.9533 64.7598 17.075 63.8722C18.6322 65.884 20.4107 67.7285 22.379 69.3474C24.3466 70.9669 26.5037 72.3593 28.7944 73.4828C28.0471 73.1471 27.2598 72.8901 26.4879 72.6029C26.2926 72.5355 26.0954 72.4713 25.8966 72.4102L25.5969 72.3207C25.496 72.2926 25.3956 72.2636 25.2984 72.2297C24.905 72.1011 24.5042 71.985 24.0961 71.8809C23.8923 71.8284 23.6855 71.7808 23.4791 71.733C23.2773 71.6785 23.0737 71.6271 22.8682 71.5788C22.4573 71.4821 22.0389 71.3978 21.6131 71.3254C21.3975 71.2928 21.1935 71.2465 20.9819 71.2106C20.7714 71.1731 20.5592 71.1387 20.3451 71.1075C19.9179 71.0443 19.48 70.9974 19.042 70.9563C18.5185 70.8957 17.9979 70.8561 17.4823 70.8368C16.9687 70.8158 16.4501 70.8243 15.9638 70.8295C14.9802 70.8504 14.022 70.9547 13.1102 71.1448C11.3123 71.5057 9.69381 72.2127 8.42777 73.3417C9.24581 74.4244 10.2225 75.4012 11.2497 76.2913C11.7805 76.7221 12.3254 77.1308 12.8797 77.5133C13.1527 77.7086 13.4466 77.8794 13.7365 78.049C14.0272 78.2178 14.3198 78.3796 14.6135 78.5342C14.9085 78.6873 15.1992 78.8394 15.5005 78.9724C15.8045 79.1023 16.1091 79.2248 16.4137 79.3393C16.7182 79.4538 17.0227 79.5604 17.3265 79.6588C17.4784 79.708 17.6302 79.7551 17.7817 79.8001C17.9347 79.8431 18.0913 79.8791 18.2455 79.9157C18.8642 80.0594 19.4779 80.1697 20.0818 80.2447C20.3813 80.2861 20.6879 80.3036 20.9911 80.3131C21.2938 80.3233 21.5936 80.3245 21.8898 80.3169C22.1861 80.3092 22.4751 80.2926 22.7568 80.2676C23.038 80.2433 23.3121 80.2103 23.5853 80.1567C24.1282 80.0562 24.6407 79.9246 25.1227 79.7647C25.6057 79.6024 26.0539 79.4217 26.4798 79.1979C26.9068 78.9719 27.3033 78.722 27.6701 78.451C29.1383 77.3667 30.1262 75.9472 30.7435 74.3684L31.2114 73.2193C31.8701 71.6588 32.1742 69.9379 32.2414 68.2359C32.2579 67.8105 32.2593 67.3864 32.2464 66.9665Z" fill="url(#paint0_linear_5080_20757)"/>
<defs>
<linearGradient id="paint0_linear_5080_20757" x1="36.4319" y1="3.14225" x2="6.9698" y2="75.5027" gradientUnits="userSpaceOnUse">
<stop stop-color="#9208FF"/>
<stop offset="1" stop-color="#B009FF"/>
</linearGradient>
</defs>
</svg>
