<svg width="20" height="20" viewBox="0 0 20 20" fill="none" xmlns="http://www.w3.org/2000/svg">
<g clip-path="url(#clip0_3490_11982)">
<path fill-rule="evenodd" clip-rule="evenodd" d="M14.5902 3.62575C13.3167 2.70915 11.7978 2.19492 10.2294 2.14932C8.66102 2.10372 7.11489 2.52884 5.79028 3.36991C4.46566 4.21097 3.42326 5.42944 2.7974 6.86829C2.17154 8.30714 1.9909 9.90045 2.27876 11.4429C2.32618 11.72 2.26278 12.0047 2.10224 12.2355C1.9417 12.4663 1.69687 12.6247 1.42056 12.6766C1.14426 12.7285 0.858614 12.6698 0.625237 12.513C0.391861 12.3563 0.229453 12.114 0.173042 11.8386C-0.199236 9.84626 0.0427739 7.78783 0.86699 5.93616C1.69121 4.08449 3.05871 2.52703 4.78822 1.47023C6.51773 0.413439 8.52757 -0.0927818 10.5513 0.0186731C12.5751 0.130128 14.5172 0.853995 16.1202 2.09432L16.9945 1.22004C17.0943 1.11997 17.2215 1.05176 17.3601 1.02405C17.4987 0.99634 17.6424 1.01037 17.773 1.06436C17.9037 1.11835 18.0153 1.20988 18.0939 1.32735C18.1725 1.44483 18.2144 1.58298 18.2145 1.72432V5.00004C18.2145 5.18948 18.1392 5.37116 18.0053 5.50511C17.8713 5.63907 17.6896 5.71432 17.5002 5.71432H14.2245C14.0834 5.71401 13.9456 5.67195 13.8285 5.59344C13.7113 5.51493 13.62 5.40349 13.566 5.27317C13.5121 5.14284 13.498 4.99947 13.5254 4.86112C13.5528 4.72277 13.6206 4.59564 13.7202 4.49575L14.5902 3.62575ZM18.5773 7.30718C18.8566 7.25452 19.1453 7.31494 19.38 7.47515C19.6147 7.63535 19.7761 7.88223 19.8288 8.16146C20.2013 10.154 19.9595 12.2128 19.1352 14.0648C18.311 15.9168 16.9433 17.4745 15.2135 18.5313C13.4837 19.5882 11.4735 20.0943 9.44946 19.9826C7.42542 19.8709 5.48315 19.1466 3.88019 17.9058L3.0059 18.7815C2.906 18.8816 2.77861 18.9499 2.63989 18.9775C2.50116 19.0052 2.35734 18.991 2.22667 18.9369C2.09599 18.8827 1.98434 18.791 1.90587 18.6733C1.8274 18.5556 1.78565 18.4172 1.7859 18.2758V15C1.7859 14.8106 1.86115 14.6289 1.99511 14.495C2.12906 14.361 2.31074 14.2858 2.50019 14.2858H5.7759C5.91736 14.2855 6.05571 14.3273 6.1734 14.4057C6.2911 14.4842 6.38285 14.5958 6.43702 14.7265C6.49119 14.8572 6.50534 15.001 6.47767 15.1397C6.45 15.2785 6.38177 15.4059 6.28161 15.5058L5.41019 16.3758C6.6837 17.2924 8.20252 17.8066 9.77093 17.8522C11.3393 17.8978 12.8855 17.4727 14.2101 16.6316C15.5347 15.7905 16.5771 14.5721 17.203 13.1332C17.8288 11.6944 18.0095 10.1011 17.7216 8.55861C17.6956 8.42014 17.6971 8.2779 17.7261 8.14003C17.7551 8.00215 17.811 7.87135 17.8906 7.75511C17.9702 7.63887 18.072 7.53947 18.1901 7.46261C18.3082 7.38575 18.4402 7.33293 18.5788 7.30718H18.5773ZM10.8959 5.22432C10.8959 4.94016 10.783 4.66764 10.5821 4.46671C10.3812 4.26577 10.1086 4.15289 9.82447 4.15289C9.54031 4.15289 9.26779 4.26577 9.06686 4.46671C8.86592 4.66764 8.75304 4.94016 8.75304 5.22432V5.71432C8.19453 5.80673 7.68569 6.0909 7.31406 6.51795C6.94244 6.945 6.73127 7.48822 6.71689 8.05414C6.70252 8.62006 6.88583 9.1733 7.23529 9.61867C7.58476 10.064 8.07851 10.3737 8.63161 10.4943L10.4316 10.8872C10.5384 10.9143 10.6317 10.9789 10.6946 11.0694C10.7574 11.1598 10.7855 11.2699 10.7737 11.3793C10.7619 11.4888 10.711 11.5904 10.6303 11.6653C10.5496 11.7402 10.4445 11.7835 10.3345 11.7872H9.31447C9.22058 11.7868 9.12908 11.7576 9.0524 11.7034C8.97572 11.6492 8.91759 11.5727 8.8859 11.4843C8.839 11.3516 8.76641 11.2294 8.67229 11.1247C8.57817 11.02 8.46435 10.9349 8.33733 10.8742C8.21031 10.8136 8.07259 10.7785 7.93201 10.771C7.79144 10.7636 7.65077 10.7838 7.51804 10.8307C7.38531 10.8777 7.26312 10.9502 7.15844 11.0444C7.05377 11.1385 6.96865 11.2523 6.90796 11.3793C6.84727 11.5063 6.8122 11.6441 6.80473 11.7846C6.79727 11.9252 6.81757 12.0659 6.86447 12.1986C7.01146 12.6144 7.26179 12.9859 7.59192 13.2783C7.92205 13.5707 8.32113 13.7743 8.75161 13.87V14.3872C8.75161 14.6713 8.8645 14.9439 9.06543 15.1448C9.26636 15.3457 9.53888 15.4586 9.82304 15.4586C10.1072 15.4586 10.3797 15.3457 10.5807 15.1448C10.7816 14.9439 10.8945 14.6713 10.8945 14.3872V13.87C11.4715 13.7407 11.9873 13.4185 12.3566 12.9566C12.7259 12.4947 12.9267 11.9207 12.9259 11.3293C12.925 10.7379 12.7226 10.1645 12.352 9.70364C11.9814 9.24278 11.4648 8.92203 10.8873 8.79432L9.08733 8.40004C9.01748 8.38428 8.95588 8.34337 8.91428 8.2851C8.87267 8.22684 8.85396 8.15529 8.86174 8.08412C8.86951 8.01294 8.90321 7.94712 8.95641 7.8992C9.00961 7.85128 9.07859 7.82463 9.15019 7.82432H10.333C10.4269 7.82468 10.5184 7.85394 10.5951 7.90813C10.6718 7.96231 10.7299 8.0388 10.7616 8.12718C10.8563 8.39524 11.0537 8.61469 11.3102 8.73726C11.4372 8.79795 11.5749 8.83302 11.7155 8.84049C11.8561 8.84795 11.9967 8.82765 12.1295 8.78075C12.2622 8.73385 12.3844 8.66127 12.4891 8.56714C12.5937 8.47302 12.6789 8.3592 12.7395 8.23218C12.8002 8.10516 12.8353 7.96744 12.8428 7.82686C12.8502 7.68629 12.8299 7.54562 12.783 7.41289C12.6359 6.99694 12.3854 6.62527 12.055 6.33286C11.7246 6.04046 11.3252 5.83694 10.8945 5.74146V5.22718L10.8959 5.22432Z" fill="#9DB2CE"/>
</g>
<defs>
<clipPath id="clip0_3490_11982">
<rect width="20" height="20" fill="white"/>
</clipPath>
</defs>
</svg>
