<svg width="15" height="15" viewBox="0 0 15 15" fill="none" xmlns="http://www.w3.org/2000/svg">
<path d="M8.17154 1.09863L13.9275 11.068C14.0153 11.22 14.0615 11.3924 14.0615 11.568C14.0615 11.7435 14.0153 11.9159 13.9275 12.068C13.8398 12.22 13.7135 12.3462 13.5615 12.434C13.4095 12.5218 13.2371 12.568 13.0615 12.568H1.54954C1.374 12.568 1.20156 12.5218 1.04954 12.434C0.897528 12.3462 0.771294 12.22 0.683529 12.068C0.595763 11.9159 0.549559 11.7435 0.549561 11.568C0.549562 11.3924 0.595768 11.22 0.683535 11.068L6.43954 1.09863C6.8242 0.431966 7.7862 0.431966 8.17154 1.09863ZM7.30554 8.99997C7.12872 8.99997 6.95916 9.0702 6.83413 9.19523C6.70911 9.32025 6.63887 9.48982 6.63887 9.66663C6.63887 9.84344 6.70911 10.013 6.83413 10.138C6.95916 10.2631 7.12872 10.3333 7.30554 10.3333C7.48235 10.3333 7.65192 10.2631 7.77694 10.138C7.90196 10.013 7.9722 9.84344 7.9722 9.66663C7.9722 9.48982 7.90196 9.32025 7.77694 9.19523C7.65192 9.0702 7.48235 8.99997 7.30554 8.99997ZM7.30554 4.3333C7.14225 4.33332 6.98464 4.39327 6.86262 4.50178C6.7406 4.61028 6.66264 4.7598 6.64354 4.92197L6.63887 4.99997V7.66663C6.63906 7.83655 6.70412 7.99999 6.82077 8.12355C6.93741 8.2471 7.09684 8.32146 7.26647 8.33141C7.43609 8.34137 7.60312 8.28618 7.73342 8.17712C7.86373 8.06806 7.94747 7.91336 7.96754 7.74463L7.9722 7.66663V4.99997C7.9722 4.82316 7.90196 4.65359 7.77694 4.52856C7.65192 4.40354 7.48235 4.3333 7.30554 4.3333Z" fill="black"/>
<path d="M8.17154 1.09863L13.9275 11.068C14.0153 11.22 14.0615 11.3924 14.0615 11.568C14.0615 11.7435 14.0153 11.9159 13.9275 12.068C13.8398 12.22 13.7135 12.3462 13.5615 12.434C13.4095 12.5218 13.2371 12.568 13.0615 12.568H1.54954C1.374 12.568 1.20156 12.5218 1.04954 12.434C0.897528 12.3462 0.771294 12.22 0.683529 12.068C0.595763 11.9159 0.549559 11.7435 0.549561 11.568C0.549562 11.3924 0.595768 11.22 0.683535 11.068L6.43954 1.09863C6.8242 0.431966 7.7862 0.431966 8.17154 1.09863ZM7.30554 8.99997C7.12872 8.99997 6.95916 9.0702 6.83413 9.19523C6.70911 9.32025 6.63887 9.48982 6.63887 9.66663C6.63887 9.84344 6.70911 10.013 6.83413 10.138C6.95916 10.2631 7.12872 10.3333 7.30554 10.3333C7.48235 10.3333 7.65192 10.2631 7.77694 10.138C7.90196 10.013 7.9722 9.84344 7.9722 9.66663C7.9722 9.48982 7.90196 9.32025 7.77694 9.19523C7.65192 9.0702 7.48235 8.99997 7.30554 8.99997ZM7.30554 4.3333C7.14225 4.33332 6.98464 4.39327 6.86262 4.50178C6.7406 4.61028 6.66264 4.7598 6.64354 4.92197L6.63887 4.99997V7.66663C6.63906 7.83655 6.70412 7.99999 6.82077 8.12355C6.93741 8.2471 7.09684 8.32146 7.26647 8.33141C7.43609 8.34137 7.60312 8.28618 7.73342 8.17712C7.86373 8.06806 7.94747 7.91336 7.96754 7.74463L7.9722 7.66663V4.99997C7.9722 4.82316 7.90196 4.65359 7.77694 4.52856C7.65192 4.40354 7.48235 4.3333 7.30554 4.3333Z" fill="url(#paint0_linear_128_9564)"/>
<defs>
<linearGradient id="paint0_linear_128_9564" x1="7.53777" y1="0.598633" x2="7.53777" y2="12.568" gradientUnits="userSpaceOnUse">
<stop stop-color="#F80C2B"/>
<stop offset="1" stop-color="#D6001C"/>
</linearGradient>
</defs>
</svg>
