<svg width="17" height="16" viewBox="0 0 17 16" fill="none" xmlns="http://www.w3.org/2000/svg">
<path d="M8.5 2.6665C4.86364 2.6665 1.75818 4.92832 0.5 8.12105C1.75818 11.3138 4.86364 13.5756 8.5 13.5756C12.1364 13.5756 15.2418 11.3138 16.5 8.12105C15.2418 4.92832 12.1364 2.6665 8.5 2.6665ZM8.5 11.7574C6.49273 11.7574 4.86364 10.1283 4.86364 8.12105C4.86364 6.11378 6.49273 4.48469 8.5 4.48469C10.5073 4.48469 12.1364 6.11378 12.1364 8.12105C12.1364 10.1283 10.5073 11.7574 8.5 11.7574ZM8.5 5.93923C7.29273 5.93923 6.31818 6.91378 6.31818 8.12105C6.31818 9.32832 7.29273 10.3029 8.5 10.3029C9.70727 10.3029 10.6818 9.32832 10.6818 8.12105C10.6818 6.91378 9.70727 5.93923 8.5 5.93923Z" fill="#4D4D4D"/>
</svg>
