<svg width="13" height="12" viewBox="0 0 13 12" fill="none" xmlns="http://www.w3.org/2000/svg">
<path fill-rule="evenodd" clip-rule="evenodd" d="M11.0779 2.55578C11.2185 2.69642 11.2975 2.88715 11.2975 3.08603C11.2975 3.2849 11.2185 3.47563 11.0779 3.61628L5.45644 9.23778C5.38216 9.31208 5.29396 9.37103 5.19688 9.41124C5.09981 9.45146 4.99577 9.47216 4.89069 9.47216C4.78562 9.47216 4.68158 9.45146 4.58451 9.41124C4.48743 9.37103 4.39923 9.31208 4.32494 9.23778L1.53194 6.44528C1.46031 6.37609 1.40318 6.29333 1.36387 6.20183C1.32456 6.11033 1.30387 6.01191 1.30301 5.91233C1.30214 5.81274 1.32112 5.71398 1.35883 5.62181C1.39654 5.52964 1.45223 5.4459 1.52265 5.37548C1.59307 5.30506 1.67681 5.24937 1.76898 5.21166C1.86115 5.17395 1.95991 5.15497 2.0595 5.15584C2.15908 5.1567 2.2575 5.17739 2.349 5.2167C2.4405 5.25601 2.52326 5.31314 2.59244 5.38478L4.89044 7.68278L10.0169 2.55578C10.0866 2.48608 10.1693 2.43079 10.2603 2.39307C10.3513 2.35535 10.4489 2.33594 10.5474 2.33594C10.646 2.33594 10.7435 2.35535 10.8346 2.39307C10.9256 2.43079 11.0083 2.48608 11.0779 2.55578Z" fill="black"/>
<path fill-rule="evenodd" clip-rule="evenodd" d="M11.0779 2.55578C11.2185 2.69642 11.2975 2.88715 11.2975 3.08603C11.2975 3.2849 11.2185 3.47563 11.0779 3.61628L5.45644 9.23778C5.38216 9.31208 5.29396 9.37103 5.19688 9.41124C5.09981 9.45146 4.99577 9.47216 4.89069 9.47216C4.78562 9.47216 4.68158 9.45146 4.58451 9.41124C4.48743 9.37103 4.39923 9.31208 4.32494 9.23778L1.53194 6.44528C1.46031 6.37609 1.40318 6.29333 1.36387 6.20183C1.32456 6.11033 1.30387 6.01191 1.30301 5.91233C1.30214 5.81274 1.32112 5.71398 1.35883 5.62181C1.39654 5.52964 1.45223 5.4459 1.52265 5.37548C1.59307 5.30506 1.67681 5.24937 1.76898 5.21166C1.86115 5.17395 1.95991 5.15497 2.0595 5.15584C2.15908 5.1567 2.2575 5.17739 2.349 5.2167C2.4405 5.25601 2.52326 5.31314 2.59244 5.38478L4.89044 7.68278L10.0169 2.55578C10.0866 2.48608 10.1693 2.43079 10.2603 2.39307C10.3513 2.35535 10.4489 2.33594 10.5474 2.33594C10.646 2.33594 10.7435 2.35535 10.8346 2.39307C10.9256 2.43079 11.0083 2.48608 11.0779 2.55578Z" fill="url(#paint0_linear_128_9571)"/>
<path fill-rule="evenodd" clip-rule="evenodd" d="M11.0779 2.55578C11.2185 2.69642 11.2975 2.88715 11.2975 3.08603C11.2975 3.2849 11.2185 3.47563 11.0779 3.61628L5.45644 9.23778C5.38216 9.31208 5.29396 9.37103 5.19688 9.41124C5.09981 9.45146 4.99577 9.47216 4.89069 9.47216C4.78562 9.47216 4.68158 9.45146 4.58451 9.41124C4.48743 9.37103 4.39923 9.31208 4.32494 9.23778L1.53194 6.44528C1.46031 6.37609 1.40318 6.29333 1.36387 6.20183C1.32456 6.11033 1.30387 6.01191 1.30301 5.91233C1.30214 5.81274 1.32112 5.71398 1.35883 5.62181C1.39654 5.52964 1.45223 5.4459 1.52265 5.37548C1.59307 5.30506 1.67681 5.24937 1.76898 5.21166C1.86115 5.17395 1.95991 5.15497 2.0595 5.15584C2.15908 5.1567 2.2575 5.17739 2.349 5.2167C2.4405 5.25601 2.52326 5.31314 2.59244 5.38478L4.89044 7.68278L10.0169 2.55578C10.0866 2.48608 10.1693 2.43079 10.2603 2.39307C10.3513 2.35535 10.4489 2.33594 10.5474 2.33594C10.646 2.33594 10.7435 2.35535 10.8346 2.39307C10.9256 2.43079 11.0083 2.48608 11.0779 2.55578Z" fill="url(#paint1_linear_128_9571)"/>
<defs>
<linearGradient id="paint0_linear_128_9571" x1="2.29781" y1="2.33594" x2="12.5716" y2="3.75142" gradientUnits="userSpaceOnUse">
<stop stop-color="#8E59FF"/>
<stop offset="1" stop-color="#B659FF"/>
</linearGradient>
<linearGradient id="paint1_linear_128_9571" x1="6.30026" y1="2.33594" x2="6.30026" y2="9.47216" gradientUnits="userSpaceOnUse">
<stop stop-color="#049AEF"/>
<stop offset="1" stop-color="#0862DC"/>
</linearGradient>
</defs>
</svg>
