<svg width="28" height="28" viewBox="0 0 28 28" fill="none" xmlns="http://www.w3.org/2000/svg">
<path d="M15.5152 3.67188L25.5882 21.1182C25.7418 21.3842 25.8227 21.686 25.8227 21.9932C25.8227 22.3004 25.7418 22.6022 25.5882 22.8682C25.4346 23.1342 25.2137 23.3551 24.9477 23.5087C24.6817 23.6623 24.3799 23.7432 24.0727 23.7432H3.92671C3.61953 23.7432 3.31776 23.6623 3.05173 23.5087C2.7857 23.3551 2.56479 23.1342 2.4112 22.8682C2.25761 22.6022 2.17676 22.3004 2.17676 21.9932C2.17676 21.686 2.25762 21.3842 2.41121 21.1182L12.4842 3.67188C13.1574 2.50521 14.8409 2.50521 15.5152 3.67188ZM13.9997 17.4992C13.6903 17.4992 13.3935 17.6221 13.1748 17.8409C12.956 18.0597 12.833 18.3565 12.833 18.6659C12.833 18.9753 12.956 19.272 13.1748 19.4908C13.3935 19.7096 13.6903 19.8325 13.9997 19.8325C14.3091 19.8325 14.6059 19.7096 14.8247 19.4908C15.0435 19.272 15.1664 18.9753 15.1664 18.6659C15.1664 18.3565 15.0435 18.0597 14.8247 17.8409C14.6059 17.6221 14.3091 17.4992 13.9997 17.4992ZM13.9997 9.33254C13.714 9.33258 13.4382 9.43749 13.2246 9.62738C13.0111 9.81726 12.8746 10.0789 12.8412 10.3627L12.833 10.4992V15.1659C12.8334 15.4632 12.9472 15.7492 13.1514 15.9655C13.3555 16.1817 13.6345 16.3118 13.9313 16.3292C14.2282 16.3467 14.5205 16.2501 14.7485 16.0592C14.9765 15.8684 15.1231 15.5977 15.1582 15.3024L15.1664 15.1659V10.4992C15.1664 10.1898 15.0435 9.89304 14.8247 9.67425C14.6059 9.45546 14.3091 9.33254 13.9997 9.33254Z" fill="black"/>
<path d="M15.5152 3.67188L25.5882 21.1182C25.7418 21.3842 25.8227 21.686 25.8227 21.9932C25.8227 22.3004 25.7418 22.6022 25.5882 22.8682C25.4346 23.1342 25.2137 23.3551 24.9477 23.5087C24.6817 23.6623 24.3799 23.7432 24.0727 23.7432H3.92671C3.61953 23.7432 3.31776 23.6623 3.05173 23.5087C2.7857 23.3551 2.56479 23.1342 2.4112 22.8682C2.25761 22.6022 2.17676 22.3004 2.17676 21.9932C2.17676 21.686 2.25762 21.3842 2.41121 21.1182L12.4842 3.67188C13.1574 2.50521 14.8409 2.50521 15.5152 3.67188ZM13.9997 17.4992C13.6903 17.4992 13.3935 17.6221 13.1748 17.8409C12.956 18.0597 12.833 18.3565 12.833 18.6659C12.833 18.9753 12.956 19.272 13.1748 19.4908C13.3935 19.7096 13.6903 19.8325 13.9997 19.8325C14.3091 19.8325 14.6059 19.7096 14.8247 19.4908C15.0435 19.272 15.1664 18.9753 15.1664 18.6659C15.1664 18.3565 15.0435 18.0597 14.8247 17.8409C14.6059 17.6221 14.3091 17.4992 13.9997 17.4992ZM13.9997 9.33254C13.714 9.33258 13.4382 9.43749 13.2246 9.62738C13.0111 9.81726 12.8746 10.0789 12.8412 10.3627L12.833 10.4992V15.1659C12.8334 15.4632 12.9472 15.7492 13.1514 15.9655C13.3555 16.1817 13.6345 16.3118 13.9313 16.3292C14.2282 16.3467 14.5205 16.2501 14.7485 16.0592C14.9765 15.8684 15.1231 15.5977 15.1582 15.3024L15.1664 15.1659V10.4992C15.1664 10.1898 15.0435 9.89304 14.8247 9.67425C14.6059 9.45546 14.3091 9.33254 13.9997 9.33254Z" fill="url(#paint0_linear_5080_20736)"/>
<defs>
<linearGradient id="paint0_linear_5080_20736" x1="14.4061" y1="2.79687" x2="14.4061" y2="23.7432" gradientUnits="userSpaceOnUse">
<stop stop-color="#F80C2B"/>
<stop offset="1" stop-color="#D6001C"/>
</linearGradient>
</defs>
</svg>
