<svg width="16" height="16" viewBox="0 0 16 16" fill="none" xmlns="http://www.w3.org/2000/svg">
<path fill-rule="evenodd" clip-rule="evenodd" d="M7.99994 9.41474L11.5353 12.9501C11.7229 13.1377 11.9773 13.2431 12.2426 13.2431C12.5079 13.2431 12.7623 13.1377 12.9499 12.9501C13.1375 12.7625 13.2429 12.508 13.2429 12.2427C13.2429 11.9774 13.1375 11.723 12.9499 11.5354L9.41327 8.00007L12.9493 4.46474C13.0421 4.37185 13.1158 4.26159 13.166 4.14024C13.2162 4.01889 13.2421 3.88884 13.242 3.7575C13.242 3.62617 13.2161 3.49613 13.1658 3.37481C13.1155 3.25348 13.0418 3.14325 12.9489 3.05041C12.8561 2.95756 12.7458 2.88392 12.6244 2.83369C12.5031 2.78346 12.373 2.75762 12.2417 2.75766C12.1104 2.75769 11.9803 2.78358 11.859 2.83387C11.7377 2.88416 11.6274 2.95785 11.5346 3.05074L7.99994 6.58607L4.46461 3.05074C4.3724 2.95519 4.2621 2.87895 4.14012 2.82649C4.01814 2.77402 3.88693 2.74638 3.75415 2.74516C3.62137 2.74394 3.48968 2.76918 3.36676 2.81941C3.24384 2.86963 3.13216 2.94383 3.03822 3.03768C2.94429 3.13153 2.86998 3.24314 2.81964 3.36601C2.7693 3.48889 2.74394 3.62055 2.74503 3.75333C2.74612 3.88611 2.77364 4.01734 2.82599 4.13937C2.87834 4.2614 2.95447 4.37178 3.04994 4.46407L6.58661 8.00007L3.05061 11.5361C2.95514 11.6284 2.87901 11.7387 2.82666 11.8608C2.77431 11.9828 2.74679 12.114 2.7457 12.2468C2.7446 12.3796 2.76997 12.5113 2.82031 12.6341C2.87065 12.757 2.94495 12.8686 3.03889 12.9625C3.13282 13.0563 3.24451 13.1305 3.36743 13.1807C3.49035 13.231 3.62204 13.2562 3.75482 13.255C3.8876 13.2538 4.0188 13.2261 4.14078 13.1737C4.26276 13.1212 4.37307 13.045 4.46527 12.9494L7.99994 9.41474Z" fill="white"/>
</svg>
