<svg width="25" height="24" viewBox="0 0 25 24" fill="none" xmlns="http://www.w3.org/2000/svg">
<g opacity="0.5">
<path d="M8.37381 7.27L12.2338 11.13L16.0738 7.29C16.1586 7.19972 16.2608 7.12749 16.3742 7.07766C16.4876 7.02783 16.6099 7.00141 16.7338 7C16.999 7 17.2534 7.10536 17.4409 7.29289C17.6284 7.48043 17.7338 7.73478 17.7338 8C17.7361 8.1226 17.7134 8.24439 17.667 8.35788C17.6205 8.47138 17.5514 8.57419 17.4638 8.66L13.5738 12.5L17.4638 16.39C17.6286 16.5512 17.7253 16.7696 17.7338 17C17.7338 17.2652 17.6284 17.5196 17.4409 17.7071C17.2534 17.8946 16.999 18 16.7338 18C16.6064 18.0053 16.4792 17.984 16.3604 17.9375C16.2416 17.8911 16.1338 17.8204 16.0438 17.73L12.2338 13.87L8.38381 17.72C8.29931 17.8073 8.19837 17.8769 8.08681 17.925C7.97524 17.9731 7.85527 17.9986 7.73381 18C7.46859 18 7.21423 17.8946 7.0267 17.7071C6.83916 17.5196 6.73381 17.2652 6.73381 17C6.73147 16.8774 6.75422 16.7556 6.80065 16.6421C6.84708 16.5286 6.91621 16.4258 7.00381 16.34L10.8938 12.5L7.00381 8.61C6.83899 8.44876 6.74234 8.23041 6.73381 8C6.73381 7.73478 6.83916 7.48043 7.0267 7.29289C7.21423 7.10536 7.46859 7 7.73381 7C7.97381 7.003 8.20381 7.1 8.37381 7.27Z" fill="white"/>
</g>
</svg>
