<svg width="24" height="24" viewBox="0 0 24 24" fill="none" xmlns="http://www.w3.org/2000/svg">
<path fill-rule="evenodd" clip-rule="evenodd" d="M7 6C7 5.46957 7.21071 4.96086 7.58579 4.58579C7.96086 4.21071 8.46957 4 9 4H20C20.5304 4 21.0391 4.21071 21.4142 4.58579C21.7893 4.96086 22 5.46957 22 6V13C22 13.5304 21.7893 14.0391 21.4142 14.4142C21.0391 14.7893 20.5304 15 20 15H18V11C18 10.2044 17.6839 9.44129 17.1213 8.87868C16.5587 8.31607 15.7956 8 15 8H7V6Z" fill="#55A949"/>
<path fill-rule="evenodd" clip-rule="evenodd" d="M2 11C2 10.4696 2.21071 9.96086 2.58579 9.58579C2.96086 9.21071 3.46957 9 4 9H15C15.5304 9 16.0391 9.21071 16.4142 9.58579C16.7893 9.96086 17 10.4696 17 11V18C17 18.5304 16.7893 19.0391 16.4142 19.4142C16.0391 19.7893 15.5304 20 15 20H4C3.46957 20 2.96086 19.7893 2.58579 19.4142C2.21071 19.0391 2 18.5304 2 18V11ZM9.5 12C8.83696 12 8.20107 12.2634 7.73223 12.7322C7.26339 13.2011 7 13.837 7 14.5C7 15.163 7.26339 15.7989 7.73223 16.2678C8.20107 16.7366 8.83696 17 9.5 17C10.163 17 10.7989 16.7366 11.2678 16.2678C11.7366 15.7989 12 15.163 12 14.5C12 13.837 11.7366 13.2011 11.2678 12.7322C10.7989 12.2634 10.163 12 9.5 12Z" fill="#55A949"/>
<path d="M10.5 14.5C10.5 14.7652 10.3946 15.0196 10.2071 15.2071C10.0196 15.3946 9.76522 15.5 9.5 15.5C9.23478 15.5 8.98043 15.3946 8.79289 15.2071C8.60536 15.0196 8.5 14.7652 8.5 14.5C8.5 14.2348 8.60536 13.9804 8.79289 13.7929C8.98043 13.6054 9.23478 13.5 9.5 13.5C9.76522 13.5 10.0196 13.6054 10.2071 13.7929C10.3946 13.9804 10.5 14.2348 10.5 14.5Z" fill="#55A949"/>
</svg>
