<svg width="46" height="8" viewBox="0 0 46 8" fill="none" xmlns="http://www.w3.org/2000/svg">
<path d="M7.06137 2.9696C7.03345 2.88171 6.97963 2.8043 6.90696 2.74752C6.83428 2.69075 6.74615 2.65726 6.65411 2.65145L4.99691 2.53664L4.38351 0.988066C4.35001 0.902798 4.29169 0.829547 4.2161 0.777797C4.1405 0.726047 4.05112 0.69818 3.95951 0.697805C3.8679 0.698134 3.77849 0.725956 3.70287 0.777668C3.62725 0.829381 3.5689 0.902602 3.53536 0.987854L2.91002 2.54449L1.26392 2.6501C1.17199 2.65624 1.08402 2.68982 1.01139 2.74651C0.938754 2.80319 0.884801 2.88037 0.856508 2.96805C0.827453 3.05708 0.825733 3.15277 0.851569 3.24278C0.877405 3.33279 0.929612 3.413 1.00146 3.47307L2.26783 4.54473L1.89081 6.0261C1.86473 6.12631 1.86939 6.23206 1.9042 6.32958C1.939 6.42711 2.00234 6.51192 2.08597 6.57298C2.16716 6.63128 2.26389 6.66402 2.36379 6.66703C2.46368 6.67004 2.56221 6.64317 2.64675 6.58986L3.95545 5.76157L3.96103 5.76157L5.36973 6.65192C5.44199 6.69891 5.52625 6.72411 5.61244 6.72452C5.68282 6.72398 5.75213 6.70732 5.81506 6.67581C5.87799 6.64429 5.93286 6.59877 5.97544 6.54274C6.01803 6.48671 6.0472 6.42166 6.06071 6.35259C6.07423 6.28352 6.07172 6.21227 6.0534 6.14432L5.65484 4.52326L6.91616 3.47455C6.98804 3.41452 7.04029 3.33434 7.06617 3.24434C7.09205 3.15434 7.09038 3.05865 7.06137 2.9696Z" fill="#9B50FC"/>
<path d="M16.5843 2.97205C16.5564 2.88415 16.5026 2.80674 16.4299 2.74997C16.3572 2.69319 16.2691 2.6597 16.1771 2.65389L14.5199 2.53909L13.9065 0.990508C13.873 0.905239 13.8146 0.831989 13.739 0.780238C13.6635 0.728488 13.5741 0.700622 13.4825 0.700246C13.3908 0.700576 13.3014 0.728397 13.2258 0.78011C13.1502 0.831822 13.0918 0.905044 13.0583 0.990295L12.433 2.54693L10.7869 2.65254C10.6949 2.65868 10.607 2.69227 10.5343 2.74895C10.4617 2.80563 10.4078 2.88281 10.3795 2.97049C10.3504 3.05952 10.3487 3.15521 10.3745 3.24522C10.4004 3.33523 10.4526 3.41544 10.5244 3.47551L11.7908 4.54717L11.4138 6.02854C11.3877 6.12875 11.3923 6.2345 11.4271 6.33203C11.462 6.42956 11.5253 6.51436 11.6089 6.57542C11.6901 6.63372 11.7868 6.66646 11.8867 6.66947C11.9866 6.67248 12.0852 6.64561 12.1697 6.5923L13.4784 5.76401L13.484 5.76401L14.8927 6.65436C14.9649 6.70135 15.0492 6.72655 15.1354 6.72696C15.2058 6.72643 15.2751 6.70976 15.338 6.67825C15.4009 6.64673 15.4558 6.60121 15.4984 6.54518C15.541 6.48915 15.5701 6.4241 15.5837 6.35503C15.5972 6.28596 15.5947 6.21471 15.5763 6.14676L15.1778 4.5257L16.4391 3.47699C16.511 3.41696 16.5632 3.33678 16.5891 3.24678C16.615 3.15678 16.6133 3.06109 16.5843 2.97205Z" fill="#9B50FC"/>
<path d="M26.1073 2.97449C26.0794 2.88659 26.0255 2.80918 25.9529 2.75241C25.8802 2.69563 25.792 2.66214 25.7 2.65633L24.0428 2.54153L23.4294 0.992949C23.3959 0.907681 23.3376 0.83443 23.262 0.78268C23.1864 0.73093 23.097 0.703063 23.0054 0.702688V0.702688C22.9138 0.703017 22.8244 0.730839 22.7488 0.782551C22.6732 0.834263 22.6148 0.907485 22.5813 0.992737L21.9559 2.54937L20.3098 2.65498C20.2179 2.66112 20.1299 2.69471 20.0573 2.75139C19.9847 2.80808 19.9307 2.88525 19.9024 2.97293C19.8734 3.06196 19.8716 3.15765 19.8975 3.24766C19.9233 3.33767 19.9755 3.41788 20.0474 3.47795L21.3137 4.54961L20.9367 6.03098C20.9106 6.1312 20.9153 6.23694 20.9501 6.33447C20.9849 6.432 21.0482 6.5168 21.1319 6.57786C21.2131 6.63616 21.3098 6.6689 21.4097 6.67191C21.5096 6.67492 21.6081 6.64805 21.6926 6.59474L23.0013 5.76645L23.0069 5.76645L24.4156 6.6568C24.4879 6.70379 24.5721 6.72899 24.6583 6.7294C24.7287 6.72887 24.798 6.7122 24.861 6.68069C24.9239 6.64918 24.9788 6.60365 25.0213 6.54762C25.0639 6.49159 25.0931 6.42654 25.1066 6.35747C25.1201 6.2884 25.1176 6.21715 25.0993 6.1492L24.7007 4.52814L25.9621 3.47943C26.0339 3.4194 26.0862 3.33922 26.1121 3.24922C26.1379 3.15922 26.1363 3.06353 26.1073 2.97449Z" fill="#9B50FC"/>
<path d="M35.6307 2.97669C35.6028 2.88879 35.549 2.81138 35.4763 2.7546C35.4036 2.69783 35.3155 2.66434 35.2234 2.65853L33.5662 2.54372L32.9528 0.995146C32.9193 0.909878 32.861 0.836627 32.7854 0.784877C32.7098 0.733127 32.6205 0.70526 32.5288 0.704885C32.4372 0.705214 32.3478 0.733036 32.2722 0.784748C32.1966 0.836461 32.1382 0.909682 32.1047 0.994934L31.4794 2.55157L29.8333 2.65718C29.7413 2.66332 29.6534 2.6969 29.5807 2.75359C29.5081 2.81027 29.4541 2.88745 29.4258 2.97513C29.3968 3.06416 29.3951 3.15985 29.4209 3.24986C29.4467 3.33987 29.4989 3.42008 29.5708 3.48015L30.8372 4.55181L30.4602 6.03318C30.4341 6.13339 30.4387 6.23914 30.4735 6.33666C30.5083 6.43419 30.5717 6.519 30.6553 6.58006C30.7365 6.63836 30.8332 6.6711 30.9331 6.67411C31.033 6.67712 31.1315 6.65025 31.2161 6.59694L32.5248 5.76865L32.5304 5.76865L33.9391 6.659C34.0113 6.70599 34.0956 6.73119 34.1818 6.7316C34.2522 6.73106 34.3215 6.7144 34.3844 6.68289C34.4473 6.65137 34.5022 6.60585 34.5448 6.54982C34.5874 6.49379 34.6165 6.42874 34.63 6.35967C34.6436 6.2906 34.6411 6.21935 34.6227 6.1514L34.2242 4.53034L35.4855 3.48163C35.5574 3.4216 35.6096 3.34142 35.6355 3.25142C35.6614 3.16142 35.6597 3.06573 35.6307 2.97669Z" fill="#9B50FC"/>
<path d="M45.1537 2.97913C45.1257 2.89123 45.0719 2.81382 44.9992 2.75705C44.9266 2.70027 44.8384 2.66678 44.7464 2.66097L43.0892 2.54617L42.4758 0.997588C42.4423 0.912319 42.384 0.839069 42.3084 0.787318C42.2328 0.735568 42.1434 0.707702 42.0518 0.707326C41.9602 0.707656 41.8708 0.735477 41.7952 0.78719C41.7195 0.838902 41.6612 0.912124 41.6276 0.997375L41.0023 2.55401L39.3562 2.65962C39.2643 2.66576 39.1763 2.69935 39.1037 2.75603C39.031 2.81271 38.9771 2.88989 38.9488 2.97757C38.9197 3.0666 38.918 3.16229 38.9439 3.2523C38.9697 3.34231 39.0219 3.42252 39.0937 3.48259L40.3601 4.55425L39.9831 6.03562C39.957 6.13583 39.9617 6.24158 39.9965 6.33911C40.0313 6.43664 40.0946 6.52144 40.1783 6.5825C40.2594 6.6408 40.3562 6.67354 40.4561 6.67655C40.556 6.67956 40.6545 6.65269 40.739 6.59938L42.0477 5.77109L42.0533 5.77109L43.462 6.66144C43.5343 6.70843 43.6185 6.73363 43.7047 6.73404C43.7751 6.73351 43.8444 6.71684 43.9073 6.68533C43.9703 6.65381 44.0251 6.60829 44.0677 6.55226C44.1103 6.49623 44.1395 6.43118 44.153 6.36211C44.1665 6.29304 44.164 6.22179 44.1457 6.15384L43.7471 4.53278L45.0084 3.48407C45.0803 3.42404 45.1326 3.34386 45.1585 3.25386C45.1843 3.16386 45.1827 3.06817 45.1537 2.97913Z" fill="#9B50FC"/>
</svg>
