<svg width="33" height="81" viewBox="0 0 33 81" fill="none" xmlns="http://www.w3.org/2000/svg">
<path d="M27.4973 29.8859C27.0851 30.2223 26.6994 30.6117 26.3473 31.0485C26.1702 31.267 26.0064 31.4966 25.843 31.7391C25.676 31.9822 25.5178 32.2367 25.3694 32.5022C25.1333 32.9245 24.9315 33.3577 24.7634 33.7982C24.5903 34.2393 24.4281 34.6906 24.3108 35.1449C24.0883 36.053 23.9166 36.985 23.8988 37.916C23.7849 34.9568 23.3766 32.0115 22.6913 29.1343C23.4132 28.9765 24.0957 28.6484 24.6859 28.1398C24.9798 27.8859 25.2554 27.5857 25.4927 27.2425C25.724 26.901 25.9238 26.5146 26.0855 26.0842C26.2473 25.6534 26.3629 25.2001 26.4346 24.7335C26.4926 24.2716 26.5017 23.7981 26.4717 23.3209C26.4565 23.0823 26.4309 22.8431 26.3954 22.6044C26.3771 22.4853 26.3586 22.3654 26.3336 22.2474C26.3065 22.1302 26.277 22.0134 26.2451 21.897C26.1175 21.4315 25.9519 20.9735 25.7525 20.5334C25.0608 20.795 24.4386 21.2395 23.9221 21.8254C23.6639 22.1183 23.4321 22.4468 23.2316 22.8063C23.0313 23.1659 22.8658 23.5551 22.7137 23.9805C22.4743 24.6663 22.354 25.3673 22.3208 26.0695C22.2673 26.778 22.3219 27.4818 22.4604 28.1684C21.8298 25.7706 21.0042 23.4272 20.0121 21.1586C20.594 20.9149 21.1172 20.5342 21.537 20.0193C21.7461 19.7622 21.933 19.4701 22.0821 19.1483C22.2267 18.8286 22.3386 18.4769 22.4127 18.0949C22.4868 17.7125 22.5193 17.319 22.5135 16.9214C22.513 16.7214 22.4939 16.5249 22.4652 16.3284C22.4372 16.1317 22.4 15.935 22.354 15.7392C22.2619 15.3476 22.1351 14.9599 21.9775 14.5838C21.8082 14.214 21.6052 13.8575 21.3778 13.5196C20.83 13.8341 20.3655 14.2909 20.0106 14.852C19.8332 15.1327 19.6832 15.4395 19.5641 15.7683C19.446 16.0967 19.3426 16.456 19.2811 16.8301C19.23 17.1325 19.2031 17.4351 19.1988 17.7357C19.1931 18.037 19.2182 18.3323 19.2434 18.6342C19.302 19.2339 19.4496 19.8159 19.6673 20.3703C18.8275 18.5784 17.8879 16.8351 16.8466 15.1536C17.7341 14.5887 18.3514 13.6147 18.4345 12.3161C18.5086 10.9934 17.9694 9.61815 17.0483 8.59262C16.1878 9.25292 15.6715 10.343 15.6409 11.6286C15.624 12.0441 15.6584 12.4537 15.7384 12.8502C15.8187 13.2467 15.9483 13.6279 16.0959 14.0052C16.0001 13.8611 15.9089 13.7137 15.8092 13.5721L15.5071 13.1495L14.903 12.3043L14.7516 12.0933L14.5919 11.8885L14.2726 11.4788L13.634 10.6597C14.335 10.0861 14.7584 9.19535 14.6985 8.08874C14.6824 7.80672 14.6391 7.52244 14.5623 7.24837C14.4816 6.97767 14.3733 6.71205 14.2416 6.45582C13.9772 5.94411 13.626 5.46315 13.1838 5.08292C12.8495 5.40217 12.5978 5.8051 12.443 6.26246C12.2921 6.71632 12.2224 7.23882 12.2654 7.79075C12.2938 8.1539 12.3688 8.5065 12.484 8.84258C12.5127 8.92672 12.5444 9.00928 12.5776 9.09173C12.6087 9.17582 12.6423 9.25889 12.6782 9.34076C12.75 9.5045 12.8311 9.66353 12.9208 9.81716C12.7325 9.59785 12.5492 9.37412 12.3569 9.15849L11.7687 8.52132L11.1805 7.88443L10.5668 7.27206C11.0849 6.75264 11.3623 5.98865 11.2338 5.0987C11.1602 4.65408 10.9879 4.22346 10.7432 3.83053C10.6203 3.63478 10.482 3.44569 10.3243 3.27431C10.1633 3.10665 9.98774 2.95168 9.80127 2.81236C9.55392 3.09374 9.37812 3.43635 9.28434 3.8163C9.1895 4.19759 9.18273 4.60898 9.25234 5.05624C9.3496 5.65707 9.60867 6.20226 9.96529 6.67297C9.24818 6.007 8.53484 5.33617 7.77582 4.71799C8.18192 4.23685 8.36682 3.56055 8.19298 2.81247C8.09955 2.44034 7.92407 2.08788 7.69014 1.77289C7.45578 1.45856 7.1674 1.17622 6.82814 0.972984C6.44221 1.48879 6.3254 2.1735 6.50635 2.92132C6.63729 3.45354 6.92206 3.91743 7.28666 4.30644C6.9451 4.02692 6.58994 3.76422 6.2423 3.49245C6.06697 3.35841 5.89423 3.22098 5.71683 3.08986L5.17608 2.70803C5.45164 2.32794 5.54777 1.82013 5.38192 1.27698C5.22144 0.720905 4.7995 0.281202 4.30004 -0.00445612C4.03988 0.391386 3.9736 0.914031 4.14984 1.44529C4.21504 1.64287 4.31059 1.82485 4.42627 1.99403C4.53899 2.16755 4.67444 2.32457 4.82709 2.46165L4.36555 2.13584C4.2102 2.02942 4.04967 1.93069 3.892 1.82773L2.94207 1.21624L2.74105 1.53973L3.67605 2.15467C3.83124 2.25815 3.98922 2.35736 4.14206 2.46425L4.59596 2.79145C4.41857 2.69309 4.22889 2.61819 4.03358 2.57201C3.83536 2.53009 3.62906 2.5206 3.42553 2.54187C2.87533 2.60048 2.44703 2.88762 2.19764 3.29037C2.40642 3.4484 2.64376 3.56793 2.89772 3.64052C3.02406 3.67779 3.15725 3.69926 3.28814 3.71541C3.41898 3.73158 3.55254 3.73475 3.68721 3.72366C4.22108 3.67961 4.66765 3.42189 4.93919 3.03883L5.47094 3.422C5.64531 3.55349 5.81503 3.69135 5.98732 3.82571C6.32891 4.09823 6.67784 4.36143 7.01327 4.64137C6.56394 4.36419 6.03567 4.21729 5.5108 4.23124C4.77587 4.24759 4.16504 4.61879 3.79787 5.13818C4.07013 5.35446 4.3671 5.54442 4.69586 5.66716C5.02421 5.7905 5.38034 5.85242 5.74897 5.84043C6.46479 5.82977 7.08587 5.53751 7.49343 5.05351C8.23858 5.67231 8.93789 6.34326 9.64079 7.00859C9.15883 6.67636 8.58902 6.47473 8.00922 6.4432C7.58195 6.41693 7.17326 6.50742 6.82167 6.66619C6.46888 6.82605 6.16673 7.0613 5.927 7.34921C6.07118 7.49091 6.22865 7.61891 6.39755 7.73159C6.56316 7.84806 6.73572 7.95453 6.92049 8.04081C7.28869 8.21473 7.69585 8.32009 8.12575 8.34124C8.95201 8.3991 9.70577 8.12318 10.23 7.6072L10.8311 8.21853L11.4066 8.85414L11.982 9.48955C12.1701 9.70456 12.3491 9.92766 12.533 10.1463C12.3986 10.0332 12.2579 9.9284 12.1119 9.83302C12.0389 9.78533 11.9645 9.73998 11.8889 9.69719C11.8115 9.65611 11.7317 9.61848 11.6514 9.58294C11.3299 9.44136 10.9916 9.34213 10.6442 9.29416C10.116 9.22113 9.62209 9.27192 9.16793 9.43557C8.71739 9.59548 8.32141 9.85334 7.99576 10.1813C8.32283 10.5475 8.69172 10.8809 9.12419 11.128C9.34009 11.252 9.57003 11.3562 9.81198 11.4384C10.0502 11.5239 10.2945 11.5927 10.5525 11.6334C11.5562 11.7942 12.5241 11.5444 13.2299 10.9857L13.8531 11.8014L14.1647 12.2091L14.3205 12.413L14.468 12.623L15.0567 13.4637L15.351 13.884C15.4482 14.0247 15.5368 14.1713 15.6301 14.3146C15.3612 14.0235 15.0388 13.781 14.6966 13.581C14.3546 13.3808 13.9893 13.2254 13.6077 13.1255C12.3844 12.8277 11.2511 13.146 10.4124 13.8261C11.0504 14.7666 11.9984 15.5018 13.1762 15.8255C14.307 16.1467 15.4589 15.9992 16.3603 15.4557C17.3523 17.0966 18.2516 18.7917 19.0505 20.534C18.7595 20.0422 18.4015 19.5906 17.9893 19.2075C17.788 19.0134 17.5491 18.8487 17.3109 18.698C17.07 18.5487 16.8174 18.4196 16.5546 18.3138C16.2164 18.1794 15.8868 18.0853 15.5471 18.0412C15.2082 17.9968 14.8753 17.9932 14.5523 18.0267C13.9062 18.0937 13.2996 18.3093 12.7604 18.6385C12.9041 18.9321 13.0781 19.2098 13.2764 19.4715C13.4633 19.7399 13.6774 19.9904 13.9175 20.2202C14.0376 20.3351 14.1641 20.4448 14.2969 20.5489C14.4303 20.6528 14.5696 20.7512 14.7062 20.8482C14.9843 21.0398 15.287 21.207 15.6125 21.3461C15.9368 21.4846 16.2675 21.5883 16.5991 21.6585C16.9266 21.7306 17.2497 21.7717 17.5734 21.7776C18.2189 21.7899 18.8518 21.6681 19.4267 21.4122C20.3767 23.6431 21.1638 25.9431 21.7609 28.2917C21.5303 27.6492 21.2061 27.0403 20.8047 26.5028C20.3822 25.9715 19.87 25.5155 19.2974 25.1638C18.9432 24.9419 18.5593 24.78 18.1779 24.6656C17.7967 24.5512 17.4147 24.4856 17.0369 24.4648C16.2811 24.4232 15.5422 24.5613 14.8576 24.8415C14.9637 25.2028 15.1058 25.5519 15.2829 25.8858C15.3272 25.9692 15.3737 26.0518 15.4224 26.1333C15.4689 26.2155 15.5135 26.298 15.5625 26.3788C15.6594 26.5406 15.7651 26.6982 15.8793 26.8513C16.1073 27.1575 16.3719 27.4446 16.6652 27.7111C16.9445 27.9814 17.2576 28.2295 17.6032 28.451C17.9481 28.6722 18.3081 28.8557 18.6764 29.002C19.0387 29.1496 19.4026 29.2617 19.7749 29.3342C20.5172 29.4797 21.2737 29.4717 21.9908 29.2968C22.6387 32.1395 23.0118 35.0431 23.0949 37.9535C22.9754 37.0411 22.7558 36.1447 22.332 35.3327C22.1262 34.9263 21.9019 34.5382 21.6259 34.179C21.3445 33.8204 21.034 33.4882 20.6952 33.1885C20.4827 33.0006 20.2644 32.8301 20.0415 32.6768C19.8149 32.524 19.5751 32.3895 19.3372 32.2709C18.8591 32.034 18.3684 31.8632 17.8728 31.7535C16.8813 31.534 15.8697 31.5593 14.8934 31.7751C14.941 32.2538 15.0401 32.7236 15.1906 33.1825C15.2718 33.4112 15.3386 33.6407 15.4288 33.8658C15.5171 34.0911 15.6182 34.3135 15.7322 34.5325C15.9708 34.9697 16.2134 35.3977 16.522 35.8082C16.6751 36.0135 16.8411 36.2147 17.0198 36.4112C17.1094 36.5083 17.1992 36.6055 17.2891 36.7028C17.3795 36.7989 17.4731 36.8937 17.5699 36.9872C17.9563 37.3604 18.3747 37.6937 18.8158 37.9853C18.9259 38.0581 19.0381 38.1284 19.1503 38.1959C19.2597 38.2635 19.3706 38.3283 19.4828 38.3905C19.7071 38.5148 19.9367 38.628 20.1703 38.7298C21.1049 39.1365 22.1045 39.3597 23.1021 39.3515C23.1031 42.6239 22.675 45.8868 21.9116 49.0585C21.9785 48.5425 22.01 48.0233 22.0043 47.5095C21.9772 46.9913 21.9104 46.4779 21.8068 45.9789C21.7808 45.8541 21.7524 45.7302 21.7216 45.6073C21.6894 45.4842 21.6478 45.3609 21.6078 45.2393C21.5257 44.996 21.4341 44.757 21.3329 44.5236C21.128 44.0564 20.898 43.6127 20.59 43.1929C20.2023 42.6505 19.7701 42.1837 19.3034 41.7902C18.828 41.3959 18.305 41.0735 17.7693 40.8205C16.6937 40.3135 15.5317 40.0814 14.3608 40.0651C14.3264 40.331 14.3075 40.5976 14.3042 40.8651C14.3005 41.1324 14.3185 41.4013 14.3248 41.6676C14.3377 41.9347 14.3662 42.2026 14.4105 42.471C14.4326 42.6053 14.4586 42.7397 14.4885 42.8743C14.5154 43.0084 14.5388 43.1414 14.5702 43.2752C14.631 43.5425 14.7077 43.8105 14.8001 44.0788C14.8464 44.2129 14.8965 44.3472 14.9505 44.4816C15.0005 44.615 15.0496 44.7475 15.1053 44.8806C15.2154 45.1466 15.3416 45.4127 15.4834 45.6786C15.6232 45.9438 15.7896 46.2116 15.9455 46.4717C16.2671 46.9921 16.6367 47.4835 17.0439 47.94C17.2508 48.1691 17.4545 48.3857 17.6678 48.5929C17.8818 48.8003 18.1048 48.998 18.3358 49.1851C19.2599 49.9329 20.3107 50.5102 21.4318 50.8285C21.3996 50.9414 21.37 51.055 21.3358 51.1673L21.2252 51.5016L21.0041 52.1701L20.7832 52.8386C20.7032 53.059 20.6161 53.277 20.5329 53.4962L20.2807 54.1531C20.1957 54.3717 20.117 54.5929 20.0179 54.8056L19.4514 56.093C18.6529 57.7895 17.738 59.4281 16.7078 60.9908C16.9621 60.4498 17.1708 59.889 17.3427 59.3269C17.4967 58.7539 17.5952 58.168 17.6558 57.5911C17.6629 57.5188 17.6703 57.447 17.6752 57.3744L17.6818 57.1534C17.6848 57.0063 17.6848 56.8597 17.682 56.7135C17.6763 56.4213 17.659 56.1312 17.6296 55.8443C17.6149 55.7008 17.5971 55.5581 17.5763 55.4164C17.5509 55.2724 17.5207 55.1284 17.4885 54.9859C17.4236 54.7008 17.3465 54.4197 17.2568 54.1437C17.1947 53.9525 17.1274 53.7661 17.055 53.5845C16.9838 53.4034 16.9056 53.2261 16.8147 53.0502C16.6377 52.7005 16.4424 52.3704 16.2306 52.0598C15.8065 51.4383 15.3217 50.8974 14.758 50.4181C13.6452 49.4651 12.3381 48.8119 10.9556 48.3892C10.8348 48.6651 10.7332 48.9472 10.6506 49.2362C10.5569 49.5198 10.4703 49.8046 10.4091 50.0998C10.3778 50.247 10.3512 50.3961 10.3292 50.5471C10.3026 50.6957 10.2735 50.8421 10.2531 50.9928C10.2103 51.2931 10.1863 51.6013 10.1805 51.9179C10.106 53.1519 10.2802 54.5 10.6376 55.9171C10.7285 56.2689 10.8346 56.6203 10.9546 56.9697C11.0149 57.1425 11.0747 57.3138 11.134 57.4837C11.1954 57.6531 11.2604 57.8219 11.3286 57.99C11.6007 58.6611 11.9318 59.3245 12.3013 59.951C13.0264 61.1916 13.9549 62.3287 15.0817 63.2096C13.5527 65.1454 11.8142 66.9125 9.89812 68.4571C7.98275 70.0024 5.89008 71.3238 3.67307 72.3843C4.35317 71.979 5.01722 71.552 5.58805 71.0071C5.73324 70.8753 5.87528 70.7411 6.01403 70.6048L6.2196 70.3988C6.28782 70.3304 6.35416 70.2599 6.41609 70.1833C6.66818 69.8837 6.90588 69.5764 7.12743 69.2627C7.23791 69.1055 7.34554 68.9485 7.44663 68.7868C7.54311 68.6185 7.63532 68.4488 7.72309 68.278C7.89869 67.9364 8.05642 67.5903 8.19481 67.241C8.26676 67.07 8.32067 66.8811 8.37542 66.6991C8.42892 66.5155 8.47753 66.3314 8.521 66.147C8.60718 65.7772 8.67623 65.4099 8.71766 65.0353C8.75878 64.568 8.76743 64.1128 8.74559 63.6705C8.7219 63.2262 8.67689 62.805 8.58063 62.3717C8.39845 61.5161 8.10655 60.7179 7.72529 59.9753C6.94106 58.466 5.80188 57.1845 4.50912 56.0923C4.07881 56.5177 3.66888 56.943 3.33354 57.4489C3.15164 57.6844 2.98725 57.9388 2.83871 58.2134C2.76788 58.3554 2.68557 58.4817 2.61202 58.6196C2.53769 58.7566 2.46718 58.8987 2.40039 59.046C2.33238 59.1917 2.27286 59.3495 2.20801 59.5001C2.14087 59.6475 2.07723 59.8002 2.01701 59.9582C1.95673 60.1163 1.8998 60.2798 1.84597 60.4486L1.76762 60.7059L1.68472 60.9574C1.57606 61.2961 1.47978 61.6567 1.39462 62.0389C1.35446 62.234 1.30785 62.4192 1.26456 62.6105C1.22165 62.8026 1.18162 63 1.14437 63.2028C1.10716 63.4055 1.0731 63.611 1.04223 63.8189C1.01219 64.0275 0.982494 64.2341 0.952983 64.4389C0.894195 64.8467 0.848371 65.2636 0.815379 65.6866C0.781285 66.1074 0.764871 66.5438 0.753079 66.9659C0.740211 67.3858 0.74151 67.8099 0.757996 68.2354C0.825063 69.9373 1.1291 71.6583 1.78768 73.2188L2.25544 74.3679C2.87264 75.9468 3.86043 77.3664 5.32865 78.4507C5.6954 78.7218 6.09185 78.9717 6.51883 79.1977C6.94478 79.4216 7.39291 79.6023 7.87599 79.7646C8.35798 79.9245 8.8705 80.0562 9.41339 80.1567C9.68662 80.2103 9.96065 80.2434 10.2419 80.2676C10.5236 80.2927 10.8126 80.3093 11.1089 80.317C11.4051 80.3247 11.705 80.3234 12.0077 80.3133C12.3109 80.3038 12.6175 80.2863 12.9169 80.2449C13.5209 80.17 14.1346 80.0597 14.7533 79.916C14.9075 79.8794 15.0641 79.8435 15.2171 79.8005C15.3687 79.7555 15.5204 79.7084 15.6723 79.6592C15.9762 79.5608 16.2807 79.4543 16.5852 79.3397C16.8898 79.2253 17.1944 79.1028 17.4984 78.9728C17.7998 78.8399 18.0905 78.6878 18.3855 78.5348C18.6793 78.3802 18.9719 78.2184 19.2626 78.0496C19.5525 77.88 19.8464 77.7092 20.1194 77.5139C20.6738 77.1315 21.2187 76.7229 21.7495 76.2921C22.7769 75.402 23.7537 74.4253 24.5718 73.3426C23.3058 72.2135 21.6873 71.5064 19.8895 71.1454C18.9776 70.9552 18.0194 70.8509 17.0358 70.8299C16.5495 70.8247 16.0309 70.8162 15.5172 70.8372C15.0016 70.8565 14.481 70.896 13.9575 70.9565C13.5195 70.9976 13.0816 71.0445 12.6543 71.1077C12.4403 71.1389 12.228 71.1732 12.0176 71.2107C11.8059 71.2466 11.602 71.2929 11.3863 71.3256C10.9606 71.3978 10.5421 71.4822 10.1311 71.5788C9.92565 71.6271 9.72203 71.6785 9.52028 71.733C9.31387 71.7808 9.10699 71.8284 8.90321 71.8809C8.49507 71.9849 8.09432 72.101 7.70095 72.2296C7.60364 72.2635 7.50328 72.2924 7.40241 72.3206L7.10269 72.41C6.90378 72.4712 6.70665 72.5353 6.51127 72.6027C5.73944 72.8899 4.95208 73.1468 4.20471 73.4825C6.4955 72.3591 8.65288 70.9668 10.6205 69.3474C12.589 67.7286 14.3677 65.8843 15.9251 63.8727C17.0481 64.7691 18.3804 65.3976 19.913 65.6082C20.6717 65.709 21.4644 65.6954 22.3035 65.5634C22.5129 65.5301 22.7248 65.4893 22.9389 65.4405C23.1523 65.3913 23.3725 65.3367 23.582 65.2669C24.0066 65.1302 24.439 64.9608 24.8776 64.757C26.6545 63.9428 28.2425 62.5917 29.558 60.9244C29.8726 60.503 30.1734 60.0632 30.4584 59.6085C30.5999 59.3809 30.7418 59.1509 30.8716 58.9153C30.9964 58.6783 31.1171 58.438 31.2334 58.195C31.4644 57.7084 31.6849 57.2125 31.8737 56.7062C32.0506 56.1971 32.2087 55.6806 32.3467 55.1607C30.9761 54.7012 29.4713 54.6561 27.9533 54.9494C27.2019 55.0986 26.4152 55.3235 25.6416 55.6279C25.2547 55.7802 24.8695 55.9519 24.488 56.1429C24.2961 56.2409 24.1026 56.3398 23.907 56.4396C23.7113 56.5422 23.5165 56.6495 23.3227 56.7615C22.168 57.4429 21.0836 58.2189 20.1045 59.0752C19.854 59.2865 19.6118 59.5039 19.3781 59.7274C19.1439 59.9507 18.9238 60.1833 18.6882 60.4081C18.4583 60.6361 18.2368 60.8701 18.0238 61.1101C17.9173 61.2301 17.8129 61.3516 17.7106 61.4747C17.6091 61.5981 17.4969 61.7148 17.3939 61.8375C18.4884 60.1861 19.4527 58.4515 20.2861 56.6562C21.0989 54.8513 21.7775 52.9893 22.3279 51.0908C23.4395 51.4224 24.6232 51.4907 25.822 51.2137C26.1216 51.1445 26.4221 51.0539 26.7225 50.9406C27.0236 50.8275 27.3244 50.6918 27.6109 50.53C28.1904 50.2078 28.7617 49.7909 29.3144 49.2739C29.5993 49.0138 29.845 48.7308 30.0891 48.4326C30.3308 48.1341 30.5598 47.8188 30.7755 47.4891C30.8827 47.3241 30.9892 47.1559 31.0874 46.9838C31.1814 46.8113 31.2719 46.6355 31.3589 46.4567C31.5329 46.099 31.6927 45.7294 31.8378 45.3503C31.9094 45.1607 31.9814 44.969 32.0422 44.7749C32.0999 44.5806 32.1538 44.3843 32.204 44.1862C32.3043 43.7903 32.3895 43.3875 32.4592 42.9809C32.5353 42.5742 32.5686 42.1634 32.5923 41.7514C32.6156 41.3395 32.6233 40.9263 32.6153 40.5148C31.4456 40.4672 30.2634 40.7528 29.1464 41.3067C28.5858 41.5838 28.0504 41.9285 27.5248 42.3343C26.9907 42.7398 26.4796 43.2067 26.0019 43.7319C25.6595 44.1182 25.3125 44.5184 25.0062 44.9338C24.8523 45.1414 24.7061 45.3526 24.5675 45.5671C24.4291 45.7816 24.3008 45.9997 24.1629 46.2183C23.8957 46.6566 23.6588 47.107 23.4525 47.5675C23.3545 47.7988 23.2389 48.0276 23.1426 48.2612C23.0437 48.4943 22.9524 48.7297 22.8688 48.9674L23.129 47.7833C23.2031 47.3862 23.2677 46.9872 23.3374 46.5893C23.4908 45.7955 23.5674 44.9902 23.6735 44.1896C23.6854 44.0894 23.7 43.9894 23.7097 43.8889L23.7337 43.587L23.7818 42.9831L23.8298 42.3793C23.8452 42.1781 23.8653 41.9771 23.8683 41.775L23.9098 40.5646C23.9153 40.3628 23.9268 40.1612 23.9273 39.9594L23.9208 39.3539C24.9183 39.3682 25.915 39.1467 26.844 38.6464C27.0763 38.5214 27.3042 38.3791 27.5269 38.2188C27.6382 38.1387 27.7481 38.0542 27.8566 37.965C27.9624 37.8761 28.0652 37.7827 28.1669 37.6848C28.5731 37.293 28.9509 36.8282 29.2909 36.2889C29.376 36.1538 29.4578 36.0157 29.5361 35.8748L29.6509 35.6615C29.6859 35.5899 29.7196 35.5178 29.7526 35.445C29.8845 35.1538 30.0024 34.8525 30.1062 34.543C30.3116 33.9243 30.4755 33.2703 30.5369 32.6065C30.573 32.2738 30.5951 31.9368 30.6036 31.5977C30.6101 31.2591 30.6135 30.9162 30.5766 30.5786C30.5145 29.9013 30.3988 29.2238 30.2331 28.5635C29.2518 28.753 28.3217 29.2136 27.4973 29.8859Z" fill="white"/>
<path d="M27.4973 29.8859C27.0851 30.2223 26.6994 30.6117 26.3473 31.0485C26.1702 31.267 26.0064 31.4966 25.843 31.7391C25.676 31.9822 25.5178 32.2367 25.3694 32.5022C25.1333 32.9245 24.9315 33.3577 24.7634 33.7982C24.5903 34.2393 24.4281 34.6906 24.3108 35.1449C24.0883 36.053 23.9166 36.985 23.8988 37.916C23.7849 34.9568 23.3766 32.0115 22.6913 29.1343C23.4132 28.9765 24.0957 28.6484 24.6859 28.1398C24.9798 27.8859 25.2554 27.5857 25.4927 27.2425C25.724 26.901 25.9238 26.5146 26.0855 26.0842C26.2473 25.6534 26.3629 25.2001 26.4346 24.7335C26.4926 24.2716 26.5017 23.7981 26.4717 23.3209C26.4565 23.0823 26.4309 22.8431 26.3954 22.6044C26.3771 22.4853 26.3586 22.3654 26.3336 22.2474C26.3065 22.1302 26.277 22.0134 26.2451 21.897C26.1175 21.4315 25.9519 20.9735 25.7525 20.5334C25.0608 20.795 24.4386 21.2395 23.9221 21.8254C23.6639 22.1183 23.4321 22.4468 23.2316 22.8063C23.0313 23.1659 22.8658 23.5551 22.7137 23.9805C22.4743 24.6663 22.354 25.3673 22.3208 26.0695C22.2673 26.778 22.3219 27.4818 22.4604 28.1684C21.8298 25.7706 21.0042 23.4272 20.0121 21.1586C20.594 20.9149 21.1172 20.5342 21.537 20.0193C21.7461 19.7622 21.933 19.4701 22.0821 19.1483C22.2267 18.8286 22.3386 18.4769 22.4127 18.0949C22.4868 17.7125 22.5193 17.319 22.5135 16.9214C22.513 16.7214 22.4939 16.5249 22.4652 16.3284C22.4372 16.1317 22.4 15.935 22.354 15.7392C22.2619 15.3476 22.1351 14.9599 21.9775 14.5838C21.8082 14.214 21.6052 13.8575 21.3778 13.5196C20.83 13.8341 20.3655 14.2909 20.0106 14.852C19.8332 15.1327 19.6832 15.4395 19.5641 15.7683C19.446 16.0967 19.3426 16.456 19.2811 16.8301C19.23 17.1325 19.2031 17.4351 19.1988 17.7357C19.1931 18.037 19.2182 18.3323 19.2434 18.6342C19.302 19.2339 19.4496 19.8159 19.6673 20.3703C18.8275 18.5784 17.8879 16.8351 16.8466 15.1536C17.7341 14.5887 18.3514 13.6147 18.4345 12.3161C18.5086 10.9934 17.9694 9.61815 17.0483 8.59262C16.1878 9.25292 15.6715 10.343 15.6409 11.6286C15.624 12.0441 15.6584 12.4537 15.7384 12.8502C15.8187 13.2467 15.9483 13.6279 16.0959 14.0052C16.0001 13.8611 15.9089 13.7137 15.8092 13.5721L15.5071 13.1495L14.903 12.3043L14.7516 12.0933L14.5919 11.8885L14.2726 11.4788L13.634 10.6597C14.335 10.0861 14.7584 9.19535 14.6985 8.08874C14.6824 7.80672 14.6391 7.52244 14.5623 7.24837C14.4816 6.97767 14.3733 6.71205 14.2416 6.45582C13.9772 5.94411 13.626 5.46315 13.1838 5.08292C12.8495 5.40217 12.5978 5.8051 12.443 6.26246C12.2921 6.71632 12.2224 7.23882 12.2654 7.79075C12.2938 8.1539 12.3688 8.5065 12.484 8.84258C12.5127 8.92672 12.5444 9.00928 12.5776 9.09173C12.6087 9.17582 12.6423 9.25889 12.6782 9.34076C12.75 9.5045 12.8311 9.66353 12.9208 9.81716C12.7325 9.59785 12.5492 9.37412 12.3569 9.15849L11.7687 8.52132L11.1805 7.88443L10.5668 7.27206C11.0849 6.75264 11.3623 5.98865 11.2338 5.0987C11.1602 4.65408 10.9879 4.22346 10.7432 3.83053C10.6203 3.63478 10.482 3.44569 10.3243 3.27431C10.1633 3.10665 9.98774 2.95168 9.80127 2.81236C9.55392 3.09374 9.37812 3.43635 9.28434 3.8163C9.1895 4.19759 9.18273 4.60898 9.25234 5.05624C9.3496 5.65707 9.60867 6.20226 9.96529 6.67297C9.24818 6.007 8.53484 5.33617 7.77582 4.71799C8.18192 4.23685 8.36682 3.56055 8.19298 2.81247C8.09955 2.44034 7.92407 2.08788 7.69014 1.77289C7.45578 1.45856 7.1674 1.17622 6.82814 0.972984C6.44221 1.48879 6.3254 2.1735 6.50635 2.92132C6.63729 3.45354 6.92206 3.91743 7.28666 4.30644C6.9451 4.02692 6.58994 3.76422 6.2423 3.49245C6.06697 3.35841 5.89423 3.22098 5.71683 3.08986L5.17608 2.70803C5.45164 2.32794 5.54777 1.82013 5.38192 1.27698C5.22144 0.720905 4.7995 0.281202 4.30004 -0.00445612C4.03988 0.391386 3.9736 0.914031 4.14984 1.44529C4.21504 1.64287 4.31059 1.82485 4.42627 1.99403C4.53899 2.16755 4.67444 2.32457 4.82709 2.46165L4.36555 2.13584C4.2102 2.02942 4.04967 1.93069 3.892 1.82773L2.94207 1.21624L2.74105 1.53973L3.67605 2.15467C3.83124 2.25815 3.98922 2.35736 4.14206 2.46425L4.59596 2.79145C4.41857 2.69309 4.22889 2.61819 4.03358 2.57201C3.83536 2.53009 3.62906 2.5206 3.42553 2.54187C2.87533 2.60048 2.44703 2.88762 2.19764 3.29037C2.40642 3.4484 2.64376 3.56793 2.89772 3.64052C3.02406 3.67779 3.15725 3.69926 3.28814 3.71541C3.41898 3.73158 3.55254 3.73475 3.68721 3.72366C4.22108 3.67961 4.66765 3.42189 4.93919 3.03883L5.47094 3.422C5.64531 3.55349 5.81503 3.69135 5.98732 3.82571C6.32891 4.09823 6.67784 4.36143 7.01327 4.64137C6.56394 4.36419 6.03567 4.21729 5.5108 4.23124C4.77587 4.24759 4.16504 4.61879 3.79787 5.13818C4.07013 5.35446 4.3671 5.54442 4.69586 5.66716C5.02421 5.7905 5.38034 5.85242 5.74897 5.84043C6.46479 5.82977 7.08587 5.53751 7.49343 5.05351C8.23858 5.67231 8.93789 6.34326 9.64079 7.00859C9.15883 6.67636 8.58902 6.47473 8.00922 6.4432C7.58195 6.41693 7.17326 6.50742 6.82167 6.66619C6.46888 6.82605 6.16673 7.0613 5.927 7.34921C6.07118 7.49091 6.22865 7.61891 6.39755 7.73159C6.56316 7.84806 6.73572 7.95453 6.92049 8.04081C7.28869 8.21473 7.69585 8.32009 8.12575 8.34124C8.95201 8.3991 9.70577 8.12318 10.23 7.6072L10.8311 8.21853L11.4066 8.85414L11.982 9.48955C12.1701 9.70456 12.3491 9.92766 12.533 10.1463C12.3986 10.0332 12.2579 9.9284 12.1119 9.83302C12.0389 9.78533 11.9645 9.73998 11.8889 9.69719C11.8115 9.65611 11.7317 9.61848 11.6514 9.58294C11.3299 9.44136 10.9916 9.34213 10.6442 9.29416C10.116 9.22113 9.62209 9.27192 9.16793 9.43557C8.71739 9.59548 8.32141 9.85334 7.99576 10.1813C8.32283 10.5475 8.69172 10.8809 9.12419 11.128C9.34009 11.252 9.57003 11.3562 9.81198 11.4384C10.0502 11.5239 10.2945 11.5927 10.5525 11.6334C11.5562 11.7942 12.5241 11.5444 13.2299 10.9857L13.8531 11.8014L14.1647 12.2091L14.3205 12.413L14.468 12.623L15.0567 13.4637L15.351 13.884C15.4482 14.0247 15.5368 14.1713 15.6301 14.3146C15.3612 14.0235 15.0388 13.781 14.6966 13.581C14.3546 13.3808 13.9893 13.2254 13.6077 13.1255C12.3844 12.8277 11.2511 13.146 10.4124 13.8261C11.0504 14.7666 11.9984 15.5018 13.1762 15.8255C14.307 16.1467 15.4589 15.9992 16.3603 15.4557C17.3523 17.0966 18.2516 18.7917 19.0505 20.534C18.7595 20.0422 18.4015 19.5906 17.9893 19.2075C17.788 19.0134 17.5491 18.8487 17.3109 18.698C17.07 18.5487 16.8174 18.4196 16.5546 18.3138C16.2164 18.1794 15.8868 18.0853 15.5471 18.0412C15.2082 17.9968 14.8753 17.9932 14.5523 18.0267C13.9062 18.0937 13.2996 18.3093 12.7604 18.6385C12.9041 18.9321 13.0781 19.2098 13.2764 19.4715C13.4633 19.7399 13.6774 19.9904 13.9175 20.2202C14.0376 20.3351 14.1641 20.4448 14.2969 20.5489C14.4303 20.6528 14.5696 20.7512 14.7062 20.8482C14.9843 21.0398 15.287 21.207 15.6125 21.3461C15.9368 21.4846 16.2675 21.5883 16.5991 21.6585C16.9266 21.7306 17.2497 21.7717 17.5734 21.7776C18.2189 21.7899 18.8518 21.6681 19.4267 21.4122C20.3767 23.6431 21.1638 25.9431 21.7609 28.2917C21.5303 27.6492 21.2061 27.0403 20.8047 26.5028C20.3822 25.9715 19.87 25.5155 19.2974 25.1638C18.9432 24.9419 18.5593 24.78 18.1779 24.6656C17.7967 24.5512 17.4147 24.4856 17.0369 24.4648C16.2811 24.4232 15.5422 24.5613 14.8576 24.8415C14.9637 25.2028 15.1058 25.5519 15.2829 25.8858C15.3272 25.9692 15.3737 26.0518 15.4224 26.1333C15.4689 26.2155 15.5135 26.298 15.5625 26.3788C15.6594 26.5406 15.7651 26.6982 15.8793 26.8513C16.1073 27.1575 16.3719 27.4446 16.6652 27.7111C16.9445 27.9814 17.2576 28.2295 17.6032 28.451C17.9481 28.6722 18.3081 28.8557 18.6764 29.002C19.0387 29.1496 19.4026 29.2617 19.7749 29.3342C20.5172 29.4797 21.2737 29.4717 21.9908 29.2968C22.6387 32.1395 23.0118 35.0431 23.0949 37.9535C22.9754 37.0411 22.7558 36.1447 22.332 35.3327C22.1262 34.9263 21.9019 34.5382 21.6259 34.179C21.3445 33.8204 21.034 33.4882 20.6952 33.1885C20.4827 33.0006 20.2644 32.8301 20.0415 32.6768C19.8149 32.524 19.5751 32.3895 19.3372 32.2709C18.8591 32.034 18.3684 31.8632 17.8728 31.7535C16.8813 31.534 15.8697 31.5593 14.8934 31.7751C14.941 32.2538 15.0401 32.7236 15.1906 33.1825C15.2718 33.4112 15.3386 33.6407 15.4288 33.8658C15.5171 34.0911 15.6182 34.3135 15.7322 34.5325C15.9708 34.9697 16.2134 35.3977 16.522 35.8082C16.6751 36.0135 16.8411 36.2147 17.0198 36.4112C17.1094 36.5083 17.1992 36.6055 17.2891 36.7028C17.3795 36.7989 17.4731 36.8937 17.5699 36.9872C17.9563 37.3604 18.3747 37.6937 18.8158 37.9853C18.9259 38.0581 19.0381 38.1284 19.1503 38.1959C19.2597 38.2635 19.3706 38.3283 19.4828 38.3905C19.7071 38.5148 19.9367 38.628 20.1703 38.7298C21.1049 39.1365 22.1045 39.3597 23.1021 39.3515C23.1031 42.6239 22.675 45.8868 21.9116 49.0585C21.9785 48.5425 22.01 48.0233 22.0043 47.5095C21.9772 46.9913 21.9104 46.4779 21.8068 45.9789C21.7808 45.8541 21.7524 45.7302 21.7216 45.6073C21.6894 45.4842 21.6478 45.3609 21.6078 45.2393C21.5257 44.996 21.4341 44.757 21.3329 44.5236C21.128 44.0564 20.898 43.6127 20.59 43.1929C20.2023 42.6505 19.7701 42.1837 19.3034 41.7902C18.828 41.3959 18.305 41.0735 17.7693 40.8205C16.6937 40.3135 15.5317 40.0814 14.3608 40.0651C14.3264 40.331 14.3075 40.5976 14.3042 40.8651C14.3005 41.1324 14.3185 41.4013 14.3248 41.6676C14.3377 41.9347 14.3662 42.2026 14.4105 42.471C14.4326 42.6053 14.4586 42.7397 14.4885 42.8743C14.5154 43.0084 14.5388 43.1414 14.5702 43.2752C14.631 43.5425 14.7077 43.8105 14.8001 44.0788C14.8464 44.2129 14.8965 44.3472 14.9505 44.4816C15.0005 44.615 15.0496 44.7475 15.1053 44.8806C15.2154 45.1466 15.3416 45.4127 15.4834 45.6786C15.6232 45.9438 15.7896 46.2116 15.9455 46.4717C16.2671 46.9921 16.6367 47.4835 17.0439 47.94C17.2508 48.1691 17.4545 48.3857 17.6678 48.5929C17.8818 48.8003 18.1048 48.998 18.3358 49.1851C19.2599 49.9329 20.3107 50.5102 21.4318 50.8285C21.3996 50.9414 21.37 51.055 21.3358 51.1673L21.2252 51.5016L21.0041 52.1701L20.7832 52.8386C20.7032 53.059 20.6161 53.277 20.5329 53.4962L20.2807 54.1531C20.1957 54.3717 20.117 54.5929 20.0179 54.8056L19.4514 56.093C18.6529 57.7895 17.738 59.4281 16.7078 60.9908C16.9621 60.4498 17.1708 59.889 17.3427 59.3269C17.4967 58.7539 17.5952 58.168 17.6558 57.5911C17.6629 57.5188 17.6703 57.447 17.6752 57.3744L17.6818 57.1534C17.6848 57.0063 17.6848 56.8597 17.682 56.7135C17.6763 56.4213 17.659 56.1312 17.6296 55.8443C17.6149 55.7008 17.5971 55.5581 17.5763 55.4164C17.5509 55.2724 17.5207 55.1284 17.4885 54.9859C17.4236 54.7008 17.3465 54.4197 17.2568 54.1437C17.1947 53.9525 17.1274 53.7661 17.055 53.5845C16.9838 53.4034 16.9056 53.2261 16.8147 53.0502C16.6377 52.7005 16.4424 52.3704 16.2306 52.0598C15.8065 51.4383 15.3217 50.8974 14.758 50.4181C13.6452 49.4651 12.3381 48.8119 10.9556 48.3892C10.8348 48.6651 10.7332 48.9472 10.6506 49.2362C10.5569 49.5198 10.4703 49.8046 10.4091 50.0998C10.3778 50.247 10.3512 50.3961 10.3292 50.5471C10.3026 50.6957 10.2735 50.8421 10.2531 50.9928C10.2103 51.2931 10.1863 51.6013 10.1805 51.9179C10.106 53.1519 10.2802 54.5 10.6376 55.9171C10.7285 56.2689 10.8346 56.6203 10.9546 56.9697C11.0149 57.1425 11.0747 57.3138 11.134 57.4837C11.1954 57.6531 11.2604 57.8219 11.3286 57.99C11.6007 58.6611 11.9318 59.3245 12.3013 59.951C13.0264 61.1916 13.9549 62.3287 15.0817 63.2096C13.5527 65.1454 11.8142 66.9125 9.89812 68.4571C7.98275 70.0024 5.89008 71.3238 3.67307 72.3843C4.35317 71.979 5.01722 71.552 5.58805 71.0071C5.73324 70.8753 5.87528 70.7411 6.01403 70.6048L6.2196 70.3988C6.28782 70.3304 6.35416 70.2599 6.41609 70.1833C6.66818 69.8837 6.90588 69.5764 7.12743 69.2627C7.23791 69.1055 7.34554 68.9485 7.44663 68.7868C7.54311 68.6185 7.63532 68.4488 7.72309 68.278C7.89869 67.9364 8.05642 67.5903 8.19481 67.241C8.26676 67.07 8.32067 66.8811 8.37542 66.6991C8.42892 66.5155 8.47753 66.3314 8.521 66.147C8.60718 65.7772 8.67623 65.4099 8.71766 65.0353C8.75878 64.568 8.76743 64.1128 8.74559 63.6705C8.7219 63.2262 8.67689 62.805 8.58063 62.3717C8.39845 61.5161 8.10655 60.7179 7.72529 59.9753C6.94106 58.466 5.80188 57.1845 4.50912 56.0923C4.07881 56.5177 3.66888 56.943 3.33354 57.4489C3.15164 57.6844 2.98725 57.9388 2.83871 58.2134C2.76788 58.3554 2.68557 58.4817 2.61202 58.6196C2.53769 58.7566 2.46718 58.8987 2.40039 59.046C2.33238 59.1917 2.27286 59.3495 2.20801 59.5001C2.14087 59.6475 2.07723 59.8002 2.01701 59.9582C1.95673 60.1163 1.8998 60.2798 1.84597 60.4486L1.76762 60.7059L1.68472 60.9574C1.57606 61.2961 1.47978 61.6567 1.39462 62.0389C1.35446 62.234 1.30785 62.4192 1.26456 62.6105C1.22165 62.8026 1.18162 63 1.14437 63.2028C1.10716 63.4055 1.0731 63.611 1.04223 63.8189C1.01219 64.0275 0.982494 64.2341 0.952983 64.4389C0.894195 64.8467 0.848371 65.2636 0.815379 65.6866C0.781285 66.1074 0.764871 66.5438 0.753079 66.9659C0.740211 67.3858 0.74151 67.8099 0.757996 68.2354C0.825063 69.9373 1.1291 71.6583 1.78768 73.2188L2.25544 74.3679C2.87264 75.9468 3.86043 77.3664 5.32865 78.4507C5.6954 78.7218 6.09185 78.9717 6.51883 79.1977C6.94478 79.4216 7.39291 79.6023 7.87599 79.7646C8.35798 79.9245 8.8705 80.0562 9.41339 80.1567C9.68662 80.2103 9.96065 80.2434 10.2419 80.2676C10.5236 80.2927 10.8126 80.3093 11.1089 80.317C11.4051 80.3247 11.705 80.3234 12.0077 80.3133C12.3109 80.3038 12.6175 80.2863 12.9169 80.2449C13.5209 80.17 14.1346 80.0597 14.7533 79.916C14.9075 79.8794 15.0641 79.8435 15.2171 79.8005C15.3687 79.7555 15.5204 79.7084 15.6723 79.6592C15.9762 79.5608 16.2807 79.4543 16.5852 79.3397C16.8898 79.2253 17.1944 79.1028 17.4984 78.9728C17.7998 78.8399 18.0905 78.6878 18.3855 78.5348C18.6793 78.3802 18.9719 78.2184 19.2626 78.0496C19.5525 77.88 19.8464 77.7092 20.1194 77.5139C20.6738 77.1315 21.2187 76.7229 21.7495 76.2921C22.7769 75.402 23.7537 74.4253 24.5718 73.3426C23.3058 72.2135 21.6873 71.5064 19.8895 71.1454C18.9776 70.9552 18.0194 70.8509 17.0358 70.8299C16.5495 70.8247 16.0309 70.8162 15.5172 70.8372C15.0016 70.8565 14.481 70.896 13.9575 70.9565C13.5195 70.9976 13.0816 71.0445 12.6543 71.1077C12.4403 71.1389 12.228 71.1732 12.0176 71.2107C11.8059 71.2466 11.602 71.2929 11.3863 71.3256C10.9606 71.3978 10.5421 71.4822 10.1311 71.5788C9.92565 71.6271 9.72203 71.6785 9.52028 71.733C9.31387 71.7808 9.10699 71.8284 8.90321 71.8809C8.49507 71.9849 8.09432 72.101 7.70095 72.2296C7.60364 72.2635 7.50328 72.2924 7.40241 72.3206L7.10269 72.41C6.90378 72.4712 6.70665 72.5353 6.51127 72.6027C5.73944 72.8899 4.95208 73.1468 4.20471 73.4825C6.4955 72.3591 8.65288 70.9668 10.6205 69.3474C12.589 67.7286 14.3677 65.8843 15.9251 63.8727C17.0481 64.7691 18.3804 65.3976 19.913 65.6082C20.6717 65.709 21.4644 65.6954 22.3035 65.5634C22.5129 65.5301 22.7248 65.4893 22.9389 65.4405C23.1523 65.3913 23.3725 65.3367 23.582 65.2669C24.0066 65.1302 24.439 64.9608 24.8776 64.757C26.6545 63.9428 28.2425 62.5917 29.558 60.9244C29.8726 60.503 30.1734 60.0632 30.4584 59.6085C30.5999 59.3809 30.7418 59.1509 30.8716 58.9153C30.9964 58.6783 31.1171 58.438 31.2334 58.195C31.4644 57.7084 31.6849 57.2125 31.8737 56.7062C32.0506 56.1971 32.2087 55.6806 32.3467 55.1607C30.9761 54.7012 29.4713 54.6561 27.9533 54.9494C27.2019 55.0986 26.4152 55.3235 25.6416 55.6279C25.2547 55.7802 24.8695 55.9519 24.488 56.1429C24.2961 56.2409 24.1026 56.3398 23.907 56.4396C23.7113 56.5422 23.5165 56.6495 23.3227 56.7615C22.168 57.4429 21.0836 58.2189 20.1045 59.0752C19.854 59.2865 19.6118 59.5039 19.3781 59.7274C19.1439 59.9507 18.9238 60.1833 18.6882 60.4081C18.4583 60.6361 18.2368 60.8701 18.0238 61.1101C17.9173 61.2301 17.8129 61.3516 17.7106 61.4747C17.6091 61.5981 17.4969 61.7148 17.3939 61.8375C18.4884 60.1861 19.4527 58.4515 20.2861 56.6562C21.0989 54.8513 21.7775 52.9893 22.3279 51.0908C23.4395 51.4224 24.6232 51.4907 25.822 51.2137C26.1216 51.1445 26.4221 51.0539 26.7225 50.9406C27.0236 50.8275 27.3244 50.6918 27.6109 50.53C28.1904 50.2078 28.7617 49.7909 29.3144 49.2739C29.5993 49.0138 29.845 48.7308 30.0891 48.4326C30.3308 48.1341 30.5598 47.8188 30.7755 47.4891C30.8827 47.3241 30.9892 47.1559 31.0874 46.9838C31.1814 46.8113 31.2719 46.6355 31.3589 46.4567C31.5329 46.099 31.6927 45.7294 31.8378 45.3503C31.9094 45.1607 31.9814 44.969 32.0422 44.7749C32.0999 44.5806 32.1538 44.3843 32.204 44.1862C32.3043 43.7903 32.3895 43.3875 32.4592 42.9809C32.5353 42.5742 32.5686 42.1634 32.5923 41.7514C32.6156 41.3395 32.6233 40.9263 32.6153 40.5148C31.4456 40.4672 30.2634 40.7528 29.1464 41.3067C28.5858 41.5838 28.0504 41.9285 27.5248 42.3343C26.9907 42.7398 26.4796 43.2067 26.0019 43.7319C25.6595 44.1182 25.3125 44.5184 25.0062 44.9338C24.8523 45.1414 24.7061 45.3526 24.5675 45.5671C24.4291 45.7816 24.3008 45.9997 24.1629 46.2183C23.8957 46.6566 23.6588 47.107 23.4525 47.5675C23.3545 47.7988 23.2389 48.0276 23.1426 48.2612C23.0437 48.4943 22.9524 48.7297 22.8688 48.9674L23.129 47.7833C23.2031 47.3862 23.2677 46.9872 23.3374 46.5893C23.4908 45.7955 23.5674 44.9902 23.6735 44.1896C23.6854 44.0894 23.7 43.9894 23.7097 43.8889L23.7337 43.587L23.7818 42.9831L23.8298 42.3793C23.8452 42.1781 23.8653 41.9771 23.8683 41.775L23.9098 40.5646C23.9153 40.3628 23.9268 40.1612 23.9273 39.9594L23.9208 39.3539C24.9183 39.3682 25.915 39.1467 26.844 38.6464C27.0763 38.5214 27.3042 38.3791 27.5269 38.2188C27.6382 38.1387 27.7481 38.0542 27.8566 37.965C27.9624 37.8761 28.0652 37.7827 28.1669 37.6848C28.5731 37.293 28.9509 36.8282 29.2909 36.2889C29.376 36.1538 29.4578 36.0157 29.5361 35.8748L29.6509 35.6615C29.6859 35.5899 29.7196 35.5178 29.7526 35.445C29.8845 35.1538 30.0024 34.8525 30.1062 34.543C30.3116 33.9243 30.4755 33.2703 30.5369 32.6065C30.573 32.2738 30.5951 31.9368 30.6036 31.5977C30.6101 31.2591 30.6135 30.9162 30.5766 30.5786C30.5145 29.9013 30.3988 29.2238 30.2331 28.5635C29.2518 28.753 28.3217 29.2136 27.4973 29.8859Z" fill="url(#paint0_linear_5080_20762)"/>
<defs>
<linearGradient id="paint0_linear_5080_20762" x1="-3.42789" y1="3.14139" x2="26.0291" y2="75.5039" gradientUnits="userSpaceOnUse">
<stop stop-color="#9208FF"/>
<stop offset="1" stop-color="#B009FF"/>
</linearGradient>
</defs>
</svg>
