<svg width="19" height="19" viewBox="0 0 19 19" fill="none" xmlns="http://www.w3.org/2000/svg">
<path d="M18.6303 7.46304C18.5482 7.20438 18.3898 6.97658 18.1759 6.80951C17.9621 6.64243 17.7027 6.54388 17.4319 6.52678L12.5551 6.18894L10.75 1.63186C10.6515 1.38094 10.4799 1.16538 10.2574 1.01309C10.0349 0.860805 9.7719 0.7788 9.50232 0.777696C9.23273 0.778665 8.96964 0.860538 8.74711 1.01271C8.52458 1.16489 8.35285 1.38036 8.25416 1.63124L6.41394 6.21203L1.56988 6.5228C1.29936 6.54088 1.04048 6.63971 0.82674 6.80652C0.612998 6.97333 0.454228 7.20043 0.370968 7.45846C0.285468 7.72044 0.280406 8.00203 0.356434 8.26692C0.432462 8.5318 0.586095 8.76784 0.797523 8.9446L4.52414 12.0982L3.41467 16.4575C3.33792 16.7524 3.35164 17.0636 3.45406 17.3506C3.55648 17.6376 3.74286 17.8872 3.98898 18.0669C4.22788 18.2384 4.51253 18.3348 4.80651 18.3436C5.10049 18.3525 5.39042 18.2734 5.63921 18.1165L9.49037 15.6791L9.50679 15.6791L13.6523 18.2992C13.8649 18.4374 14.1128 18.5116 14.3665 18.5128C14.5736 18.5112 14.7776 18.4622 14.9628 18.3695C15.1479 18.2767 15.3094 18.1428 15.4347 17.9779C15.56 17.813 15.6459 17.6216 15.6856 17.4183C15.7254 17.2151 15.718 17.0054 15.6641 16.8054L14.4913 12.035L18.203 8.94896C18.4145 8.77231 18.5683 8.53635 18.6444 8.2715C18.7206 8.00665 18.7157 7.72506 18.6303 7.46304Z" fill="#9B50FC"/>
<path d="M18.6303 7.46304C18.5482 7.20438 18.3898 6.97658 18.1759 6.80951C17.9621 6.64243 17.7027 6.54388 17.4319 6.52678L12.5551 6.18894L10.75 1.63186C10.6515 1.38094 10.4799 1.16538 10.2574 1.01309C10.0349 0.860805 9.7719 0.7788 9.50232 0.777696C9.23273 0.778665 8.96964 0.860538 8.74711 1.01271C8.52458 1.16489 8.35285 1.38036 8.25416 1.63124L6.41394 6.21203L1.56988 6.5228C1.29936 6.54088 1.04048 6.63971 0.82674 6.80652C0.612998 6.97333 0.454228 7.20043 0.370968 7.45846C0.285468 7.72044 0.280406 8.00203 0.356434 8.26692C0.432462 8.5318 0.586095 8.76784 0.797523 8.9446L4.52414 12.0982L3.41467 16.4575C3.33792 16.7524 3.35164 17.0636 3.45406 17.3506C3.55648 17.6376 3.74286 17.8872 3.98898 18.0669C4.22788 18.2384 4.51253 18.3348 4.80651 18.3436C5.10049 18.3525 5.39042 18.2734 5.63921 18.1165L9.49037 15.6791L9.50679 15.6791L13.6523 18.2992C13.8649 18.4374 14.1128 18.5116 14.3665 18.5128C14.5736 18.5112 14.7776 18.4622 14.9628 18.3695C15.1479 18.2767 15.3094 18.1428 15.4347 17.9779C15.56 17.813 15.6459 17.6216 15.6856 17.4183C15.7254 17.2151 15.718 17.0054 15.6641 16.8054L14.4913 12.035L18.203 8.94896C18.4145 8.77231 18.5683 8.53635 18.6444 8.2715C18.7206 8.00665 18.7157 7.72506 18.6303 7.46304Z" fill="url(#paint0_linear_5080_20767)"/>
<defs>
<linearGradient id="paint0_linear_5080_20767" x1="9.50232" y1="0.777696" x2="9.49787" y2="18.5116" gradientUnits="userSpaceOnUse">
<stop stop-color="#9208FF"/>
<stop offset="1" stop-color="#B009FF"/>
</linearGradient>
</defs>
</svg>
