<svg width="20" height="20" viewBox="0 0 20 20" fill="none" xmlns="http://www.w3.org/2000/svg">
<path d="M7.34425 9.67699C7.72508 9.36033 8.10925 9.36033 8.49925 9.68616L8.58925 9.76783L12.7442 13.9228L12.8226 13.992C12.9829 14.1163 13.1831 14.1778 13.3856 14.165C13.588 14.1523 13.7789 14.0661 13.9224 13.9226C14.0658 13.7792 14.152 13.5883 14.1648 13.3858C14.1776 13.1833 14.116 12.9832 13.9917 12.8228L13.9226 12.7445L12.8459 11.667L13.0892 11.4228L13.1776 11.3437C13.5584 11.027 13.9426 11.027 14.3326 11.3528L14.4226 11.4345L18.3176 15.3303C18.2387 16.1239 17.8779 16.8629 17.3007 17.4131C16.7235 17.9634 15.9682 18.2885 15.1717 18.3295L15.0001 18.3337H5.00008C4.17334 18.3336 3.37612 18.0263 2.76321 17.4715C2.15031 16.9166 1.76547 16.1538 1.68341 15.3312L7.25591 9.75616L7.34425 9.67699ZM15.0001 1.66699C15.8553 1.66699 16.6778 1.99569 17.2974 2.5851C17.9171 3.1745 18.2865 3.97953 18.3292 4.83366L18.3334 5.00033V12.9878L15.5892 10.2445L15.4642 10.1303C14.4176 9.21783 13.0892 9.21616 12.0509 10.1162L11.9226 10.2328L11.6667 10.4878L9.75591 8.57783L9.63091 8.46366C8.58425 7.55116 7.25591 7.54949 6.21758 8.44949L6.08925 8.56616L1.66675 12.9878V5.00033C1.66675 4.14512 1.99544 3.32264 2.58485 2.70298C3.17426 2.08333 3.97928 1.71392 4.83341 1.67116L5.00008 1.66699H15.0001ZM12.5084 5.83366L12.4026 5.83949C12.2 5.86358 12.0134 5.96112 11.8779 6.11363C11.7425 6.26614 11.6677 6.46302 11.6677 6.66699C11.6677 6.87096 11.7425 7.06785 11.8779 7.22035C12.0134 7.37286 12.2 7.4704 12.4026 7.49449L12.5001 7.50033L12.6059 7.49449C12.8085 7.4704 12.9951 7.37286 13.1306 7.22035C13.266 7.06785 13.3408 6.87096 13.3408 6.66699C13.3408 6.46302 13.266 6.26614 13.1306 6.11363C12.9951 5.96112 12.8085 5.86358 12.6059 5.83949L12.5084 5.83366Z" fill="#9DB2CE"/>
</svg>
