<svg width="17" height="16" viewBox="0 0 17 16" fill="none" xmlns="http://www.w3.org/2000/svg">
<path fill-rule="evenodd" clip-rule="evenodd" d="M8.50006 9.41474L12.0354 12.9501C12.223 13.1377 12.4774 13.2431 12.7427 13.2431C13.008 13.2431 13.2625 13.1377 13.4501 12.9501C13.6377 12.7625 13.743 12.508 13.743 12.2427C13.743 11.9774 13.6377 11.723 13.4501 11.5354L9.91339 8.00007L13.4494 4.46474C13.5422 4.37185 13.6159 4.26159 13.6661 4.14024C13.7163 4.01889 13.7422 3.88884 13.7421 3.7575C13.7421 3.62617 13.7162 3.49613 13.6659 3.37481C13.6156 3.25348 13.5419 3.14325 13.4491 3.05041C13.3562 2.95756 13.2459 2.88392 13.1246 2.83369C13.0032 2.78346 12.8732 2.75762 12.7418 2.75766C12.6105 2.75769 12.4805 2.78358 12.3591 2.83387C12.2378 2.88416 12.1276 2.95785 12.0347 3.05074L8.50006 6.58607L4.96473 3.05074C4.87253 2.95519 4.76222 2.87895 4.64024 2.82649C4.51826 2.77402 4.38705 2.74638 4.25427 2.74516C4.1215 2.74394 3.98981 2.76918 3.86689 2.81941C3.74397 2.86963 3.63228 2.94383 3.53834 3.03768C3.44441 3.13153 3.3701 3.24314 3.31976 3.36601C3.26942 3.48889 3.24406 3.62055 3.24515 3.75333C3.24624 3.88611 3.27377 4.01734 3.32612 4.13937C3.37847 4.2614 3.4546 4.37178 3.55006 4.46407L7.08673 8.00007L3.55073 11.5361C3.45526 11.6284 3.37913 11.7387 3.32678 11.8608C3.27443 11.9828 3.24691 12.114 3.24582 12.2468C3.24473 12.3796 3.27009 12.5113 3.32043 12.6341C3.37077 12.757 3.44507 12.8686 3.53901 12.9625C3.63295 13.0563 3.74463 13.1305 3.86755 13.1807C3.99047 13.231 4.12216 13.2562 4.25494 13.255C4.38772 13.2538 4.51893 13.2261 4.64091 13.1737C4.76288 13.1212 4.87319 13.045 4.96539 12.9494L8.50006 9.41474Z" fill="white"/>
</svg>
