<svg width="12" height="14" viewBox="0 0 12 14" fill="none" xmlns="http://www.w3.org/2000/svg">
<path d="M1.91602 6.96472C1.91602 7.18746 2.00118 7.37744 2.17806 7.54777L7.28792 12.5463C7.4255 12.6904 7.60893 12.7625 7.81856 12.7625C8.24438 12.7625 8.57849 12.4349 8.57849 12.0025C8.57849 11.7929 8.49333 11.6029 8.3492 11.4588L3.74377 6.96472L8.3492 2.47066C8.49333 2.31999 8.57849 2.13 8.57849 1.92037C8.57849 1.49455 8.24438 1.16699 7.81856 1.16699C7.60893 1.16699 7.4255 1.23905 7.28792 1.38318L2.17806 6.38167C2.00118 6.552 1.92257 6.74198 1.91602 6.96472Z" fill="#9DB2CE"/>
</svg>
