<svg width="43" height="42" viewBox="0 0 43 42" fill="none" xmlns="http://www.w3.org/2000/svg">
<path d="M39.8769 21.408C39.8769 19.8972 39.7518 18.7947 39.4811 17.6514H21.877V24.4705H32.2102C32.0019 26.1651 30.8769 28.7172 28.3769 30.4321L28.3419 30.6604L33.908 34.8861L34.2936 34.9239C37.8352 31.7184 39.8769 27.0021 39.8769 21.408Z" fill="#4285F4"/>
<path d="M21.8755 39.3748C26.9379 39.3748 31.1878 37.7413 34.2921 34.9239L28.3754 30.4321C26.7921 31.5142 24.6671 32.2696 21.8755 32.2696C16.9172 32.2696 12.7089 29.0642 11.2088 24.6338L10.9889 24.6521L5.20118 29.0417L5.12549 29.2479C8.20878 35.2504 14.5421 39.3748 21.8755 39.3748Z" fill="#34A853"/>
<path d="M11.2102 24.6341C10.8144 23.4908 10.5853 22.2657 10.5853 20.9999C10.5853 19.734 10.8144 18.509 11.1894 17.3657L11.1789 17.1222L5.31864 12.6621L5.1269 12.7515C3.85613 15.2424 3.12695 18.0395 3.12695 20.9999C3.12695 23.9603 3.85613 26.7573 5.1269 29.2482L11.2102 24.6341Z" fill="#FBBC05"/>
<path d="M21.8756 9.72995C25.3963 9.72995 27.7713 11.2204 29.1255 12.4659L34.4172 7.4025C31.1673 4.44209 26.938 2.625 21.8756 2.625C14.5422 2.625 8.2088 6.74913 5.12549 12.7516L11.188 17.3658C12.7089 12.9354 16.9173 9.72995 21.8756 9.72995Z" fill="#EB4335"/>
</svg>
